<svg width="124" height="66" viewBox="0 0 124 66" fill="none" xmlns="http://www.w3.org/2000/svg">
<path d="M31.4965 42.0086H19.2006V24.0388H23.7879V37.8836H31.4492V42.0086H31.4965Z" fill="#9E9E9E"/>
<path d="M38.4957 24.0388V35.2284C38.4957 36.7931 39.8199 38.3103 41.617 38.3103C43.2722 38.3103 44.7382 36.7931 44.7382 35.2284V24.0388H49.3256V35.2284C49.3256 39.8276 45.022 42.2457 41.5697 42.2457C38.1174 42.2457 33.8611 39.9224 33.8611 35.2284V24.0388H38.4957Z" fill="#9E9E9E"/>
<path d="M90.8009 33.0474C90.8009 38.6897 86.5919 42.3405 81.5317 42.3405C76.4715 42.3405 72.2152 38.7371 72.2152 33.0474C72.2152 27.4052 76.4242 23.7069 81.5317 23.7069C86.5919 23.6595 90.8009 27.4526 90.8009 33.0474ZM81.5317 38.2155C83.849 38.2155 86.2136 36.9353 86.2136 33.0474C86.2136 29.3017 83.849 27.8793 81.5317 27.8793C79.1198 27.8793 76.8498 29.5862 76.8498 33.0474C76.8498 36.4612 79.2617 38.2155 81.5317 38.2155Z" fill="#9E9E9E"/>
<path d="M105.886 28.0215H98.5089V31.3879H105.697V35.3232H98.5089V42.0086H94.0161V24.0387H105.886V28.0215Z" fill="#9E9E9E"/>
<path d="M124 24.0387V27.9741H118.94V42.0086H114.352V27.9741H109.387V24.0387H124Z" fill="#9E9E9E"/>
<path d="M23.9298 14.7931L32.9625 5.68966L41.9007 14.6509V8.91379L32.9625 0L23.9298 9.00862V14.7931Z" fill="#9E9E9E"/>
<path d="M14.6605 42.0086L5.67504 33L14.7078 23.9914H8.98548L0 33L8.98548 42.0086H14.6605Z" fill="#9E9E9E"/>
<path d="M41.9007 51.3965L32.9625 60.2629L23.9298 51.2543V56.944L32.9625 66L41.9007 57.0862V51.3965Z" fill="#9E9E9E"/>
<path d="M63.3716 38.3578L66.9658 42.0086H72.6881L66.2564 35.5129L63.3716 38.3578Z" fill="#9E9E9E"/>
<path d="M66.2564 30.4871L72.7827 23.9914H67.1077L63.3716 27.6422L66.2564 30.4871Z" fill="#9E9E9E"/>
<path d="M51.2172 24.0388L60.1554 33L51.2172 42.0086H56.9396L65.8305 33L56.9396 24.0388H51.2172Z" fill="#9E9E9E"/>
</svg>
