<svg width="128" height="51" viewBox="0 0 128 51" fill="none" xmlns="http://www.w3.org/2000/svg">
<path d="M81.0338 27.0488C75.2165 27.2416 71.6058 28.2786 71.6058 32.0877C71.6058 34.5539 73.6118 37.2262 78.5999 37.2262C85.3332 37.2262 88.9305 33.5767 88.9305 27.6006V26.9358C86.5635 26.9425 83.6549 26.9624 81.0338 27.0488ZM95.3362 34.9528C95.3362 36.8074 95.3897 38.6422 95.5501 40.2708H89.5992C89.451 38.9465 89.3795 37.6148 89.3852 36.2823C86.1623 40.2243 82.3243 41.361 77.0018 41.361C69.0917 41.3477 64.8591 37.2262 64.8591 32.4001C64.8591 25.4534 70.6095 23.0005 80.5925 22.7745C83.3205 22.7146 86.3896 22.7013 88.9238 22.7013V22.0366C88.9238 17.3833 85.9216 15.4688 80.7262 15.4688C76.8681 15.4688 74.0397 17.0576 73.7254 19.803H66.9854C67.7009 12.9627 74.929 11.2277 81.2878 11.2277C88.9038 11.2277 95.3295 13.9199 95.3295 21.9302L95.3362 34.9528Z" fill="#9E9E9E"/>
<path d="M25.5558 23.652C25.3084 17.6692 20.9755 15.4555 16.3485 15.4555C11.367 15.4555 7.35514 17.9484 6.68649 23.652H25.5558ZM6.53271 27.9197C6.8804 33.7097 10.8923 37.1332 16.4153 37.1332C20.24 37.1332 23.6434 35.5843 24.7801 32.214H31.4265C30.0892 39.0211 22.8009 41.3477 16.509 41.3477C5.06836 41.3477 0 35.0791 0 26.6367C0 17.3301 5.24221 11.2144 16.6159 11.2144C25.6628 11.2144 32.2958 15.9541 32.2958 26.198V27.9197H6.53271Z" fill="#9E9E9E"/>
<path d="M48.745 36.9869C54.7094 36.9869 58.7747 32.7192 58.7747 26.2844C58.7747 19.8496 54.696 15.5819 48.745 15.5819C42.794 15.5819 38.7153 19.8496 38.7153 26.2844C38.7153 32.7192 42.794 36.9869 48.745 36.9869ZM32.2962 0H38.7086V16.0206C41.8512 12.298 46.1841 11.2144 50.4434 11.2144C57.5912 11.2144 65.5281 16.0073 65.5281 26.3642C65.5281 35.006 59.2161 41.3477 50.323 41.3477C45.6425 41.3477 41.2896 39.6859 38.5882 36.402C38.5884 37.7013 38.5148 38.9997 38.3676 40.2908H32.0956C32.2026 38.2965 32.3163 35.7439 32.3163 33.7031L32.2962 0Z" fill="#9E9E9E"/>
<path d="M128 12.278L108.168 51H100.966L106.67 40.2443L91.7659 12.278H99.2681L110.254 34.1352L121.207 12.2847L128 12.278Z" fill="#9E9E9E"/>
</svg>
