<svg width="124" height="25" viewBox="0 0 124 25" fill="none" xmlns="http://www.w3.org/2000/svg">
<path fill-rule="evenodd" clip-rule="evenodd" d="M0 0H25.5992V25H0V0ZM18.1669 7.65664C18.6593 7.41932 19.1546 7.18064 19.8836 6.76443C20.4891 7.61589 20.6344 9.60265 20.6586 11.1873C20.6902 11.1242 20.7222 11.0504 20.7545 10.9675L20.7555 10.9981C21.2429 10.0234 21.8415 6.52893 21.656 5.63582C22.1472 5.28215 22.4158 4.96959 22.5597 4.75375C22.6297 4.65613 22.6807 4.56271 22.7344 4.46459C22.7665 4.40572 22.7996 4.34515 22.8383 4.28098C22.5809 4.30612 22.3526 4.32458 22.1465 4.34124C21.5769 4.38728 21.1774 4.41958 20.8039 4.54115C19.4719 3.73699 16.7594 2.93283 14.5312 2.76727L14.4586 2.93283C15.1028 3.19317 17.5198 4.46839 18.1771 5.0427C16.6347 5.27586 13.9842 6.06441 12.618 6.78808L12.5211 6.95364C14.1528 6.60214 16.4263 6.43638 18.0227 6.34133C17.5591 7.00266 17.2145 7.43372 16.5373 8.17369L16.1781 8.56197L16.1055 8.75118C17.0287 8.20513 17.5959 7.93179 18.1669 7.65664ZM8.37969 20.1041L8.30703 20.2696C7.39331 20.2467 6.68356 20.1353 5.87085 19.9354C5.84476 20.4276 5.88154 20.8324 6.03047 21.3103L5.998 21.2785L6.00625 21.3103L5.93359 21.4759C5.25547 20.8136 4.84375 20.246 4.43203 19.3945C3.68125 19.0397 3.14844 18.7323 2.47031 18.3302L2.54297 18.1646C2.60403 18.1414 2.66556 18.121 2.72764 18.1027C3.11273 17.956 3.46741 17.8355 3.92395 17.7026C3.75826 16.7383 3.8086 15.8637 3.94766 14.6641L3.99609 14.4986C4.01225 14.5712 4.0282 14.6441 4.04403 14.7172C4.05191 14.6455 4.06016 14.5727 4.06875 14.4986C4.33516 15.6812 4.57734 16.5563 5.08594 17.4314C5.48072 17.3573 5.84695 17.3017 6.2443 17.2414L6.42852 17.2135C6.59098 17.1772 6.75679 17.146 6.92656 17.1239L6.92101 17.1366L6.99922 17.1239C6.5875 17.6916 6.34531 18.141 6.12734 18.7323C6.85391 19.3945 7.50781 19.7729 8.40391 20.1041L8.37785 20.1034L8.37969 20.1041ZM10.6562 7.7105C10.6562 7.7105 10.3622 8.22333 10.1066 8.92423C11.8161 9.15875 13.2615 9.85104 13.9057 10.2003C14.0725 10.2739 14.2027 10.3368 14.2891 10.3832L14.2164 10.5487C12.1578 10.1939 11.0922 10.2412 10.3172 10.3122C9.56641 10.3832 9.39687 10.4778 9.39687 10.4778C8.96094 11.4238 8.69453 12.9376 8.59766 13.5052L8.525 13.6708C8.16172 12.7956 7.60469 11.0454 7.60469 11.0454C6.56328 11.5894 4.18984 13.7654 4.18984 13.7654C4.22248 13.7016 4.25514 13.6387 4.28779 13.5767L4.2625 13.5998C5.33117 11.5125 6.41602 10.357 6.77702 10.0042C6.2842 9.58584 5.15132 9.36528 4.31094 9.34248L4.38359 9.17692C4.84375 8.9877 6.00625 8.77483 6.90234 8.75118C7.79844 8.72753 8.33125 8.77483 8.33125 8.77483C9.13047 8.13623 10.3414 7.61589 10.7531 7.56859C10.7174 7.61226 10.6812 7.66058 10.6452 7.71238L10.6562 7.7105ZM15.2373 18.4472L15.3062 18.3775C14.6523 18.8269 14.0953 19.158 13.3445 19.5128C13.2875 19.2528 13.2752 19.022 13.2609 18.7516C13.2569 18.6776 13.2529 18.6007 13.2477 18.5194C12.8359 19.0634 12.4727 19.4891 12.0125 19.9858C11.3087 20.1733 10.7552 20.269 10.1038 20.2892C10.0107 20.289 9.92015 20.29 9.83281 20.2933L9.76016 20.4588C10.1909 20.6802 10.6216 20.8187 11.092 20.9131C10.7278 21.2231 10.397 21.4703 10.0316 21.71C9.97961 21.7425 9.92931 21.7747 9.88125 21.807L9.80859 21.9726C10.6078 21.7833 11.6734 21.4522 12.4484 21.0028C12.8602 21.0265 13.2477 21.0028 13.5141 20.9319C13.5141 20.9319 13.5687 20.7897 13.5832 20.7673L13.5867 20.7663C13.5223 20.5568 13.477 20.4029 13.4338 20.1567C14.1034 19.6256 14.6129 19.1492 15.2094 18.5667L15.3062 18.4011L15.2373 18.4472Z" fill="#9E9E9E"/>
<path d="M34.7539 16.8401C35.6016 16.8401 36.5219 17.1476 36.5219 17.9044C36.5219 18.3302 36.1586 18.685 35.6016 18.8742C36.3281 19.1343 36.7398 19.5364 36.7398 20.0804C36.7398 21.0028 35.5773 21.334 34.4875 21.334H31.993C32.0414 20.7427 32.0656 19.9149 32.0656 18.9924C32.0656 18.3775 32.0656 17.4551 31.993 16.8638H34.7539V16.8401ZM34.0516 17.4078C33.8336 17.4078 33.6156 17.4314 33.4945 17.4314C33.4703 18.0227 33.4703 18.3065 33.4703 18.9688C33.4703 19.7729 33.4703 20.0804 33.4945 20.719H34.1484C34.9234 20.719 35.3109 20.4825 35.3109 20.0331C35.3109 19.5128 34.8266 19.2763 34.1969 19.2763H33.8094L34.0758 18.614H34.3664C34.6812 18.614 35.1172 18.4484 35.1172 18.0464C35.1172 17.597 34.7055 17.4078 34.0516 17.4078Z" fill="#9E9E9E"/>
<path d="M41.8016 16.8401C41.7531 17.3368 41.7289 18.5194 41.7289 18.9688C41.7289 19.3709 41.7289 20.6954 41.8016 21.3103H40.7117L38.9922 18.8269C38.8469 18.6377 38.75 18.4248 38.7016 18.2119V19.631C38.7016 20.175 38.7258 20.9319 38.7742 21.334H37.5391C37.6117 20.6481 37.6359 19.3709 37.6359 18.9924C37.6359 18.5667 37.6117 17.3605 37.5875 16.8638H38.9922L40.4453 19.1816C40.518 19.2999 40.5422 19.3472 40.5906 19.4655V16.8638H41.8016V16.8401Z" fill="#9E9E9E"/>
<path d="M45.168 16.8401C46.1609 16.8401 47.3719 17.1239 47.3719 18.1646C47.3719 19.087 46.5242 19.5364 44.7805 19.5364C44.6836 19.5364 44.393 19.5364 44.3203 19.5364C44.3445 20.1514 44.3445 20.9082 44.393 21.334H42.8672C42.9156 20.719 42.9398 19.702 42.9398 18.9924C42.9398 18.3538 42.9156 17.2895 42.8672 16.8638H45.168V16.8401ZM44.3203 17.4551C44.3203 17.7389 44.2961 18.0464 44.2961 18.3302C44.2961 18.543 44.2961 18.7086 44.3203 18.8742C44.3687 18.8742 44.6109 18.8742 44.7562 18.8742C45.2406 18.8742 45.9188 18.7323 45.9188 18.141C45.9188 17.5497 45.2406 17.4314 44.7078 17.4314C44.6594 17.4551 44.393 17.4551 44.3203 17.4551Z" fill="#9E9E9E"/>
<path d="M52.0945 16.8401C53.0875 16.8401 54.2984 17.1239 54.2984 18.1646C54.2984 19.087 53.4508 19.5364 51.707 19.5364C51.6102 19.5364 51.3195 19.5364 51.2469 19.5364C51.2711 20.1514 51.2711 20.9082 51.3195 21.334H49.818C49.8664 20.719 49.8906 19.702 49.8906 18.9924C49.8906 18.3538 49.8664 17.2895 49.818 16.8638H52.0945V16.8401ZM51.2711 17.4551C51.2711 17.7389 51.2469 18.0464 51.2469 18.3302C51.2469 18.543 51.2469 18.7086 51.2711 18.8742C51.3195 18.8742 51.5617 18.8742 51.707 18.8742C52.1914 18.8742 52.8695 18.7323 52.8695 18.141C52.8695 17.5497 52.1914 17.4314 51.6586 17.4314C51.6102 17.4551 51.3438 17.4551 51.2711 17.4551Z" fill="#9E9E9E"/>
<path d="M56.9867 16.8401C57.1562 17.3605 58.682 20.6008 59.0211 21.3103H57.5195C57.4711 21.1447 57.35 20.8846 57.1078 20.3406C56.8898 20.3406 56.6477 20.3406 56.3328 20.3406C56.018 20.3406 55.8 20.3406 55.5578 20.3642C55.4125 20.719 55.2914 21.0265 55.1945 21.334H53.8867C54.1531 20.7663 55.6547 17.5733 55.9211 16.8638H56.9867V16.8401ZM56.8414 19.6547C56.6719 19.229 56.4055 18.685 56.3086 18.3065C56.1875 18.685 55.8969 19.2763 55.7758 19.6547C55.9453 19.6547 56.1875 19.6783 56.3328 19.6783C56.5266 19.6783 56.6477 19.6547 56.8414 19.6547Z" fill="#9E9E9E"/>
<path d="M61.8305 16.8401C62.8234 16.8401 64.0344 17.1949 64.0344 18.2356C64.0344 18.8032 63.5984 19.1816 62.9445 19.4418C63.0898 19.6783 64.2039 21.0974 64.4219 21.3103H62.775C62.4844 20.7663 61.9273 19.8439 61.3945 19.0397C62.0484 19.1343 62.6297 18.8269 62.6297 18.2119C62.6297 17.6206 61.9273 17.4551 61.5883 17.4551C61.443 17.4551 61.1523 17.4551 61.0555 17.4551C61.0312 17.9991 61.0312 18.6613 61.0312 18.9688C61.0312 19.3709 61.0312 20.6481 61.1039 21.3103H59.5781C59.6508 20.6481 59.675 19.8675 59.675 18.9688C59.675 18.2119 59.675 17.2895 59.6023 16.8401H61.8305Z" fill="#9E9E9E"/>
<path d="M66.5289 16.8401C66.5047 17.3368 66.4805 18.543 66.4805 18.9688C66.4805 19.3709 66.4805 20.6954 66.5289 21.3103H65.0031C65.0758 20.6244 65.1 19.3472 65.1 18.9688C65.1 18.543 65.0758 17.3368 65.0516 16.8401H66.5289Z" fill="#9E9E9E"/>
<path d="M70.2586 16.8401C71.1062 16.8401 72.0266 17.1476 72.0266 17.9044C72.0266 18.3302 71.6633 18.685 71.1062 18.8742C71.8328 19.1343 72.2445 19.5364 72.2445 20.0804C72.2445 21.0028 71.082 21.334 69.9922 21.334H67.4977C67.5461 20.7427 67.5703 19.9149 67.5703 18.9924C67.5703 18.3775 67.5703 17.4551 67.4977 16.8638H70.2586V16.8401ZM69.5563 17.4078C69.3383 17.4078 69.1203 17.4314 68.9992 17.4314C68.975 18.0227 68.975 18.3065 68.975 18.9688C68.975 19.7729 68.975 20.0804 68.9992 20.719H69.6531C70.4281 20.719 70.8156 20.4825 70.8156 20.0331C70.8156 19.5128 70.3312 19.2763 69.7016 19.2763H69.3141L69.5805 18.614H69.8711C70.1859 18.614 70.6219 18.4484 70.6219 18.0464C70.6219 17.597 70.2102 17.4078 69.5563 17.4078Z" fill="#9E9E9E"/>
<path d="M75.5383 16.8401C75.7078 17.3605 77.2336 20.6008 77.5727 21.3103H76.0711C76.0227 21.1447 75.9016 20.8846 75.6594 20.3406C75.4414 20.3406 75.1992 20.3406 74.8844 20.3406C74.5695 20.3406 74.3516 20.3406 74.1094 20.3642C73.9641 20.719 73.843 21.0265 73.7461 21.334H72.4383C72.7047 20.7663 74.2062 17.5733 74.4727 16.8638H75.5383V16.8401ZM75.4172 19.6547C75.2477 19.229 74.9812 18.685 74.8844 18.3065C74.7633 18.685 74.4727 19.2763 74.3516 19.6547C74.5211 19.6547 74.7633 19.6783 74.9086 19.6783C75.1023 19.6783 75.1992 19.6547 75.4172 19.6547Z" fill="#9E9E9E"/>
<path d="M79.9461 16.7219C80.5273 16.7219 81.1086 16.8165 81.4719 16.9111V18.0464C80.9633 17.7625 80.4789 17.526 79.825 17.526C79.3164 17.526 79.268 17.7152 79.268 17.8808C79.268 18.6377 81.8836 18.6377 81.8836 20.0095C81.8836 20.8846 81.0359 21.4522 79.6312 21.4522C79.0016 21.4522 78.3961 21.334 77.9844 21.1921V20.1041C78.9531 20.5535 79.4617 20.6954 79.8977 20.6954C80.2609 20.6954 80.5273 20.5298 80.5273 20.246C80.5273 19.3945 77.9117 19.4655 77.9117 18.0227C77.9117 17.1712 78.7352 16.7219 79.9461 16.7219Z" fill="#9E9E9E"/>
<path d="M89.2703 19.1343C89.2461 19.5837 89.2219 20.5061 89.1977 21.0501C88.7133 21.3103 87.9383 21.4286 87.1875 21.4286C85.4922 21.4286 84.4023 20.3879 84.4023 19.087C84.4023 17.7389 85.5406 16.6982 87.4055 16.6982C87.8414 16.6982 88.4711 16.7692 88.9313 16.8638L88.5922 17.7389C88.2773 17.5497 87.7445 17.3841 87.3812 17.3841C86.3156 17.3841 85.9281 18.3065 85.9281 19.0634C85.9281 20.3169 86.6062 20.719 87.3812 20.719C87.4781 20.719 87.7687 20.719 87.8656 20.6954C87.8656 20.1514 87.8656 19.4655 87.8172 19.1107H89.2703V19.1343Z" fill="#9E9E9E"/>
<path d="M92.4672 16.8401C93.4602 16.8401 94.6711 17.1949 94.6711 18.2356C94.6711 18.8032 94.2352 19.1816 93.5812 19.4418C93.7266 19.6783 94.8406 21.0974 95.0586 21.3103H93.4117C93.1211 20.7663 92.5641 19.8439 92.0312 19.0397C92.6852 19.1343 93.2664 18.8269 93.2664 18.2119C93.2664 17.6206 92.5641 17.4551 92.225 17.4551C92.0797 17.4551 91.7891 17.4551 91.6922 17.4551C91.668 17.9991 91.668 18.6613 91.668 18.9688C91.668 19.3709 91.668 20.6481 91.7406 21.3103H90.2148C90.2875 20.6481 90.3117 19.8675 90.3117 18.9688C90.3117 18.2119 90.3117 17.2895 90.2391 16.8401H92.4672Z" fill="#9E9E9E"/>
<path d="M97.7953 21.4522C96.3664 21.4522 95.3008 20.5061 95.3008 19.087C95.3008 17.6679 96.3664 16.7219 97.7953 16.7219C99.2242 16.7219 100.29 17.6679 100.29 19.087C100.29 20.4825 99.2 21.4522 97.7953 21.4522ZM97.7953 17.2895C97.1414 17.2895 96.7055 17.9281 96.7055 19.087C96.7055 20.246 97.1172 20.8609 97.7953 20.8609C98.4492 20.8609 98.8609 20.246 98.8609 19.087C98.8609 17.9281 98.4492 17.2895 97.7953 17.2895Z" fill="#9E9E9E"/>
<path d="M102.421 16.8401C102.397 17.1476 102.397 17.4551 102.397 17.7625V19.8912C102.397 20.4825 102.591 20.8136 103.172 20.8136C103.68 20.8136 104.189 20.6244 104.189 19.702V17.526C104.189 17.0766 104.189 17.0293 104.141 16.8165H105.4C105.352 17.2185 105.352 17.9281 105.352 18.6613V19.9385C105.352 20.9792 104.601 21.4286 103.148 21.4286C101.816 21.4286 100.992 21.1447 100.992 19.8912V18.2592C100.992 17.8335 100.968 17.1712 100.92 16.8401H102.421Z" fill="#9E9E9E"/>
<path d="M108.573 16.8401C109.566 16.8401 110.777 17.1239 110.777 18.1646C110.777 19.087 109.929 19.5364 108.185 19.5364C108.088 19.5364 107.798 19.5364 107.725 19.5364C107.749 20.1514 107.749 20.9082 107.798 21.334H106.296C106.345 20.719 106.369 19.702 106.369 18.9924C106.369 18.3538 106.345 17.2895 106.296 16.8638H108.573V16.8401ZM107.749 17.4551C107.749 17.7389 107.725 18.0464 107.725 18.3302C107.725 18.543 107.725 18.7086 107.749 18.8742C107.798 18.8742 108.04 18.8742 108.185 18.8742C108.67 18.8742 109.348 18.7323 109.348 18.141C109.348 17.5497 108.67 17.4314 108.137 17.4314C108.064 17.4551 107.798 17.4551 107.749 17.4551Z" fill="#9E9E9E"/>
<path d="M34.4148 3.73699C34.3664 4.32829 34.3422 4.89593 34.3422 5.46358V10.0284C34.3422 10.8562 34.7781 11.5184 36.1102 11.5184C37.2727 11.5184 38.0477 11.1637 38.0477 9.29517V5.03784C38.0477 4.11542 38.0234 4.04447 37.975 3.73699H39.9125C39.8156 4.37559 39.8156 5.84201 39.8156 7.30842V9.81552C39.8156 11.7786 38.6289 12.5828 35.9164 12.5828C33.4461 12.5828 32.0898 11.9442 32.0898 9.36613V6.4333C32.0898 5.58184 32.0656 4.25733 31.993 3.73699H34.4148Z" fill="#9E9E9E"/>
<path d="M49.9875 3.73699C49.5273 4.21003 47.0812 6.88269 46.4273 7.52129C46.9359 8.18354 49.8906 11.8969 50.4234 12.4172H47.6141C47.0328 11.4711 45.3375 9.29518 44.5141 8.27815C44.5141 9.31883 44.5383 11.3765 44.6352 12.4172H42.1648C42.2859 11.211 42.3102 8.63292 42.3102 7.87606C42.3102 7.0246 42.2617 4.73037 42.1891 3.73699H44.6352C44.5625 4.65941 44.5141 6.62252 44.5141 7.61589C46.1125 6.05487 46.8633 4.94324 47.7836 3.73699H49.9875Z" fill="#9E9E9E"/>
<path d="M55.9937 3.73699C57.8586 3.73699 60.0867 4.25733 60.0867 6.24409C60.0867 7.37938 59.4086 8.13623 58.0766 8.53832C58.2703 8.91675 60.4016 12.1097 60.7648 12.4172H58.1008C57.5195 11.3292 56.1875 9.15326 55.2188 7.73415C55.3883 7.78146 55.6305 7.80511 55.8969 7.80511C56.6719 7.80511 57.7617 7.26112 57.7617 6.24409C57.7617 4.99054 56.2117 4.77767 55.4367 4.77767C55.0492 4.77767 54.6617 4.80132 54.468 4.82498C54.4195 5.91296 54.3953 7.26112 54.3953 7.87606C54.3953 8.63292 54.3953 11.211 54.5406 12.4172H52.0703C52.1914 11.211 52.2156 9.6736 52.2156 7.87606C52.2156 6.36235 52.1914 4.54115 52.0945 3.73699H55.9937Z" fill="#9E9E9E"/>
<path d="M65.6086 3.57143C66.6984 3.57143 67.7156 3.73699 68.3453 3.90255V5.81835C67.5703 5.39262 66.7227 4.99054 65.318 4.99054C64.0586 4.99054 63.9617 5.43992 63.9617 5.77105C63.9617 7.35572 69.1203 7.14286 69.1203 9.88647C69.1203 11.5894 67.5703 12.5828 64.9547 12.5828C63.7437 12.5828 62.7023 12.3699 62 12.1334V10.2412C63.5984 10.9745 64.5914 11.211 65.4875 11.211C66.4805 11.211 67.0133 10.9272 67.0133 10.2886C67.0133 8.58562 61.8547 8.84579 61.8547 5.93661C61.8547 4.42289 63.3563 3.57143 65.6086 3.57143Z" fill="#9E9E9E"/>
<path d="M73.6008 3.73699C73.5281 4.75402 73.4797 7.0246 73.4797 7.87606C73.4797 8.63292 73.5039 11.211 73.6008 12.4172H71.1305C71.2516 11.211 71.2758 8.63292 71.2758 7.87606C71.2758 7.0246 71.2273 4.73037 71.1547 3.73699H73.6008Z" fill="#9E9E9E"/>
<path d="M80.5031 3.73699C82.1016 3.73699 83.7727 4.30464 83.7727 5.7474C83.7727 6.62252 83.0219 7.37938 81.8836 7.6632C83.4094 8.11258 84.2328 8.9404 84.2328 10.0284C84.2328 11.7786 82.1016 12.4172 80.0672 12.4172H75.95C76.0711 11.2819 76.0953 9.64995 76.0953 7.87606C76.0953 6.69347 76.0711 4.89593 75.9742 3.73699H80.5031ZM79.1227 4.70672C78.832 4.70672 78.493 4.73037 78.3234 4.75402C78.275 5.91296 78.2508 6.52791 78.2508 7.87606C78.2508 9.46074 78.2508 10.0993 78.3234 11.3765C78.6141 11.4002 79.0742 11.4002 79.3648 11.4002C81.0844 11.4002 81.932 10.9272 81.932 9.95743C81.932 8.82214 80.5273 8.39641 79.4617 8.39641H78.9773L79.4617 7.16651H79.7766C80.5031 7.16651 81.5203 6.83538 81.5203 5.98392C81.4961 5.06149 80.8664 4.70672 79.1227 4.70672Z" fill="#9E9E9E"/>
<path d="M90.3844 3.73699C91.9828 3.73699 93.6539 4.30464 93.6539 5.7474C93.6539 6.62252 92.9031 7.37938 91.7648 7.6632C93.2906 8.11258 94.0898 8.9404 94.0898 10.0284C94.0898 11.7786 91.9586 12.4172 89.9242 12.4172H85.807C85.9281 11.2819 85.9523 9.64995 85.9523 7.87606C85.9523 6.69347 85.9281 4.89593 85.8312 3.73699H90.3844ZM89.0039 4.70672C88.7133 4.70672 88.3742 4.73037 88.2047 4.75402C88.1563 5.91296 88.132 6.52791 88.132 7.87606C88.132 9.46074 88.132 10.0993 88.2047 11.3765C88.4953 11.4002 88.9555 11.4002 89.2219 11.4002C90.9414 11.4002 91.7891 10.9272 91.7891 9.95743C91.7891 8.82214 90.3844 8.39641 89.3187 8.39641H88.8344L89.3187 7.16651H89.6336C90.3602 7.16651 91.3773 6.83538 91.3773 5.98392C91.4016 5.06149 90.7477 4.70672 89.0039 4.70672Z" fill="#9E9E9E"/>
<path d="M100.387 3.73699C100.726 4.63576 103.656 10.9745 104.334 12.4172H101.888C101.743 12.0151 101.452 11.3056 101.065 10.3595C100.556 10.3359 100.048 10.3359 99.3211 10.3359C98.643 10.3359 98.1344 10.3595 97.5531 10.3595C97.2625 11.0927 97.0445 11.755 96.8508 12.4172H94.6953C95.2039 11.3292 98.1828 5.01419 98.6672 3.73699H100.387ZM100.605 9.22422C100.023 7.85241 99.5148 6.69347 99.3453 6.29139C98.9336 7.14286 98.4977 8.13624 98.0133 9.22422C98.4008 9.24787 98.9094 9.24787 99.3453 9.24787C99.7328 9.24787 100.169 9.24787 100.605 9.22422Z" fill="#9E9E9E"/>
<path d="M113.489 3.73699C113.392 4.73037 113.344 7.0246 113.344 7.87606C113.344 8.63292 113.344 11.2346 113.489 12.4172H111.818L108.016 6.95364C107.677 6.48061 107.604 6.22044 107.531 6.00757C107.531 7.33207 107.507 7.99432 107.507 9.17692C107.507 10.2412 107.531 11.7786 107.628 12.4409H105.594C105.715 11.2346 105.739 8.65658 105.739 7.89972C105.739 7.04825 105.691 4.75402 105.618 3.76064H107.943L110.777 7.85241C111.382 8.72753 111.503 8.91675 111.624 9.22422H111.648C111.576 8.13623 111.552 7.0246 111.503 5.96026L111.406 3.7843H113.489V3.73699Z" fill="#9E9E9E"/>
<path d="M123.564 3.73699C123.104 4.21003 120.658 6.88269 120.004 7.52129C120.512 8.18354 123.467 11.8969 124 12.4172H121.191C120.609 11.4711 118.914 9.29518 118.091 8.27815C118.091 9.31883 118.115 11.3765 118.212 12.4172H115.766C115.887 11.211 115.911 8.63292 115.911 7.87606C115.911 7.0246 115.862 4.73037 115.79 3.73699H118.236C118.163 4.65941 118.115 6.62252 118.115 7.61589C119.713 6.05487 120.464 4.94324 121.384 3.73699H123.564Z" fill="#9E9E9E"/>
</svg>
