<svg width="120" height="19" viewBox="0 0 120 19" fill="none" xmlns="http://www.w3.org/2000/svg">
<path d="M119.046 8.92573H117.875C117.274 8.92573 116.74 8.98214 116.271 9.09495C115.803 9.20777 115.407 9.38837 115.082 9.63794C114.759 9.8868 114.512 10.2155 114.343 10.6246C114.176 11.0339 114.092 11.5357 114.092 12.1282V18.2122H116.434V12.5019C116.434 12.2171 116.449 11.971 116.478 11.7639C116.508 11.556 116.583 11.384 116.704 11.2472C116.823 11.1114 116.992 11.0074 117.208 10.936C117.425 10.8654 117.724 10.8291 118.109 10.8291C118.301 10.8291 118.541 10.8317 118.83 10.8393C119.118 10.8443 119.381 10.8543 119.622 10.8666L120 8.94516C119.688 8.9326 119.37 8.92763 119.046 8.92763M110.566 12.6821H106.692C106.692 12.2308 106.717 11.8604 106.764 11.5703C106.812 11.2792 106.909 11.0484 107.052 10.8763C107.196 10.7045 107.395 10.5853 107.647 10.5201C107.899 10.4549 108.23 10.4222 108.637 10.4222C109.01 10.4222 109.322 10.4549 109.575 10.5201C109.827 10.5853 110.025 10.6893 110.168 10.8313C110.313 10.9744 110.415 11.1638 110.475 11.401C110.535 11.6381 110.566 11.9281 110.566 12.273L110.566 12.6821ZM111.926 9.6569C111.608 9.34903 111.186 9.10918 110.665 8.93734C110.142 8.76528 109.484 8.679 108.691 8.679C107.839 8.679 107.133 8.77309 106.575 8.96294C106.016 9.15326 105.572 9.43458 105.242 9.80929C104.912 10.1823 104.681 10.6417 104.549 11.1868C104.415 11.7326 104.35 12.3612 104.35 13.0729V14.0693C104.35 14.7341 104.413 15.324 104.539 15.8397C104.665 16.3557 104.888 16.7911 105.206 17.1466C105.524 17.5028 105.959 17.7761 106.512 17.9657C107.065 18.1553 107.767 18.2506 108.62 18.2506H110.142C110.388 18.2506 110.642 18.248 110.908 18.2404C111.171 18.2354 111.472 18.2255 111.808 18.2131L112.168 16.4346C111.376 16.4571 110.709 16.4699 110.168 16.4699H108.727C108.295 16.4699 107.947 16.441 107.682 16.3818C107.418 16.3218 107.211 16.2149 107.061 16.0609C106.911 15.9066 106.812 15.693 106.764 15.4207C106.716 15.1481 106.691 14.7981 106.691 14.3705H111.376C111.64 14.3705 111.862 14.3454 112.042 14.2999C112.222 14.2525 112.369 14.157 112.483 14.0143C112.598 13.8723 112.679 13.674 112.727 13.4189C112.775 13.1641 112.799 12.8345 112.799 12.4316V12.1291C112.799 11.6309 112.734 11.1714 112.602 10.7509C112.468 10.3302 112.243 9.96525 111.925 9.65571M104.274 8.96175H101.446L97.8974 12.4666V5.85624H95.5553V18.2124H97.8974V13.943L101.77 18.2124H104.689L99.9679 13.0893L104.274 8.96175ZM91.6087 16.3818C91.1882 16.3818 90.8364 16.3545 90.5542 16.3005C90.2722 16.2476 90.0497 16.14 89.8872 15.9805C89.7254 15.8208 89.6112 15.5864 89.5452 15.2778C89.4792 14.9699 89.4461 14.5661 89.4461 14.0679V13.1068C89.4461 12.6095 89.4763 12.2057 89.5361 11.8978C89.5958 11.5892 89.7075 11.3548 89.8702 11.1951C90.0319 11.0346 90.2506 10.928 90.5273 10.8751C90.803 10.8213 91.163 10.7948 91.6085 10.7948C91.8238 10.7948 92.1211 10.7974 92.4996 10.8047C92.8783 10.8099 93.3192 10.8249 93.8239 10.8488L94.2024 8.98119C93.097 8.94611 92.214 8.92763 91.554 8.92763C90.7255 8.92763 90.0255 9.00157 89.455 9.15065C88.8842 9.29902 88.4218 9.53863 88.0682 9.87021C87.7138 10.2027 87.4584 10.6357 87.3031 11.17C87.1459 11.7035 87.0682 12.3507 87.0682 13.108V14.0693C87.0682 14.8398 87.1431 15.4906 87.2931 16.018C87.4433 16.5453 87.695 16.9755 88.0495 17.3071C88.404 17.6393 88.8665 17.8801 89.437 18.0273C90.0074 18.1757 90.7128 18.2506 91.554 18.2506C91.8425 18.2506 92.2023 18.2482 92.6352 18.2406C93.0675 18.2356 93.4754 18.2257 93.8595 18.2134L94.2382 16.3457C93.8532 16.3583 93.421 16.3659 92.9407 16.3723C92.4602 16.3773 92.0158 16.3818 91.6087 16.3818ZM83.5697 16.542H81.2813C80.6803 16.542 80.2697 16.4503 80.0474 16.2661C79.8252 16.0827 79.7143 15.8004 79.7143 15.4214V15.0827C79.7143 14.6445 79.8341 14.3421 80.075 14.1755C80.3141 14.0096 80.7768 13.9266 81.4618 13.9266H81.7313C82.1278 13.9266 82.4465 13.9467 82.6867 13.9892C82.926 14.0297 83.1127 14.0984 83.2457 14.1937C83.3777 14.2878 83.4636 14.4096 83.5063 14.5578C83.5483 14.7059 83.5699 14.8867 83.5699 15.101L83.5697 16.542ZM84.8117 9.69245C84.1279 9.18288 83.0527 8.92715 81.5875 8.92715C80.9866 8.92715 80.4348 8.92952 79.9303 8.93711C79.4258 8.94208 79.0054 8.95204 78.6686 8.9627L78.2909 10.831C78.5189 10.831 78.7714 10.8287 79.0481 10.8211C79.3241 10.8161 79.6027 10.8085 79.8857 10.8035C80.1679 10.7986 80.4466 10.7936 80.7233 10.7936H81.4795C81.8875 10.7936 82.2279 10.8185 82.4974 10.8652C82.7681 10.9119 82.9805 10.9984 83.1367 11.1226C83.2923 11.2467 83.4036 11.4162 83.4698 11.6295C83.5366 11.8431 83.5697 12.1102 83.5697 12.4301V12.7503C83.3652 12.6205 83.0554 12.5043 82.6421 12.4038C82.2279 12.3024 81.708 12.2521 81.0831 12.2521C79.8339 12.2521 78.9151 12.4752 78.3266 12.9196C77.7382 13.3639 77.4444 14.079 77.4444 15.064V15.4546C77.4444 16.3443 77.7115 17.026 78.2462 17.5002C78.7803 17.9757 79.6901 18.2119 80.975 18.2119H83.9117C84.6197 18.2119 85.1179 18.0901 85.4064 17.8477C85.6949 17.6052 85.8396 17.1686 85.8396 16.5401V12.0914C85.8396 11.0007 85.4976 10.2001 84.8117 9.69055M75.306 8.92525C74.705 8.92525 74.1713 8.98166 73.7023 9.09448C73.2336 9.2073 72.8381 9.3879 72.5131 9.63747C72.1898 9.88632 71.9434 10.2151 71.7747 10.6241C71.6069 11.0334 71.5229 11.5352 71.5229 12.1277V18.2117H73.8648V12.5015C73.8648 12.2166 73.8802 11.9706 73.9094 11.7634C73.939 11.5556 74.0138 11.3835 74.1355 11.2467C74.2541 11.1109 74.423 11.0069 74.639 10.9356C74.856 10.8649 75.155 10.8287 75.54 10.8287C75.7318 10.8287 75.972 10.8313 76.2605 10.8389C76.549 10.8438 76.8122 10.8538 77.0534 10.8661L77.4312 8.94469C77.1185 8.93213 76.8017 8.92715 76.4765 8.92715L75.306 8.92525ZM67.7441 16.3804C67.3236 16.3804 66.9718 16.3531 66.6895 16.2993C66.4075 16.2462 66.185 16.1388 66.0226 15.9791C65.861 15.8194 65.7468 15.5849 65.6806 15.2764C65.6155 14.9687 65.5815 14.5649 65.5815 14.0667V13.1054C65.5815 12.6081 65.6119 12.2043 65.6714 11.8966C65.7312 11.588 65.8428 11.3534 66.0055 11.1939C66.1673 11.0334 66.3859 10.9266 66.6626 10.8737C66.9386 10.8199 67.2994 10.7936 67.7438 10.7936C67.9591 10.7936 68.2574 10.796 68.635 10.8035C69.0137 10.8085 69.4548 10.8235 69.9593 10.8474L70.3378 8.98C69.2323 8.94469 68.3503 8.9262 67.6894 8.9262C66.8609 8.9262 66.1608 9.00015 65.5913 9.14946C65.0198 9.29759 64.5581 9.53745 64.2036 9.86902C63.8491 10.2013 63.5938 10.6343 63.4385 11.1685C63.2813 11.702 63.2035 12.3493 63.2035 13.1068V14.0679C63.2035 14.8386 63.2784 15.4892 63.4286 16.0165C63.5786 16.5439 63.8304 16.9741 64.1849 17.3056C64.5394 17.6382 65.0018 17.879 65.5723 18.0261C66.143 18.1743 66.8484 18.2494 67.6894 18.2494C67.9778 18.2494 68.3376 18.2468 68.7708 18.2392C69.2028 18.2342 69.611 18.2243 69.9958 18.2122L70.3735 16.3446C69.9895 16.3569 69.5566 16.3645 69.077 16.3709C68.5956 16.3761 68.1514 16.3804 67.7441 16.3804ZM62.0954 10.8656L62.4742 8.96104H59.106V6.43477L56.7641 6.80948V14.7258C56.7641 15.4022 56.8183 15.9649 56.9258 16.4161C57.0338 16.8669 57.2292 17.2258 57.5115 17.4929C57.7937 17.7593 58.1774 17.946 58.6642 18.052C59.1509 18.1586 59.7722 18.2124 60.5285 18.2124H61.9884L62.3662 16.3095H60.691C60.367 16.3095 60.0991 16.2896 59.8901 16.2472C59.6794 16.2054 59.5169 16.1227 59.4026 15.9976C59.2882 15.8741 59.2106 15.6987 59.1686 15.4728C59.1266 15.2482 59.1063 14.9571 59.1063 14.6018V10.8656H62.0954ZM53.2738 12.6802H49.4004C49.4004 12.2287 49.4232 11.8585 49.4717 11.5684C49.5199 11.2773 49.6162 11.0462 49.7602 10.8744C49.9049 10.7023 50.1029 10.5834 50.3549 10.5182C50.6074 10.453 50.9378 10.4201 51.3458 10.4201C51.7183 10.4201 52.0298 10.453 52.2826 10.5182C52.5343 10.5834 52.7326 10.6874 52.8773 10.8294C53.021 10.9723 53.1238 11.1619 53.1835 11.3989C53.2433 11.6362 53.2735 11.9263 53.2735 12.2711L53.2738 12.6802ZM54.6336 9.65501C54.3156 9.34713 53.8951 9.10728 53.3729 8.93545C52.8497 8.76338 52.1923 8.67711 51.3996 8.67711C50.5469 8.67711 49.8415 8.7712 49.2833 8.96104C48.7253 9.15136 48.2806 9.43269 47.9503 9.8074C47.6198 10.1804 47.3887 10.6398 47.2565 11.1847C47.1245 11.7305 47.0582 12.3593 47.0582 13.0708V14.0672C47.0582 14.732 47.1216 15.3219 47.2476 15.8378C47.3734 16.3536 47.5958 16.7892 47.9138 17.1445C48.2326 17.5007 48.6674 17.7742 49.2202 17.9638C49.7729 18.1534 50.4746 18.2484 51.3281 18.2484H52.8497C53.0962 18.2484 53.3515 18.2461 53.6158 18.2385C53.88 18.2335 54.18 18.2236 54.5167 18.2112L54.8774 16.4327C54.0845 16.4552 53.4175 16.468 52.8773 16.468H51.4363C51.0031 16.468 50.6558 16.4391 50.3906 16.3799C50.1271 16.3197 49.92 16.213 49.7693 16.0587C49.619 15.9047 49.5202 15.6911 49.4719 15.4186C49.4234 15.1462 49.4004 14.7962 49.4004 14.3684H54.0845C54.349 14.3684 54.5712 14.3435 54.7507 14.298C54.9312 14.2506 55.0774 14.1551 55.1918 14.0124C55.3068 13.8704 55.3874 13.6721 55.4354 13.417C55.4837 13.1622 55.507 12.8326 55.507 12.4294V12.127C55.507 11.6288 55.4419 11.1695 55.3094 10.7488C55.1762 10.3283 54.9514 9.96335 54.6336 9.65382M43.4866 14.3333L37.3435 5.54481H35.2711V18.2112H37.6685V9.49408L43.775 18.2112H45.8654V5.54481H43.4866V14.3333Z" fill="#9E9E9E"/>
<path d="M26.076 1.18765L19.4364 17.4165C19.0445 18.3731 18.1042 19 17.0597 19H21.2722C22.9063 19 24.3768 18.0204 24.9893 16.5242L31.2636 1.18765H26.076ZM12.8522 2.37529C14.9532 2.37529 16.8185 3.61769 17.6052 5.54078L20.5178 12.6603L21.815 9.49028L19.8346 4.65129C18.6792 1.82615 15.9382 0 12.8522 0C9.76632 0 7.02624 1.82615 5.87064 4.65129L0 19H2.59392L8.10024 5.54078C8.88696 3.61769 10.7522 2.37529 12.8522 2.37529ZM12.8532 5.54172C13.639 5.54172 14.3371 6.00745 14.6318 6.72677L18.7882 16.8866L20.0856 13.7166L16.8622 5.83728C16.1978 4.21472 14.6246 3.16714 12.8532 3.16714C11.0808 3.16714 9.50664 4.21472 8.84328 5.83728L3.45816 19H6.05208L11.0736 6.72677C11.3674 6.00745 12.0665 5.54172 12.8532 5.54172ZM13.889 7.02303C13.512 6.10343 12.1932 6.10343 11.8166 7.02303L6.91632 19H9.51024L12.8522 10.8306L15.4255 17.1203C15.6943 17.778 16.3409 18.2082 17.0587 18.2082H17.0597C17.5195 18.2082 17.9479 18.0302 18.2695 17.7303L13.889 7.02303Z" fill="#9E9E9E"/>
</svg>
