<svg width="120" height="43" viewBox="0 0 120 43" fill="none" xmlns="http://www.w3.org/2000/svg">
<path d="M13.5446 0C16.4177 0 17.3205 2.09734 18.0751 4.19435C18.3957 5.08294 25.8582 25.9079 26.0805 26.5327C26.1431 26.7055 26.1021 26.9935 25.8382 27.0959C25.5739 27.1971 21.6962 28.7347 21.4822 28.8171C21.2679 28.8987 21.0265 28.7772 20.9476 28.5601C20.8681 28.3442 19.2607 23.8041 19.0794 23.2966C18.5448 23.2966 8.55676 23.2966 8.02315 23.2966C7.84094 23.8041 6.21691 28.3533 6.14218 28.5601C6.0684 28.7691 5.83499 28.9081 5.60857 28.8171C5.3812 28.7253 1.48602 27.1873 1.25578 27.0959C1.03318 27.0091 0.930469 26.7505 1.01029 26.5327C1.28377 25.7517 8.63276 5.26247 9.00895 4.19435C9.73654 2.13072 10.6724 0 13.5446 0ZM0.418807 37.2595C0.186984 37.2595 0 37.4563 0 37.6977V42.5632C0 42.8062 0.187302 43 0.418807 43H26.6707C26.9006 43 27.086 42.8062 27.086 42.5632V37.6977C27.086 37.4566 26.9006 37.2595 26.6707 37.2595H0.418807ZM13.5227 6.79984L9.78328 18.2393H17.3205L13.5684 6.79984H13.5227ZM69.6154 25.555C69.0656 25.7469 68.7024 25.7935 68.2687 25.7935C67.3751 25.7935 66.8777 25.4328 66.8777 24.4979C66.8777 23.5251 67.5099 23.1971 68.7476 23.1971C69.0458 23.1971 69.3467 23.2422 69.4853 23.2914V23.9875C69.4853 24.7406 69.5241 25.2342 69.6154 25.555ZM72.7919 26.673C72.133 25.6503 71.961 25.0482 71.961 23.759V21.1474C71.961 19.7371 71.8007 19.2306 71.4337 18.7156C70.9268 17.9888 70.0809 17.6738 68.5215 17.6738C67.4209 17.6738 66.3498 17.796 65.3147 18.0636L65.6849 19.9238C66.3874 19.8243 67.1213 19.7371 67.6393 19.7371C69.2948 19.7371 69.486 19.9824 69.486 21.2466V21.7194C69.118 21.6193 68.703 21.547 68.2229 21.547C65.7323 21.547 64.4174 22.7882 64.4174 24.8424C64.4174 26.7703 65.8207 27.8209 67.5341 27.8209C68.1758 27.8209 68.8426 27.7007 69.3712 27.4829C69.6898 27.3393 69.8284 27.257 70.2438 26.9822C70.4899 27.3532 70.9911 27.7298 71.1943 27.7976L72.7919 26.673ZM97.429 25.555C96.8776 25.7469 96.5169 25.7935 96.0816 25.7935C95.1867 25.7935 94.6808 25.4328 94.6808 24.4979C94.6808 23.5251 95.3209 23.1971 96.5611 23.1971C96.8604 23.1971 97.159 23.2422 97.2954 23.2914V23.9875C97.2951 24.7406 97.3358 25.2342 97.429 25.555ZM100.606 26.673C99.9434 25.6503 99.7733 25.0482 99.7733 23.759V21.1474C99.7733 19.7371 99.6127 19.2306 99.2448 18.7156C98.7388 17.9888 97.8929 17.6738 96.3325 17.6738C95.2303 17.6738 94.1501 17.796 93.1175 18.0636L93.4861 19.9238C94.1879 19.8243 94.9247 19.7371 95.4539 19.7371C97.104 19.7371 97.2954 19.9824 97.2954 21.2466V21.7194C96.9297 21.6193 96.5173 21.547 96.0336 21.547C93.535 21.547 92.2185 22.7882 92.2185 24.8424C92.2185 26.7703 93.6235 27.8209 95.3464 27.8209C95.9872 27.8209 96.6543 27.7007 97.1816 27.4829C97.5034 27.3393 97.6398 27.257 98.0529 26.9822C98.3019 27.3532 98.804 27.7298 99.0063 27.7976L100.606 26.673ZM120 27.6034C120 27.6034 118.636 24.6369 118.303 23.9645C117.926 23.203 117.579 22.677 116.809 22.4923V22.4466C117.324 22.3471 117.735 22.0282 118.177 21.0586C118.607 20.112 118.732 19.9082 118.981 19.6849C119.228 19.4581 119.563 19.5427 119.563 19.5427L119.691 17.7908C119.332 17.7428 118.935 17.7415 118.526 17.7655C117.85 17.8066 117.498 18.0027 117.165 18.3465C116.907 18.6087 116.729 18.9999 116.511 19.4477C116.276 19.9377 116.092 20.333 115.853 20.8328C115.615 21.3425 115.496 21.5716 114.849 21.5716H114.43V13.8278H111.931V27.6031H114.43V23.643L114.769 23.6356C115.485 23.6356 115.609 23.8161 115.987 24.5844C116.431 25.5022 117.276 27.6034 117.276 27.6034H120ZM49.7496 27.6034H52.6284L48.2766 14.0602C47.82 13.903 47.2501 13.8048 46.6449 13.8048C45.9841 13.8048 45.7495 13.8946 45.2314 14.0602L40.6284 27.6034H43.3883C43.3883 27.6034 43.7597 26.4161 44.2011 24.9412H48.9724C49.4001 26.4148 49.7496 27.6034 49.7496 27.6034ZM44.9023 22.6702C44.9023 22.6702 45.6963 19.9536 45.8191 19.5284C46.1409 18.4347 46.6208 16.6945 46.6208 16.6945H46.7009C46.7009 16.6945 47.1436 18.4982 47.4352 19.5122C47.5458 19.9127 48.3074 22.6702 48.3074 22.6702H44.9023ZM77.0413 21.1238C76.1601 21.1238 75.4456 21.8545 75.4456 22.7525C75.4456 23.6544 76.1598 24.3796 77.0413 24.3796C77.9216 24.3796 78.6351 23.6544 78.6351 22.7525C78.6351 21.8545 77.9212 21.1238 77.0413 21.1238ZM56.0463 13.8278H53.5468V27.6031H56.0463V13.8278ZM105.721 19.8625C107.101 19.8946 107.27 20.1833 107.27 21.3662V27.6034H109.747V21.1471C109.747 19.7368 109.587 19.2303 109.219 18.7153C108.713 17.9885 107.711 17.6735 106.022 17.6735C104.351 17.6735 103.288 17.8546 101.916 18.2704V27.6031H104.418V19.9824C105.078 19.8852 105.19 19.8625 105.721 19.8625ZM62.2279 13.5835C60.6684 13.5835 59.8207 13.8965 59.3147 14.6237C58.9477 15.1383 58.7868 15.6584 58.7868 17.0697V18.2704H57.5447V20.3295H58.7868V27.6031H61.2628L61.2571 20.3295H63.7305V18.2704H61.2571L61.2628 17.1663C61.2628 15.9037 61.4549 15.6588 63.1097 15.6588C63.2875 15.6588 63.4885 15.6685 63.7041 15.6853L64.0949 13.7076C63.4821 13.6233 62.8572 13.5835 62.2279 13.5835ZM82.123 13.7105C82.9736 13.6602 84.8724 13.588 86.0684 13.588C86.2808 13.588 86.5041 13.5899 86.7327 13.6003C89.0815 13.6003 90.4244 15.3425 90.4244 17.3847C90.4244 18.7737 89.8005 19.6956 88.3377 20.2462C90.0615 20.6344 90.9637 22.0055 90.9637 23.6796C90.9637 24.9095 90.6196 25.8849 89.9925 26.5518C89.1848 27.3665 87.9595 27.8209 86.3292 27.8202C84.8721 27.8202 83.0515 27.7758 82.1227 27.7194V13.7105H82.123ZM86.0687 15.9692C85.6499 15.9692 85.143 15.976 84.6336 15.9948C84.6336 16.2197 84.6336 19.0783 84.6336 19.3025C84.839 19.3025 86.071 19.3025 86.071 19.3025C86.6341 19.3025 87.0936 19.1411 87.4065 18.8297C87.701 18.5384 87.854 18.1233 87.854 17.6307C87.854 16.5749 87.2937 15.9741 86.2503 15.9692C86.1638 15.9692 86.1263 15.9692 86.0687 15.9692ZM86.1161 25.4474C86.1546 25.4474 86.1934 25.4474 86.2315 25.4474C87.5239 25.4474 88.3259 24.7416 88.3338 23.3212C88.3192 22.8086 88.129 22.3397 87.7881 21.9997C87.4091 21.6147 86.8771 21.4135 86.2538 21.4135C86.2538 21.4135 84.8432 21.4135 84.6333 21.4135C84.6333 21.6413 84.6333 25.2028 84.6333 25.4312C85.0902 25.4413 85.5927 25.4452 86.1161 25.4474Z" fill="#9E9E9E"/>
</svg>
