<svg width="94" height="86" viewBox="0 0 94 86" fill="none" xmlns="http://www.w3.org/2000/svg">
<path d="M0 74.5541H5.84562C7.10691 74.5541 8.05977 74.8594 8.70418 75.4465C9.34859 76.0591 9.65703 76.9007 9.65703 77.9967C9.65703 79.1437 9.32289 80.0362 8.62707 80.6742C7.93125 81.3122 6.87559 81.643 5.46008 81.643H3.52867V85.8237H0V74.5541ZM3.52867 79.3727H4.37871C5.04883 79.3727 5.53719 79.2455 5.79605 79.0165C6.07879 78.7874 6.2073 78.4802 6.2073 78.124C6.2073 77.7677 6.07879 77.4605 5.84746 77.2315C5.61613 76.977 5.15164 76.8752 4.50906 76.8752H3.5048V79.3745H3.52867V79.3727Z" fill="#9E9E9E"/>
<path d="M11.3314 77.6641H14.2928V78.9892C14.5755 78.4021 14.8601 78.0204 15.1685 77.7913C15.477 77.5623 15.8386 77.4605 16.3013 77.4605C16.7639 77.4605 17.2798 77.6132 17.8214 77.8931L16.8429 80.1107C16.483 79.958 16.1728 79.8817 15.9671 79.8817C15.5559 79.8817 15.2199 80.0598 15.0143 80.3924C14.6802 80.8778 14.5241 81.7684 14.5241 83.0699V85.7982H11.3571V77.6641H11.3314Z" fill="#9E9E9E"/>
<path d="M18.4659 74.5541H21.6329V76.6953H18.4659V74.5541ZM18.4659 77.6641H21.6329V85.8237H18.4659V77.6641Z" fill="#9E9E9E"/>
<path d="M22.7142 77.6641H26.0116L27.607 82.8409L29.2557 77.6641H32.4502L28.9472 85.8237H26.1401L22.7142 77.6641Z" fill="#9E9E9E"/>
<path d="M36.2359 80.3161L33.2231 80.0107C33.3259 79.4745 33.5059 79.0674 33.7133 78.7874C33.9189 78.4821 34.2292 78.2258 34.6405 77.9967C34.9232 77.8441 35.3363 77.7168 35.8246 77.6405C36.3405 77.5641 36.8803 77.5132 37.4733 77.5132C38.4262 77.5132 39.1734 77.5641 39.7646 77.6659C40.3319 77.7677 40.8202 77.9967 41.2076 78.3294C41.4646 78.5584 41.6978 78.891 41.852 79.2982C42.0062 79.7308 42.0834 80.1143 42.0834 80.4961V84.0896C42.0834 84.4713 42.1091 84.7785 42.1605 84.9821C42.2119 85.2111 42.3147 85.4674 42.4946 85.8237H39.5332C39.4047 85.6201 39.3276 85.442 39.3019 85.3384C39.2762 85.2366 39.2248 85.0584 39.1991 84.8276C38.7879 85.2093 38.3748 85.5165 37.9635 85.6692C37.3962 85.8982 36.7536 86 36.0064 86C35.0279 86 34.2806 85.771 33.7666 85.3111C33.2507 84.853 32.9936 84.3168 32.9936 83.6534C32.9936 83.0408 33.1736 82.5319 33.5352 82.1229C33.8951 81.7157 34.5909 81.434 35.5695 81.2304C36.7536 81.0014 37.5266 80.8232 37.8864 80.7451C38.2463 80.6433 38.6079 80.5161 38.9935 80.3634C38.9935 79.9817 38.9164 79.6999 38.7621 79.5472C38.6079 79.3945 38.3252 79.3182 37.9121 79.3182C37.3962 79.3182 37.0107 79.3945 36.7536 79.5727C36.5443 79.729 36.3644 79.9598 36.2359 80.3161ZM38.9898 81.9484C38.5529 82.1011 38.1141 82.2283 37.6257 82.3555C36.9813 82.5337 36.57 82.6864 36.4158 82.8663C36.2359 83.0444 36.1588 83.2226 36.1588 83.4534C36.1588 83.7079 36.2359 83.9115 36.4158 84.066C36.5957 84.2187 36.8528 84.295 37.1888 84.295C37.5486 84.295 37.8589 84.2187 38.1673 84.0405C38.4757 83.8624 38.6832 83.6588 38.8117 83.428C38.9402 83.1735 38.9916 82.8663 38.9916 82.4846V81.9484H38.9898Z" fill="#9E9E9E"/>
<path d="M47.5159 74.5541V77.6641H49.2674V79.958H47.5159V82.8391C47.5159 83.1953 47.5416 83.4262 47.6187 83.528C47.7215 83.7061 47.9014 83.7824 48.1603 83.7824C48.3916 83.7824 48.7276 83.7061 49.1389 83.5788L49.3702 85.7455C48.5973 85.9237 47.85 86 47.1818 86C46.3831 86 45.8177 85.8982 45.4303 85.6946C45.0704 85.4911 44.7859 85.1839 44.6059 84.7767C44.426 84.3695 44.3489 83.7061 44.3489 82.7882V79.9089H43.1904V77.615H44.3489V76.1609L47.5159 74.5541Z" fill="#9E9E9E"/>
<path d="M57.5585 74.5541C58.6655 74.5541 59.4899 74.834 60.0829 75.3702C60.6759 75.9064 60.9586 76.568 60.9586 77.3587C60.9586 78.0222 60.753 78.6075 60.3399 79.0674C60.0572 79.3727 59.6441 79.629 59.1043 79.8326C59.9287 80.0362 60.5217 80.3688 60.9072 80.8269C61.2928 81.3122 61.4745 81.8975 61.4745 82.6118C61.4745 83.199 61.346 83.7334 61.0633 84.1932C60.7805 84.6513 60.4189 85.0348 59.9305 85.2893C59.6478 85.4674 59.1833 85.5692 58.5921 85.6456C57.7935 85.7473 57.2794 85.7982 57.0205 85.7982H50.9436V74.5541H57.5585ZM56.0401 78.991C56.5818 78.991 56.9673 78.8892 57.1729 78.7111C57.3786 78.533 57.5071 78.253 57.5071 77.895C57.5071 77.5641 57.4043 77.3078 57.1729 77.1297C56.9673 76.9516 56.5799 76.8498 56.0401 76.8498H54.4943V78.991H56.0401ZM54.52 83.4007H56.3229C56.9416 83.4007 57.3529 83.2989 57.6099 83.0699C57.8669 82.8663 57.9697 82.5591 57.9697 82.2029C57.9697 81.872 57.8412 81.5903 57.6099 81.4122C57.3529 81.2086 56.9398 81.1068 56.3229 81.1068H54.5457V83.4007H54.52Z" fill="#9E9E9E"/>
<path d="M66.0056 80.3161L62.9928 80.0107C63.0957 79.4745 63.2756 79.0674 63.483 78.7874C63.6887 78.4821 63.9989 78.2258 64.4102 77.9967C64.6929 77.8441 65.106 77.7168 65.5944 77.6405C66.1103 77.5641 66.65 77.5132 67.243 77.5132C68.1959 77.5132 68.9431 77.5641 69.5343 77.6659C70.1016 77.7677 70.59 77.9967 70.9773 78.3294C71.2344 78.5584 71.4675 78.891 71.6217 79.2982C71.776 79.7308 71.8531 80.1143 71.8531 80.4961V84.0896C71.8531 84.4713 71.8788 84.7785 71.9302 84.9821C71.9816 85.2111 72.0844 85.4674 72.2643 85.8237H69.303C69.1745 85.6201 69.0973 85.442 69.0716 85.3384C69.0459 85.2366 68.9945 85.0584 68.9688 84.8276C68.5576 85.2093 68.1445 85.5165 67.7332 85.6692C67.1659 85.8982 66.5234 86 65.7761 86C64.7976 86 64.0504 85.771 63.5363 85.3111C63.0204 84.853 62.7634 84.3168 62.7634 83.6534C62.7634 83.0408 62.9433 82.5319 63.305 82.1229C63.6666 81.7139 64.3606 81.434 65.3392 81.2304C66.5234 81.0014 67.2963 80.8232 67.6561 80.7451C68.016 80.6433 68.3777 80.5161 68.7632 80.3634C68.7632 79.9817 68.6861 79.6999 68.5319 79.5472C68.3777 79.3945 68.0949 79.3182 67.6818 79.3182C67.1659 79.3182 66.7804 79.3945 66.5234 79.5727C66.2902 79.729 66.1341 79.9598 66.0056 80.3161ZM68.7614 81.9484C68.3244 82.1011 67.8856 82.2283 67.3973 82.3555C66.7529 82.5337 66.3416 82.6864 66.1874 82.8663C66.0075 83.0444 65.9303 83.2226 65.9303 83.4534C65.9303 83.7079 66.0075 83.9115 66.1874 84.066C66.3673 84.2187 66.6243 84.295 66.9603 84.295C67.3202 84.295 67.6304 84.2187 67.9389 84.0405C68.2473 83.8624 68.4548 83.6588 68.5833 83.428C68.7118 83.1735 68.7632 82.8663 68.7632 82.4846V81.9484H68.7614Z" fill="#9E9E9E"/>
<path d="M73.7312 77.6641H76.6669V78.9892C77.1039 78.453 77.5427 78.0458 78.0053 77.8168C78.4423 77.5878 79.0096 77.4605 79.654 77.4605C80.5297 77.4605 81.2255 77.715 81.7139 78.2258C82.2023 78.7365 82.4611 79.5254 82.4611 80.6233V85.8255H79.2941V81.3376C79.2941 80.8269 79.1913 80.4706 79.0114 80.2416C78.8315 80.038 78.5488 79.9108 78.2128 79.9108C77.8272 79.9108 77.5169 80.0634 77.2856 80.3434C77.0543 80.6233 76.9258 81.1341 76.9258 81.8993V85.8255H73.7588V77.6659H73.7312V77.6641Z" fill="#9E9E9E"/>
<path d="M84.343 74.5541H87.5871V80.3924L89.9316 77.6641H93.8201L90.8587 80.5197L94 85.8237H90.4456L88.7712 82.5609L87.5871 83.7079V85.8237H84.343V74.5541Z" fill="#9E9E9E"/>
<path d="M38.5786 41.5595H11.6398V68.2303H38.5786V41.5595Z" fill="#9E9E9E"/>
<path d="M11.6655 0V33.1981H18.8C37.5486 33.1981 47.0514 42.6065 47.0514 61.1686V68.2322H80.583V0H11.6655ZM66.3416 14.1252C66.3416 23.1773 66.3416 45.0785 66.3416 54.1306C63.7658 54.1306 63.3288 54.1306 60.8558 54.1306C58.4856 34.3451 45.9186 21.9013 25.9345 19.5564C25.9345 17.0826 25.9345 16.65 25.9345 14.0998C35.0756 14.1252 57.1986 14.1252 66.3416 14.1252Z" fill="#9E9E9E"/>
</svg>
