<svg width="120" height="43" viewBox="0 0 120 43" fill="none" xmlns="http://www.w3.org/2000/svg">
<path d="M22.6466 27.1122C22.6466 29.1185 23.6057 30.0946 25.5773 30.0946H26.4299C28.4015 30.0946 29.3606 29.1185 29.3606 27.1122V23.2623H33.8899V26.9496C33.8899 31.9924 31.3855 34.5952 26.3766 34.5952H25.4174C20.4618 34.5952 17.9041 32.0467 17.9041 27.546V8.24212C17.9041 2.60277 20.4086 0 25.4174 0H26.3766C31.3322 0 33.8899 2.54855 33.8899 7.64565V19.1955H22.6466V27.1122ZM22.6466 14.6406H29.3073V7.48298C29.3073 5.47667 28.3482 4.50063 26.3766 4.50063H25.6306C23.659 4.50063 22.6999 5.47667 22.6999 7.48298V14.6406H22.6466Z" fill="#9E9E9E"/>
<path d="M36.9805 0.433796H41.6697V2.60277C42.7887 1.40984 44.707 0.0542247 47.3713 0.0542247C51.3678 0.0542247 53.3393 2.76545 53.3393 6.72383V27.8714C53.3393 31.884 51.3678 34.541 47.3713 34.541C44.6537 34.541 42.7887 33.2396 41.6697 32.1009V43H36.9805V0.433796ZM41.6697 28.3052C42.9486 29.4439 44.4406 30.0404 45.9859 30.0404C47.691 30.0404 48.7035 29.227 48.7035 27.2749V7.3203C48.7035 5.36822 47.7443 4.55486 45.9859 4.55486C44.4406 4.55486 42.9486 5.20555 41.6697 6.29004V28.3052Z" fill="#9E9E9E"/>
<path d="M56.1635 22.4489C56.1635 18.2736 57.4956 16.5927 61.0658 15.3455L67.3536 13.1765V7.48298C67.3536 5.47667 66.3944 4.39218 64.4228 4.39218H63.6768C61.7052 4.39218 60.7461 5.47667 60.7461 7.48298V12.2547H56.2168V7.64565C56.2168 2.60277 58.7212 0 63.7301 0H64.636C69.5916 0 72.1493 2.54855 72.1493 7.64565V34.1614H67.4601V32.0467C66.1813 33.2938 64.4228 34.541 61.7585 34.541C58.0285 34.541 56.2701 32.372 56.2701 28.5763V22.4489H56.1635ZM67.3536 28.4678V17.3518L63.0907 18.9786C61.3855 19.6835 60.7994 20.5511 60.7994 22.5032V27.6545C60.7994 29.2812 61.5987 30.0946 63.0907 30.0946C64.5294 30.0404 65.8083 29.5523 67.3536 28.4678Z" fill="#9E9E9E"/>
<path d="M90.906 34.1614H86.2168V6.99496C86.2168 5.314 85.4175 4.55486 83.9788 4.55486C82.7 4.55486 81.3145 5.04288 79.6627 6.23581V34.1614H74.9735V0.433796H79.6627V2.60277C80.9948 1.30139 82.8065 0.0542247 85.3643 0.0542247C87.7621 0.0542247 89.3607 1.03027 90.2133 2.81967C91.8652 1.35561 93.8367 0.0542247 96.5543 0.0542247C100.178 0.0542247 102.043 2.33165 102.043 6.01892V34.2156H97.3536V6.99496C97.3536 5.314 96.5543 4.55486 95.1156 4.55486C93.8367 4.55486 92.4513 5.04288 90.7994 6.23581V34.1614H90.906Z" fill="#9E9E9E"/>
<path d="M11.9894 3.52459V9.7604L4.15631 17.3518L11.9894 24.8348V31.1791L0 19.6835V15.1286L11.9894 3.52459Z" fill="#9E9E9E"/>
<path d="M120 15.1287V19.6835L108.011 31.1791V24.8348L115.844 17.3519L108.011 9.70622V3.52463L120 15.1287Z" fill="#9E9E9E"/>
</svg>
