<svg width="124" height="34" viewBox="0 0 124 34" fill="none" xmlns="http://www.w3.org/2000/svg">
<path d="M119.473 0L119.06 0.0616693L118.708 0.185005L118.295 0.349455L117.944 0.472794L117.592 0.69891L117.303 0.92503L117.014 1.21282L116.724 1.50061L116.497 1.78839L116.331 2.13785L116.166 2.4873L116.001 2.89843L115.877 3.24788L115.815 3.65901V4.52237L115.877 4.93349L116.001 5.34462L116.166 5.69408L116.331 6.04353L116.497 6.39299L116.724 6.68077L117.014 6.96856L117.303 7.25635L117.592 7.48247L117.944 7.70859L118.295 7.87303L118.708 7.99637L119.06 8.11971L119.473 8.18138H120.341L120.755 8.11971L121.106 7.99637L121.52 7.87303L121.871 7.70859L122.222 7.48247L122.512 7.25635L122.801 7.03023L123.091 6.74244L123.318 6.45465L123.483 6.1052L123.649 5.75574L123.814 5.40629L123.876 4.99516L124 4.58404V3.59734L123.876 3.18622L123.814 2.83676L123.649 2.44619L123.483 2.09673L123.318 1.74728L123.091 1.45949L122.801 1.1717L122.512 0.945588L122.222 0.719468L121.871 0.493348L121.52 0.328901L121.106 0.205562L120.755 0.0822237L120.341 0.0205575H119.473V0ZM119.308 7.13301L118.667 6.96856L118.15 6.68077L117.696 6.26965L117.282 5.81741L116.993 5.3035L116.827 4.66627L116.765 4.02902L116.827 3.39178L116.993 2.8162L117.282 2.3023L117.696 1.85006L118.171 1.43894L118.688 1.15115L119.329 0.9867L119.969 0.92503L120.61 0.9867L121.189 1.15115L121.706 1.43894L122.16 1.85006L122.574 2.3023L122.863 2.8162L123.029 3.45345L123.091 4.09069L123.029 4.72793L122.863 5.3035L122.574 5.81741L122.16 6.26965L121.685 6.68077L121.168 6.96856L120.589 7.13301L119.949 7.19468L119.308 7.13301ZM67.0332 0V33.8561H72.9448V23.3313H75.2599L83.0318 33.8561H90.2664L79.5593 20.5768L88.9435 8.16082H81.9983L74.7018 17.5345H72.9448V0H67.0332ZM28.1527 33.8561H34.1884V0H28.1527V33.8561ZM118.15 1.89117V6.24909H119.081V4.4607H119.949L120.941 6.24909H121.974L120.879 4.41959L121.168 4.35792L121.396 4.29625L121.623 4.23458L121.788 4.11125L121.912 3.9468L122.036 3.72068L122.098 3.49456V3.20677L122.036 2.8162L121.974 2.52842L121.809 2.3023L121.644 2.13785L121.354 2.01451L121.065 1.95284L120.362 1.89117H118.15ZM119.081 2.59009H120.176L120.589 2.65175L120.879 2.71342L121.003 2.77509L121.127 2.89843L121.189 3.02176V3.1451L121.127 3.49456L121.065 3.6179L121.003 3.74124L120.713 3.8029L120.424 3.86457H119.081V2.59009ZM101.284 8.22249H100.126L99.0305 8.34583L97.997 8.46917L97.0048 8.63362L96.0747 8.85974L95.2685 9.14752L94.5244 9.53809L93.8216 9.94921L93.1809 10.4631L92.6641 11.1004L92.2507 11.7993L91.8993 12.5393L91.6719 13.4643L91.5066 14.451V16.5889L91.6719 17.5756L91.8373 18.3773L92.1887 19.1173L92.5401 19.8162L93.0568 20.3918L93.5736 20.9057L94.2144 21.3579L94.9585 21.7074L95.7026 22.0568L96.6328 22.3446L97.5629 22.5707L98.5964 22.7352L99.6919 22.8996L100.849 23.023L102.131 23.1463L103.867 23.2697L105.314 23.4341L106.472 23.6602L106.947 23.8247L107.361 23.9891L107.712 24.2152L108.001 24.4414L108.229 24.6675L108.394 24.9553L108.518 25.243L108.642 25.5925L108.704 25.942V26.8053L108.642 27.2164L108.58 27.5659L108.456 27.9154L108.291 28.2648L108.063 28.5526L107.836 28.7787L107.609 29.0048L107.257 29.231L106.906 29.3954L106.492 29.5187L106.079 29.6421L105.046 29.7654L103.826 29.8271H100.87L99.94 29.6626L99.5886 29.5393L99.1752 29.416L98.8858 29.2515L98.5964 29.0254L98.3691 28.7993L98.2037 28.5115L98.0383 28.162L97.873 27.7509L97.811 27.3398L97.687 26.8875L97.6249 25.7364H91.4859V27.6892L91.5479 28.2648L91.6099 28.8404L91.7753 29.2926L91.8993 29.8065L92.1267 30.2177L92.3541 30.6288L92.5814 31.0399L92.8708 31.3894L93.1602 31.7388L93.4496 32.0266L93.801 32.2527L94.6071 32.705L95.4132 33.1161L96.3434 33.4039L97.2735 33.63L98.2657 33.7533L99.2579 33.8767L100.291 33.9383L101.325 34H104.508L105.666 33.9383L106.761 33.8767L107.857 33.7122L108.849 33.5478L109.779 33.3216L110.585 32.9722L111.391 32.5611L112.094 32.1088L112.735 31.5333L113.314 30.8343L113.727 30.0943L114.14 29.1693L114.368 28.1826L114.533 27.0314L114.595 25.7775L114.533 24.8525L114.368 23.9891L114.14 23.1874L113.789 22.4885L113.376 21.8513L112.859 21.2757L112.28 20.8235L111.639 20.3712L110.936 20.0218L110.13 19.6723L109.324 19.4462L108.394 19.2201L107.464 19.0556L106.472 18.8912L104.446 18.7267L102.42 18.5623L100.787 18.3978L99.5679 18.1717L99.0925 18.0073L98.7411 17.8839L98.3897 17.7195L98.1624 17.4934L97.935 17.3289L97.811 17.0411L97.687 16.815L97.6249 16.4655L97.5629 15.7666L97.6249 14.9033L97.687 14.4921L97.749 14.1427L97.873 13.8549L97.997 13.5671L98.2244 13.341L98.4517 13.1149L98.7411 12.9504L99.0305 12.8271L99.4439 12.7037L99.9193 12.5804L101.077 12.4571L102.524 12.3954L104.033 12.4571L105.19 12.5804L105.645 12.7037L106.12 12.8271L106.472 12.9915L106.823 13.156L107.113 13.3204L107.34 13.5466L107.505 13.7727L107.629 14.0605L107.753 14.4099L107.815 14.7594L107.877 15.5611H113.665L113.789 14.4716L113.727 13.9577L113.665 13.4438L113.603 12.9299L113.479 12.4776L113.314 12.0665L113.148 11.6554L112.921 11.3059L112.693 10.9565L112.404 10.6687L112.115 10.3809L111.412 9.86699L110.668 9.45586L109.862 9.10641L108.994 8.81862L108.125 8.65417L107.195 8.48972L106.203 8.42805L104.343 8.30472L102.482 8.24305C102.503 8.16082 101.284 8.22249 101.284 8.22249ZM49.1329 8.22249L47.748 8.34583L46.4044 8.57195L45.2469 8.85974L44.2134 9.27086L43.6966 9.49698L43.2419 9.78477L42.7871 10.0726L42.3737 10.3603L42.0223 10.7098L41.6709 11.0592L41.3196 11.4704L40.9682 11.9226L40.7408 12.3749L40.4514 12.8271L39.976 13.8549L39.6246 15.0677L39.3352 16.3833L39.1699 17.8223L39.0458 19.3845L38.9838 21.1112L39.0458 22.838L39.1699 24.4002L39.3352 25.9008L39.6246 27.1548L39.976 28.3676L40.3894 29.3954L40.6788 29.8476L40.9682 30.2999L41.2575 30.711L41.6089 31.1221L41.9603 31.5127L42.3117 31.8005L42.7251 32.1499L43.1799 32.4377L43.6346 32.6638L44.0893 32.89L45.1849 33.2805L46.3424 33.5683L47.6653 33.7944L49.0502 33.9178H51.944L53.1635 33.8561L54.321 33.7944L55.4166 33.6711L56.4707 33.5067L57.4629 33.2189L58.3931 32.9311L59.1992 32.5816L59.9433 32.1294L60.5841 31.6155L61.1629 31.0399L61.6176 30.341L61.969 29.5393L62.2584 28.6143L62.4237 27.6481L62.4857 26.497V25.5719H56.3881V26.5998L56.3261 27.052L56.202 27.5042L56.0367 27.8537L55.8713 28.2031L55.6439 28.4293L55.3546 28.7171L55.0032 28.8815L54.6518 29.0459L54.1764 29.2104L53.7216 29.3337L53.2049 29.4571L52.0473 29.5187L50.6624 29.5804H49.9183L49.2155 29.5187L48.5748 29.3954L47.996 29.2721L47.4792 29.0459L47.0245 28.8198L46.6938 28.5732L46.3424 28.162L46.053 27.7098L45.8256 27.1959L45.5983 26.5586L45.4329 25.8597L45.3089 25.1197L45.2469 24.1947L45.1849 23.208V22.1185H62.5064V20.4534L62.4444 18.8912L62.3204 17.4522L62.155 16.075L61.8656 14.8622L61.5143 13.7727L61.0388 12.7449L60.4601 11.8815L60.1707 11.4293L59.8193 11.0798L59.4679 10.6687L59.0545 10.3809L58.6411 10.0314L58.1864 9.74365L57.2562 9.29142L56.1607 8.88029L55.0032 8.53083L53.6596 8.30472L52.2127 8.18138L50.6418 8.11971L49.1329 8.22249ZM45.1849 17.6578L45.2469 16.9178L45.3709 16.2189L45.4949 15.6433L45.6603 15.0677L45.8256 14.6155L46.115 14.2044L46.4044 13.7932L46.7558 13.5054L47.1692 13.2177L47.6239 12.9915L48.0993 12.8271L48.6781 12.7037L49.3189 12.5804L50.0217 12.5187H51.5306L52.2334 12.5804L52.8741 12.7037L53.4529 12.8271L53.9697 12.9915L54.4244 13.2177L54.8378 13.5054L55.2512 13.7932L55.5406 14.2044L55.83 14.6155L55.9953 15.0677L56.1607 15.6433L56.3261 16.2189L56.3881 16.9178L56.4501 17.6578V18.3978H45.2055L45.1849 17.6578ZM10.1284 8.22249L8.74346 8.34583L7.3999 8.57195L6.24237 8.85974L5.14686 9.27086L4.69212 9.49698L4.23737 9.78477L3.76196 10.0726L3.36923 10.3603L2.95583 10.7098L2.60443 11.0592L2.25304 11.4704L1.96366 11.9226L1.67428 12.3749L1.44691 12.8271L0.992165 13.8549L0.640774 15.0677L0.351392 16.3833L0.186031 17.8223L0.0620102 19.3845L0 21.1112L0.0620102 22.838L0.124021 24.4002L0.351392 25.9008L0.578763 27.1548L0.930155 28.3676L1.40557 29.3954L1.63294 29.8476L1.92232 30.2999L2.27371 30.711L2.56309 31.1221L2.91449 31.5127L3.32789 31.8005L3.74129 32.1499L4.15469 32.4377L4.63011 32.6638L5.14686 32.89L6.18036 33.2805L7.3999 33.5683L8.68145 33.7944L10.1284 33.9178H12.9602L14.1797 33.8561L15.3992 33.7944L16.4947 33.6711L17.5283 33.5067L18.5204 33.2189L19.3886 32.9311L20.1947 32.5816L20.9388 32.1294L21.6416 31.6155L22.1584 31.0399L22.6338 30.341L23.0472 29.5393L23.2745 28.6143L23.4399 27.6481L23.5019 26.497V25.5719H17.4662V26.5998L17.4042 27.052L17.2802 27.5042L17.1149 27.8537L16.9495 28.2031L16.6601 28.4293L16.3707 28.7171L16.0813 28.8815L15.6679 29.0459L15.2545 29.2104L14.7791 29.3337L14.2624 29.4571L13.0428 29.5187L11.6993 29.5804H10.9345L10.1904 29.5187L9.54959 29.3954L9.03284 29.2721L8.51609 29.0459L8.06134 28.8198L7.64794 28.532L7.29655 28.1209L7.00717 27.6687L6.7798 27.1548L6.61444 26.5175L6.44907 25.8186L6.32505 25.0786L6.26304 24.1536L6.18036 23.2285V22.1391H23.4606V18.9117L23.3366 17.4728L23.1092 16.0955L22.8818 14.8827L22.4684 13.7932L21.993 12.7654L21.4762 11.9021L21.1869 11.4498L20.8355 11.1004L20.4841 10.6892L20.0707 10.4015L19.6573 10.052L19.2025 9.76421L18.2724 9.31197L17.1769 8.90084L15.9573 8.55139L14.6758 8.32527L13.2289 8.20193L11.6579 8.14027C11.6786 8.16082 10.1284 8.22249 10.1284 8.22249ZM6.18036 17.6578L6.24237 16.9178L6.30438 16.2189L6.46975 15.6433L6.59377 15.0677L6.82114 14.6155L7.04851 14.2044L7.33789 13.7932L7.68928 13.5054L8.10268 13.2177L8.55743 12.9915L9.07418 12.8271L9.65294 12.7037L10.2937 12.5804L10.9965 12.5187H12.5054L13.2082 12.5804L13.849 12.7037L14.4277 12.8271L14.9445 12.9915L15.3992 13.2177L15.8126 13.5054L16.164 13.7932L16.5154 14.2044L16.7428 14.6155L16.9702 15.0677L17.1355 15.6433L17.2595 16.2189L17.3836 16.9178L17.4456 17.6578V18.3978H6.18036V17.6578Z" fill="#9E9E9E"/>
</svg>
