<svg width="149" height="17" viewBox="0 0 149 17" fill="none" xmlns="http://www.w3.org/2000/svg">
<g clip-path="url(#clip0_397_1534)">
<path d="M32.1416 16.893L27.4513 11.0482H25.706V16.893H20.3612V1.46118H28.3239C34.1413 1.46118 37.85 3.06496 37.85 6.2725C37.85 8.44651 35.7048 9.76516 32.7961 10.478L37.9227 16.893H32.1416ZM28.0694 4.16978H25.706V8.48215H28.3602C31.0872 8.48215 32.5052 7.76936 32.5052 6.34378C32.5052 4.9182 31.269 4.16978 28.0694 4.16978ZM51.2302 11.0838V16.893H45.8854V11.1195L38.2136 1.46118H44.1038L46.3944 4.59745C47.3761 5.95175 48.3578 7.4486 48.6123 8.19703C48.9032 7.48424 49.8849 5.88047 50.8302 4.59745L53.1208 1.46118H58.9383L51.2302 11.0838ZM71.4459 16.893L70.0279 13.6855H63.3014L61.8834 16.893H56.4295L64.065 1.46118H69.2643L76.8998 16.893H71.4459ZM68.0645 9.26621C67.5555 8.09011 66.8646 6.2725 66.6465 5.52407C66.4283 6.30814 65.8466 7.98319 65.2648 9.23057L64.4649 11.1195H68.8644L68.0645 9.26621ZM91.4798 16.893L85.9532 10.0146C85.1897 9.05238 84.2443 7.805 83.6989 6.87837C83.7353 8.05447 83.7717 9.23057 83.7717 10.371V16.8574H78.8995V1.46118H84.2807L89.5528 8.23267C90.28 9.15929 91.3344 10.5849 91.9161 11.4402C91.8798 10.478 91.7343 8.8029 91.7343 7.84064V1.46118H96.6065V16.893H91.4798ZM113.877 16.893L112.459 13.6855H105.733L104.315 16.893H98.8607L106.496 1.46118H111.696L119.331 16.893H113.877ZM110.496 9.26621C109.987 8.09011 109.296 6.2725 109.078 5.52407C108.86 6.30814 108.278 7.98319 107.696 9.23057L106.896 11.1195H111.296L110.496 9.26621ZM121.476 1.46118H126.821V16.893H121.476V1.46118ZM143.183 16.893L138.529 11.0482H136.783V16.893H131.439V1.46118H139.401C145.219 1.46118 148.927 3.06496 148.927 6.2725C148.927 8.44651 146.782 9.76516 143.873 10.478L149 16.893H143.183ZM139.11 4.16978H136.747V8.48215H139.401C142.128 8.48215 143.546 7.76936 143.546 6.34378C143.583 4.9182 142.346 4.16978 139.11 4.16978Z" fill="#9E9E9E"/>
<path d="M11.6351 0.926671C12.7259 1.28307 13.9257 1.56818 15.1256 1.71074H15.9619L15.9982 1.6751C16.5072 1.6751 16.8708 1.46126 17.3435 1.35434C17.3799 1.35434 17.5253 1.3187 17.5617 1.38998C17.598 1.4969 17.5617 1.56818 17.4526 1.63946C16.8708 2.06713 16.1437 2.42353 15.4892 2.63736C15.271 2.673 15.0529 2.77992 14.7984 2.8512C13.9621 3.10068 13.0531 3.24323 12.1441 3.17195C10.4353 3.10068 9.01725 2.49481 7.52652 2.56608C6.07215 2.49481 4.65414 3.0294 3.8906 4.13422C3.49065 4.70445 3.16341 5.31032 3.05434 5.95183C3.0907 6.5577 3.96332 6.77153 4.25419 7.27049C4.43599 7.5556 4.54506 7.912 4.65414 8.19711C5.01773 8.80298 5.34497 9.44449 5.78128 10.0147C6.03579 10.4068 6.43574 10.7631 6.90841 10.977C7.52652 11.4047 8.07191 11.9749 8.39914 12.5451C8.76273 13.1154 8.98089 13.7212 9.27176 14.3271C9.4172 14.6835 9.52627 15.0042 9.63535 15.3606C9.67171 15.3963 9.67171 15.4319 9.70807 15.5032C9.81715 15.7883 9.88987 16.0734 10.0353 16.3585C9.99894 16.3942 10.0717 16.4298 10.0717 16.4655C10.0717 16.608 10.2535 16.8575 10.0353 16.9644C9.74443 16.7149 9.56263 16.3229 9.4172 16.0378C9.05361 15.4319 8.65365 14.826 8.18098 14.2202C7.89011 13.8638 7.59924 13.5074 7.272 13.151C5.96307 11.7254 3.99968 10.8344 2.58167 9.48013C2.47259 9.37321 2.39987 9.23065 2.29079 9.12374C2.109 8.9099 1.99992 8.62478 1.81812 8.37531C1.38181 7.7338 0.945503 7.05665 0.654629 6.3795C0.581911 6.09439 0.472833 5.80927 0.472833 5.48852V5.34596C0.509192 5.0252 -0.29071 4.84701 0.1456 4.24114C0.400115 3.95602 1.45453 3.59963 1.81812 3.06504C1.81812 2.99376 1.85448 2.88684 1.78176 2.81556C1.78176 2.74428 1.70905 2.70864 1.67269 2.63736C1.45453 2.38789 0.909144 2.60172 0.945503 2.20969C1.01822 2.20969 0.945503 2.17405 0.981862 2.13841C0.945503 1.96021 0.945503 1.8533 0.981862 1.6751C1.09094 1.38998 1.20002 1.06923 1.20002 0.748474C1.20002 0.641556 1.30909 0.570277 1.45453 0.534638C1.67269 0.463359 1.89084 0.463359 2.109 0.42772L2.14536 0.463359C2.65439 0.42772 3.27249 0.463359 3.59972 0.855393C3.74516 1.14051 3.59972 1.4969 3.52701 1.78202C3.49065 1.96021 3.30885 2.10277 3.34521 2.28097C3.41793 2.35225 3.56337 2.35225 3.63608 2.31661C4.39963 1.8533 5.09045 1.21179 5.63584 0.570277C6.14487 0.106965 6.90841 -0.0712323 7.6356 0.035686C9.08996 0.142604 10.2898 0.605917 11.6351 0.926671Z" fill="#9E9E9E"/>
<path d="M7.96258 3.45701C8.18073 3.70649 7.88986 3.95597 7.81714 4.1698C6.98088 5.41718 6.69 6.80712 6.14462 8.12578C6.10826 8.16142 6.03554 8.19706 5.96282 8.16142C5.81738 8.0545 5.81738 7.8763 5.81738 7.73374C5.92646 6.30817 6.32641 4.95387 6.94452 3.67085C7.08996 3.45701 7.34447 3.24318 7.6717 3.27882C7.74442 3.31446 7.8535 3.3501 7.96258 3.45701ZM10.1441 3.81341C10.2532 4.27672 9.88961 4.66875 9.74418 5.09643C8.94427 6.7002 7.96258 8.2327 7.45355 9.94339C7.41719 10.0147 7.38083 10.0859 7.34447 10.0859C7.27175 10.1216 7.23539 10.0859 7.19903 10.0147C7.0536 9.33752 7.23539 8.62473 7.41719 7.98322C7.88986 6.55764 8.43525 5.09643 9.23515 3.77777C9.30787 3.70649 9.34423 3.63521 9.4533 3.63521C9.74418 3.59957 9.99869 3.63521 10.1441 3.81341ZM12.5075 3.88469C12.7256 4.06288 12.6166 4.348 12.5438 4.5262C11.5985 6.59328 10.0351 8.37525 9.41694 10.5493C9.23515 11.0126 9.12607 11.4759 8.98063 11.9392C8.94427 12.0105 8.8352 12.0105 8.72612 12.0105C8.6534 11.7966 8.6534 11.5472 8.6534 11.3333C8.87156 9.58699 9.27151 7.8763 10.1441 6.37945C10.5441 5.63102 10.944 4.91823 11.344 4.20544C11.4531 3.99161 11.6712 3.81341 11.9257 3.74213C12.1439 3.77777 12.362 3.81341 12.5075 3.88469ZM15.1253 3.99161C15.2708 4.24108 15.1253 4.5262 15.0526 4.77567C14.4345 6.45072 13.3074 7.80502 12.3984 9.33752C11.6349 10.5849 11.0895 11.9748 10.5804 13.3291C10.3986 13.7212 10.3259 14.1845 10.1078 14.5765C10.1078 14.6122 10.0351 14.5765 9.99869 14.6122C9.85325 14.5052 9.88961 14.327 9.85325 14.2201C9.96233 12.5094 10.6168 11.0126 11.2349 9.48007C12.0348 7.76938 13.0529 6.16561 13.78 4.38364C13.8891 4.1698 14.0709 3.88469 14.3618 3.81341C14.7254 3.70649 14.9435 3.81341 15.1253 3.99161Z" fill="#9E9E9E"/>
</g>
<defs>
<clipPath id="clip0_397_1534">
<rect width="149" height="17" fill="white"/>
</clipPath>
</defs>
</svg>
