<svg width="136" height="41" viewBox="0 0 136 41" fill="none" xmlns="http://www.w3.org/2000/svg">
<g clip-path="url(#clip0_397_1539)">
<path d="M20.3949 0C9.13135 0 0 9.17809 0 20.4996C0 31.8224 9.13135 41 20.3949 41C31.659 41 40.7898 31.8224 40.7898 20.4996C40.7898 9.17882 31.6594 0.000978431 20.3947 0.000978431L20.3949 0ZM29.7479 29.5663C29.3816 30.1703 28.5988 30.3595 28 29.9915C23.2107 27.0494 17.1826 26.3847 10.0833 28.0148C9.39923 28.1725 8.71732 27.7414 8.56146 27.054C8.40486 26.3664 8.83178 25.6809 9.51759 25.5243C17.2866 23.739 23.9506 24.5074 29.3263 27.8092C29.9254 28.1789 30.1154 28.9646 29.7476 29.5668L29.7479 29.5663ZM32.2442 23.9853C31.7829 24.7375 30.8044 24.9735 30.0569 24.5116C24.576 21.1251 16.2184 20.1442 9.73411 22.1226C8.89315 22.3779 8.00496 21.9016 7.74973 21.0578C7.49645 20.2125 7.97063 19.3214 8.81011 19.0644C16.2169 16.8054 25.4248 17.8997 31.7203 21.7882C32.468 22.2509 32.7042 23.235 32.2439 23.9855L32.2442 23.9853ZM32.4585 18.1728C25.8843 14.2485 15.0404 13.8877 8.76455 15.8022C7.75679 16.1095 6.69105 15.5376 6.38564 14.5247C6.08024 13.5112 6.64867 12.4407 7.65717 12.1328C14.8614 9.93451 26.8376 10.3592 34.4053 14.875C35.3118 15.4157 35.6092 16.5924 35.0719 17.5023C34.5361 18.4135 33.3623 18.7138 32.4587 18.1728H32.4585ZM55.4878 18.9249C51.9664 18.0808 51.3395 17.4884 51.3395 16.2436C51.3395 15.0676 52.4411 14.2762 54.0791 14.2762C55.667 14.2762 57.2415 14.8772 58.8922 16.1144C58.9422 16.1518 59.0048 16.1667 59.0664 16.157C59.128 16.1477 59.1826 16.1136 59.2186 16.0625L60.938 13.6263C61.0086 13.5259 60.9894 13.3876 60.8942 13.311C58.9295 11.7264 56.7172 10.956 54.1313 10.956C50.3291 10.956 47.6733 13.2495 47.6733 16.531C47.6733 20.0499 49.9643 21.2959 53.9233 22.2577C57.2929 23.0379 57.8616 23.6915 57.8616 24.8599C57.8616 26.1546 56.7116 26.9595 54.8609 26.9595C52.8055 26.9595 51.1289 26.2636 49.2534 24.631C49.2069 24.5906 49.1431 24.5723 49.0841 24.5757C49.022 24.5809 48.9653 24.6097 48.9258 24.6575L46.9979 26.9637C46.9171 27.0594 46.9273 27.2024 47.0209 27.2851C49.203 29.2432 51.8868 30.2775 54.783 30.2775C58.8801 30.2775 61.5276 28.0273 61.5276 24.5446C61.535 21.6046 59.7839 19.9768 55.4951 18.928L55.4878 18.9249ZM70.7968 15.4341C69.0209 15.4341 67.5643 16.1371 66.3631 17.5777V15.9562C66.3631 15.8282 66.2599 15.7239 66.1328 15.7239H62.9796C62.8522 15.7239 62.7492 15.8282 62.7492 15.9562V33.9736C62.7492 34.1017 62.8522 34.2059 62.9796 34.2059H66.1328C66.2599 34.2059 66.3631 34.1017 66.3631 33.9736V28.2863C67.5645 29.6415 69.0214 30.3037 70.7968 30.3037C74.0966 30.3037 77.437 27.7505 77.437 22.8697C77.4419 17.9878 74.1005 15.4338 70.8005 15.4338L70.7968 15.4341ZM73.7705 22.8697C73.7705 25.3551 72.2473 27.0895 70.0664 27.0895C67.9104 27.0895 66.284 25.2763 66.284 22.8697C66.284 20.4634 67.9104 18.65 70.0664 18.65C72.212 18.6497 73.7707 20.424 73.7707 22.8695L73.7705 22.8697ZM85.9987 15.4341C81.7491 15.4341 78.4199 18.7231 78.4199 22.9228C78.4199 27.0768 81.7262 30.3313 85.9466 30.3313C90.2112 30.3313 93.5507 27.0533 93.5507 22.8697C93.5507 18.7006 90.2336 15.4346 85.9984 15.4346L85.9987 15.4341ZM85.9987 27.1142C83.7384 27.1142 82.0343 25.2888 82.0343 22.8685C82.0343 20.4379 83.6795 18.6742 85.9466 18.6742C88.2215 18.6742 89.937 20.4996 89.937 22.9216C89.937 25.3517 88.2809 27.1142 85.9989 27.1142H85.9987ZM102.625 15.7239H99.1555V12.1582C99.1555 12.0305 99.0528 11.9262 98.9254 11.9262H95.7727C95.6451 11.9262 95.5416 12.0305 95.5416 12.1582V15.7239H94.0256C93.8987 15.7239 93.7959 15.8282 93.7959 15.9562V18.6801C93.7959 18.8078 93.8987 18.9124 94.0256 18.9124H95.5416V25.9603C95.5416 28.8085 96.952 30.2525 99.7335 30.2525C100.864 30.2525 101.803 30.0177 102.687 29.5137C102.759 29.4733 102.804 29.3955 102.804 29.3127V26.7189C102.804 26.6388 102.762 26.5632 102.694 26.5214C102.625 26.478 102.54 26.4758 102.469 26.5108C101.862 26.818 101.275 26.9598 100.618 26.9598C99.6068 26.9598 99.1555 26.4981 99.1555 25.4633V18.9136H102.625C102.753 18.9136 102.855 18.8093 102.855 18.6813V15.9577C102.86 15.8297 102.758 15.7254 102.629 15.7254L102.625 15.7239ZM114.715 15.7379V15.2999C114.715 14.0116 115.206 13.437 116.308 13.437C116.966 13.437 117.494 13.5682 118.085 13.7665C118.158 13.7896 118.234 13.778 118.293 13.7342C118.354 13.6904 118.388 13.6201 118.388 13.5457V10.875C118.388 10.7729 118.323 10.6826 118.225 10.6525C117.6 10.4657 116.801 10.274 115.604 10.274C112.692 10.274 111.153 11.9225 111.153 15.0395V15.7102H109.638C109.511 15.7102 109.406 15.8145 109.406 15.9423V18.68C109.406 18.8078 109.511 18.9124 109.638 18.9124H111.153V29.7835C111.153 29.9115 111.255 30.0158 111.383 30.0158H114.536C114.663 30.0158 114.767 29.9115 114.767 29.7835V18.9131H117.711L122.22 29.7815C121.708 30.9235 121.205 31.1507 120.518 31.1507C119.962 31.1507 119.377 30.9839 118.779 30.6549C118.723 30.6238 118.656 30.6187 118.596 30.6376C118.535 30.6589 118.485 30.7039 118.459 30.7626L117.39 33.1193C117.34 33.2307 117.383 33.3614 117.49 33.4192C118.606 34.0265 119.613 34.2857 120.857 34.2857C123.186 34.2857 124.472 33.1957 125.607 30.263L131.077 16.0551C131.105 15.9836 131.096 15.9029 131.053 15.8395C131.009 15.7765 130.939 15.7386 130.863 15.7386H127.581C127.482 15.7386 127.394 15.8015 127.362 15.8943L123.999 25.5485L120.316 15.8879C120.283 15.7981 120.197 15.7386 120.101 15.7386H114.714L114.715 15.7379ZM107.706 15.7239H104.552C104.425 15.7239 104.321 15.8282 104.321 15.9562V29.7835C104.321 29.9115 104.425 30.0158 104.552 30.0158H107.706C107.833 30.0158 107.937 29.9115 107.937 29.7835V15.9572C107.937 15.9266 107.931 15.8964 107.919 15.8682C107.908 15.8399 107.891 15.8143 107.869 15.7927C107.848 15.7711 107.822 15.754 107.794 15.7424C107.766 15.7307 107.736 15.7248 107.705 15.7249L107.706 15.7239ZM106.147 9.42804C104.898 9.42804 103.884 10.4444 103.884 11.7C103.884 12.9563 104.898 13.9739 106.147 13.9739C107.396 13.9739 108.408 12.9563 108.408 11.7C108.408 10.4447 107.395 9.42804 106.148 9.42804H106.147ZM133.769 20.1696C132.521 20.1696 131.55 19.1623 131.55 17.9391C131.55 16.7158 132.534 15.697 133.781 15.697C135.029 15.697 136 16.7041 136 17.9263C136 19.1496 135.016 20.1696 133.769 20.1696H133.769ZM133.782 15.9188C132.645 15.9188 131.785 16.827 131.785 17.9391C131.785 19.0507 132.639 19.9466 133.77 19.9466C134.906 19.9466 135.767 19.0392 135.767 17.9263C135.767 16.8147 134.913 15.9188 133.783 15.9188H133.782ZM134.274 18.1557L134.901 19.0389H134.372L133.807 18.2287H133.321V19.0389H132.878V16.6977H133.917C134.458 16.6977 134.814 16.976 134.814 17.4446C134.816 17.8284 134.595 18.0629 134.276 18.1557H134.274V18.1557ZM133.898 17.0994H133.321V17.8399H133.898C134.187 17.8399 134.359 17.6982 134.359 17.4693C134.359 17.2284 134.186 17.0994 133.899 17.0994H133.898V17.0994Z" fill="#9E9E9E"/>
</g>
<defs>
<clipPath id="clip0_397_1539">
<rect width="136" height="41" fill="white"/>
</clipPath>
</defs>
</svg>
