<svg width="124" height="29" viewBox="0 0 124 29" fill="none" xmlns="http://www.w3.org/2000/svg">
<path d="M2.81607 0.448275C2.8766 0.185976 3.11204 0 3.38327 0H8.29722C11.4205 0 13.4793 1.58418 12.9645 4.87634C12.5209 7.58749 10.5509 9.27757 7.83595 9.27757H5.62154L4.81497 12.8235C4.75516 13.0867 4.51929 13.2737 4.24718 13.2737H0.582307C0.20834 13.2737 -0.0685695 12.929 0.0149545 12.5677L2.81607 0.448275ZM6.39305 5.92482H6.87236C7.72434 5.92482 8.64878 5.78097 8.84231 4.71028C9.02114 3.72153 8.18241 3.61462 7.38399 3.61462H6.92257L6.39305 5.92482Z" fill="#9E9E9E"/>
<path d="M27.5579 0.451449C27.6186 0.18915 27.8539 0.00331842 28.1253 0.00331842H32.8883C35.9162 -0.077045 38.4709 1.32592 37.9389 4.67017C37.6194 6.67637 36.284 7.44609 34.3851 8.04456C34.9383 8.31105 35.8063 11.166 36.1964 12.5413C36.3008 12.9094 36.0214 13.2737 35.6358 13.2737H32.1023C31.8299 13.2737 31.5942 13.0871 31.5345 12.8237C31.2877 11.7348 30.6648 9.04644 30.5265 9.03965C30.4381 9.03533 30.4381 9.03965 30.4381 9.03965L29.5592 12.826C29.4983 13.088 29.2631 13.2737 28.992 13.2737H25.3242C24.9502 13.2737 24.6733 12.929 24.7568 12.5676L27.5579 0.451449ZM31.1505 5.85744H31.4878C32.4367 5.90115 33.4147 5.67752 33.5982 4.69599C33.7882 3.67955 33.1156 3.54118 32.1003 3.54118H31.69L31.1505 5.85744Z" fill="#9E9E9E"/>
<path d="M14.3146 13.2737H10.7997C10.3641 13.2737 10.0828 12.8164 10.2823 12.4324L16.5754 0.312941C16.6751 0.120761 16.8749 0 17.0928 0H21.1881C21.4784 0 21.7243 0.21209 21.7645 0.497185L23.4738 12.6166C23.5227 12.9638 23.2509 13.2737 22.8975 13.2737H19.3561C19.0466 13.2737 18.7914 13.0336 18.775 12.7271L18.7155 11.6179L15.405 11.6159L14.8511 12.9205C14.7601 13.1344 14.5489 13.2737 14.3146 13.2737ZM18.5464 8.46542C18.5464 8.46542 18.4595 6.37208 18.3534 4.86653L18.269 4.87043L16.7254 8.46542H18.5464Z" fill="#9E9E9E"/>
<path d="M40.7665 0H44.4346C44.8085 0 45.0854 0.344682 45.0019 0.705957L42.2011 12.8254C42.1404 13.0877 41.9051 13.2737 41.6337 13.2737H37.9654C37.5914 13.2737 37.3145 12.929 37.398 12.5677L40.1991 0.448275C40.2597 0.185976 40.4951 0 40.7665 0Z" fill="#9E9E9E"/>
<path d="M47.2333 0.449285L44.4559 12.5687C44.3731 12.9298 44.6501 13.2737 45.0236 13.2737H67.2317C67.5035 13.2737 67.7391 13.0873 67.7993 12.8244L70.5767 0.704947C70.6593 0.343817 70.3826 0 70.009 0H47.801C47.5292 0 47.2936 0.186408 47.2333 0.449285Z" fill="#9E9E9E"/>
<path d="M31.961 15.8872L29.1836 28.0066C29.1008 28.3677 29.3777 28.7115 29.7512 28.7115H51.9593C52.2311 28.7115 52.4667 28.5251 52.527 28.2623L55.3044 16.1428C55.3871 15.7817 55.1102 15.4379 54.7367 15.4379H32.5286C32.2568 15.4379 32.0212 15.6243 31.961 15.8872Z" fill="#9E9E9E"/>
<path d="M75.7373 28.7115H72.2225C71.7868 28.7115 71.5055 28.2543 71.705 27.8702L77.9982 15.7508C78.098 15.5586 78.2976 15.4378 78.5156 15.4378H82.6109C82.9012 15.4378 83.1471 15.6499 83.1873 15.935L84.8966 28.0545C84.9455 28.4016 84.6737 28.7115 84.3202 28.7115H80.7789C80.4694 28.7115 80.2142 28.4714 80.1977 28.165L80.1382 27.0558L76.8278 27.0537L76.2738 28.3583C76.1829 28.5723 75.9715 28.7115 75.7373 28.7115ZM79.9691 23.9033C79.9691 23.9033 79.8822 21.8099 79.7762 20.3044L79.6918 20.3083L78.1482 23.9033H79.9691Z" fill="#9E9E9E"/>
<path d="M58.1027 15.4378H62.3157C62.6254 15.4378 62.8809 15.6784 62.897 15.985L63.2342 22.4039H63.3329C63.5892 21.8252 66.0127 17.0401 66.6645 15.7547C66.7633 15.5598 66.964 15.4378 67.184 15.4378H72.1656C72.5382 15.4378 72.8149 15.7802 72.7337 16.1409L70.0014 28.2604C69.9419 28.5241 69.7058 28.7115 69.4333 28.7115H66.4275C66.0548 28.7115 65.7782 28.3691 65.8594 28.0086L67.3423 21.43L67.2294 21.4381C67.0948 21.8197 64.4322 27.0471 63.7441 28.3958C63.645 28.59 63.4446 28.7115 63.2252 28.7115H61.2258C60.917 28.7115 60.6621 28.4733 60.6448 28.1676C60.5534 26.5566 60.2948 21.8925 60.3381 21.4298L58.7982 28.2604C58.7387 28.5241 58.5027 28.7115 58.2302 28.7115H55.3439C54.9708 28.7115 54.6941 28.3683 54.7761 28.0073L57.5348 15.8879C57.5949 15.6247 57.8307 15.4378 58.1027 15.4378Z" fill="#9E9E9E"/>
<path d="M86.5386 15.4378H96.5406C96.914 15.4378 97.1908 15.7815 97.1083 16.1425L96.4075 19.2081C96.3472 19.4715 96.1111 19.6582 95.8388 19.6577L93.2288 19.6534L91.2268 28.2641C91.1658 28.526 90.9307 28.7115 90.6596 28.7115H86.9927C86.6183 28.7115 86.3412 28.3661 86.4256 28.0044L88.3726 19.6534L85.8402 19.6574C85.4666 19.658 85.1892 19.3143 85.2716 18.9529L85.9709 15.8877C86.0309 15.6245 86.2666 15.4378 86.5386 15.4378Z" fill="#9E9E9E"/>
<path d="M111.879 15.4379H115.521C115.893 15.4379 116.169 15.7784 116.09 16.1383L115.258 19.9105H118.24L119.176 15.8853C119.237 15.6234 119.472 15.4379 119.743 15.4379H123.418C123.792 15.4379 124.069 15.7825 123.985 16.144L121.183 28.2634C121.122 28.5257 120.887 28.7115 120.615 28.7115H116.953C116.579 28.7115 116.302 28.3673 116.385 28.006L117.285 24.0997L114.277 24.0969L113.33 28.2615C113.271 28.5247 113.035 28.7117 112.763 28.7117H109.088C108.714 28.7117 108.437 28.3674 108.52 28.0061L111.311 15.8867C111.371 15.624 111.607 15.4379 111.879 15.4379Z" fill="#9E9E9E"/>
<path d="M105.049 20.0655C104.847 20.0655 104.668 19.9559 104.554 19.7903C104.406 19.5739 104.129 19.4055 103.615 19.4052C102.315 19.4034 101.33 21.7108 101.23 22.5052C101.115 23.4133 101.166 24.5398 102.204 24.7316C102.667 24.8168 103.301 24.5416 103.652 24.0066C103.758 23.8443 103.941 23.7479 104.136 23.7482L107.911 23.7529C108.284 23.7534 108.558 24.0952 108.478 24.4562C108.17 25.8624 106.968 28.8985 102.335 28.9975C97.7021 29.0962 95.7284 26.2891 96.138 22.526C96.6147 18.1401 99.5702 14.9613 104.435 15.1579C109.043 15.3442 109.51 18.2422 109.495 19.4954C109.491 19.8117 109.232 20.0655 108.913 20.0655H105.049Z" fill="#9E9E9E"/>
</svg>
