<svg width="108" height="58" viewBox="0 0 108 58" fill="none" xmlns="http://www.w3.org/2000/svg">
<path d="M46.3262 9.43986C46.2412 9.94122 46.0853 10.4569 45.9294 11.0156C45.6318 12.0612 45.2917 13.2645 45.2917 14.4821C45.2917 15.6997 45.6318 16.9029 45.9294 17.9486C46.0853 18.5073 46.2412 19.0373 46.3262 19.5243C46.3971 19.9397 46.2128 20.3265 45.8444 20.5127C45.4759 20.7133 45.0508 20.6416 44.7532 20.3408L40.1333 15.671C39.8074 15.3416 39.6373 14.8975 39.6373 14.4534C39.6373 14.0094 39.8074 13.5796 40.1333 13.2359L44.7532 8.56606C45.0508 8.26525 45.4759 8.20795 45.8444 8.39417C46.227 8.65201 46.4112 9.03877 46.3262 9.43986Z" fill="#9E9E9E"/>
<path d="M49.0045 22.246C49.5005 22.3319 50.0107 22.4895 50.5634 22.6471C51.5979 22.9479 52.7883 23.2917 53.9928 23.2917C55.1974 23.2917 56.3878 22.9479 57.4223 22.6471C57.975 22.4895 58.4993 22.3319 58.9812 22.246C59.3921 22.1744 59.7748 22.3606 59.959 22.733C60.1574 23.1054 60.0865 23.5352 59.7889 23.836L55.1691 28.5058C54.8431 28.8353 54.4038 29.0072 53.9645 29.0072C53.5252 29.0072 53.1 28.8353 52.7599 28.5058L48.1826 23.8217C47.885 23.5209 47.8283 23.0911 48.0125 22.7187C48.2109 22.3606 48.5935 22.16 49.0045 22.246Z" fill="#9E9E9E"/>
<path d="M58.995 6.74685C58.499 6.6609 57.9888 6.50333 57.4361 6.34576C56.4016 6.04495 55.2112 5.70116 54.0067 5.70116C52.8021 5.70116 51.6117 6.04495 50.5772 6.34576C50.0245 6.50333 49.5002 6.6609 49.0184 6.74685C48.6074 6.81847 48.2248 6.63225 48.0405 6.25982C47.8421 5.88738 47.913 5.45764 48.2106 5.15683L52.8305 0.487034C53.128 0.171894 53.5674 0 53.9925 0C54.4318 0 54.857 0.171894 55.1971 0.501358L59.8169 5.17115C60.1145 5.47197 60.1712 5.9017 59.987 6.27414C59.8911 6.44771 59.7439 6.58661 59.566 6.67138C59.3881 6.75615 59.1885 6.78254 58.995 6.74685Z" fill="#9E9E9E"/>
<path d="M61.6591 19.5386C61.7442 19.0372 61.9 18.5216 62.0559 17.9629C62.3535 16.9172 62.6936 15.714 62.6936 14.4964C62.6936 13.2788 62.3535 12.0755 62.0559 11.0298C61.9 10.4712 61.7442 9.94118 61.6591 9.45415C61.5883 9.03873 61.7725 8.65197 62.1409 8.46575C62.5094 8.26521 62.9345 8.33683 63.2321 8.63765L67.852 13.3074C68.178 13.6369 68.348 14.081 68.348 14.525C68.348 14.9691 68.178 15.3988 67.852 15.7426L63.2321 20.4124C62.9345 20.7132 62.5094 20.7705 62.1409 20.5843C61.7725 20.3408 61.5883 19.954 61.6591 19.5386Z" fill="#9E9E9E"/>
<path d="M51.5413 44.449L46.6805 53.058L46.6663 53.0867V57.9857H43.1802V53.0867L43.166 53.058L38.3052 44.449H41.9473L44.8382 49.5629L44.9232 49.7204L45.0083 49.5629L47.8992 44.449H51.5413ZM107.717 44.449L102.502 50.4223L108 57.9857H104.004L100.248 52.9291L98.7744 54.5908V57.9714H95.345V44.449H98.7744V50.3221L103.947 44.449H107.717ZM87.0831 44.449V47.4142H79.8415V49.7204H87.0831V52.6856H79.8415V54.9919H87.0831V57.9714H76.3837V44.449H87.0831ZM69.0854 44.449H57.4649V47.4142H61.4471V57.9714H65.1174V47.4142H69.0854V44.449ZM12.5558 44.449V47.629H7.11403C5.15838 47.629 3.55701 49.2334 3.55701 51.2245C3.55701 53.2013 5.14421 54.82 7.11403 54.82H12.5558V58H6.58969C2.94764 57.9857 0 54.9918 0 51.3248V51.1099C0 47.4428 2.94764 44.449 6.58969 44.449H12.5558ZM27.8609 44.449C30.6102 44.449 32.8492 46.7123 32.8492 49.4912V49.7491C32.8492 51.3677 32.0698 52.9005 30.766 53.8459L30.7235 53.8745V53.9605L33.3169 57.957H29.6323L27.5917 54.7913H24.5165V57.957H21.0445V44.4347H27.8609M24.5306 51.8548H27.535C28.6687 51.8548 29.5898 50.9237 29.5898 49.7777V49.5199C29.5898 48.3739 28.6687 47.4428 27.535 47.4428H24.5306V51.8548Z" fill="#9E9E9E"/>
</svg>
