<svg width="123" height="34" viewBox="0 0 123 34" fill="none" xmlns="http://www.w3.org/2000/svg">
<path fill-rule="evenodd" clip-rule="evenodd" d="M12.1889 8.55047L11.5105 8.81176L10.8992 9.12266L10.288 9.46663L9.74391 9.85691L9.19782 10.2803L8.71824 10.7565L8.25477 11.2659L7.42188 12.4037L7.0726 13.0122L6.77034 13.634L6.54196 14.2889L6.34045 14.9239L6.20612 15.592L6.1188 16.2734L6.09864 16.9944V17.4376L6.13223 17.894L6.17925 18.3372L6.27328 18.7937L6.35389 19.217L6.48151 19.6404L6.62928 20.0505L6.81064 20.4739L6.97856 20.8509L7.1935 21.2412L7.42188 21.6182L7.68384 22.0085L7.94579 22.3657L8.26149 22.7229L8.57718 23.0669L8.9399 23.4307L9.28918 23.7416L9.65189 24.0393L10.0146 24.3171L10.3907 24.5817L11.1699 25.0381L11.5796 25.23L12.0095 25.4086L12.4193 25.5607L12.8491 25.693L13.2925 25.8121L13.7559 25.9113L14.6963 26.0436L15.1732 26.0767L15.6702 26.0965H17.1278L17.0815 7.90485H15.55L15.7132 7.93793L15.7804 24.4587L15.4714 24.4918L15.0214 24.4746L14.5915 24.4415L14.1777 24.3886L13.7814 24.3224L13.005 24.124L12.2594 23.866L11.534 23.5022L11.1914 23.3037L10.8623 23.092L10.2175 22.6025L9.60621 22.0469L9.29724 21.7227L9.02856 21.4118L8.53151 20.757L8.30313 20.3932L8.10834 20.0492L7.92699 19.692L7.77922 19.348L7.61801 18.9577L7.50382 18.5807L7.38964 18.1904L7.32247 17.8133L7.24186 17.4032L7.20828 17.0129L7.17469 16.5896V16.1794L7.19484 15.5444L7.2553 14.9226L7.35605 14.314L7.52397 13.7385L7.70533 13.1498L7.95386 12.5942L8.23596 12.0584L8.58524 11.5358L8.91437 11.033L9.29052 10.5634L9.68682 10.1202L10.1368 9.74975L10.5802 9.3727L11.0974 9.0618L11.6079 8.7509" fill="#9E9E9E"/>
<path fill-rule="evenodd" clip-rule="evenodd" d="M4.70251 5.3733L4.12485 5.9607L3.57944 6.5825L3.06761 7.20431L2.62161 7.85918L2.19173 8.51406L1.81155 9.21524L1.46429 9.91642L1.16202 10.6507L0.879914 11.3849L0.63139 12.1523L0.416449 12.9196L0.268676 13.72L0.134339 14.5204L0.0537352 15.3539L0 16.2006V17.0804L0.0134341 17.9469L0.0604523 18.7936L0.141056 19.6271L0.288827 20.4606L0.355997 20.8509L0.450033 21.261L0.664974 22.0482L0.9135 22.8089L1.04112 23.1859L1.20233 23.5762L1.51802 24.2906L1.86058 24.9918L2.25688 25.6798L2.7002 26.3677L3.16366 27.0226L3.67415 27.6642L4.21822 28.286L4.80931 28.9078L5.40039 29.4436L6.02507 29.9861L6.66989 30.4756L7.34158 30.9519L8.01999 31.362L8.73198 31.7523L9.44397 32.0962L10.203 32.4204L10.9418 32.685L11.7344 32.9297L12.527 33.1215L13.3666 33.3001L14.1928 33.4126L15.0727 33.5118L15.9527 33.5647L16.8594 33.5978H16.9266L17.5244 33.578L18.1155 33.5449L18.7133 33.4986L19.338 33.4324L20.5269 33.234L21.118 33.1215L21.7493 32.9892L22.9382 32.632L23.5293 32.4336L24.1231 32.2219L25.312 31.7324L26.5042 31.1821L27.3304 30.7256L28.123 30.2692L28.4857 30.0244L28.8484 29.7975L29.5604 29.308L29.809 29.0831L30.0575 28.8847L30.2724 28.7061L30.4739 28.5407L30.6217 28.3753L30.756 28.2258L30.8568 28.0935L30.9374 27.9811L30.924 27.948L30.8904 27.9626L30.8434 27.9758L30.7628 28.042L30.6486 28.1081L30.5008 28.2206L30.3349 28.3462L30.1535 28.5248L29.4953 28.9945L29.1594 29.2247L28.9982 29.3372L28.8505 29.4694L27.5138 30.3029L26.2577 30.9512L25.6263 31.2422L25.0017 31.5201L23.712 32.0096L23.0538 32.2213L22.4089 32.4164L21.7305 32.5785L21.0723 32.724L19.7155 32.9529L18.3291 33.0832L16.9474 33.1493L16.0406 33.1162L15.1809 33.0666L14.3211 32.9674L13.5151 32.855L12.7023 32.6697L11.9299 32.4911L11.1521 32.2464L10.4267 31.9864L9.68377 31.6623L8.99192 31.321L8.29337 30.9108L7.63511 30.5047L6.97685 30.035L6.36561 29.5455L5.75437 29.0031L5.17672 28.4541L4.63265 27.8653L4.11545 27.2766L3.63855 26.6581L3.18852 26.0429L2.77878 25.388L2.41338 24.7332L2.06411 24.0492L1.782 23.3632L1.49451 22.6356L1.28629 21.9172L1.07135 21.1664L0.923575 20.415L0.789236 19.6344L0.701917 18.8472L0.648182 18.0336L0.62803 17.2199V16.3719L0.67505 15.5914L0.755652 14.824L0.876557 14.0765L1.02433 13.3271L1.21912 12.6127L1.43406 11.893L1.71617 11.205L1.99828 10.5237L2.34756 9.85556L2.69012 9.2073L3.10254 8.5855L3.52974 7.95047L4.00663 7.34851L4.52048 6.75978L5.06455 6.18428L5.60862 5.6154L6.19299 5.09282L6.78676 4.60332L7.398 4.16012L8.00924 3.73677L8.64063 3.35972L9.28545 3.01574L9.96386 2.72468L10.6221 2.44686L11.3173 2.21534L12.0253 2.00366L12.7547 1.85813L13.4802 1.7126L14.2392 1.63322L15.0156 1.5803L15.8082 1.56046L16.5874 1.57369L17.3598 1.61999L18.1054 1.69937L18.851 1.81183L19.563 1.95735L19.9056 2.03673L20.2683 2.14919L20.9601 2.36086L21.656 2.63869L22.3008 2.91652L22.6165 3.06205L22.9456 3.24065L23.5703 3.58462L24.2017 3.98813L24.7995 4.41149L25.3973 4.88115L25.9615 5.38388L26.5257 5.91969L27.0362 6.45549L27.5467 7.04422L28.0102 7.62634L28.4535 8.26137L28.8364 8.87656L29.2192 9.54466L29.5316 10.2128L29.8405 10.9139L30.0891 11.6151L30.3174 12.3494L30.4988 13.0836L30.6801 13.8642L30.7963 14.6448L30.877 15.4584L30.924 16.272L30.971 17.1386L30.9508 17.3635V17.6082L30.9307 18.0977L30.8971 18.3293L30.8837 18.3756V18.574L30.8501 19.0635L30.7178 20.0095L30.5364 20.9554L30.2879 21.8682L30.0058 22.7745L29.6565 23.6543L29.2602 24.5341L20.058 7.80494V7.68587H18.7146L18.7818 25.9364L20.1218 25.9033L20.0883 10.6229L28.4844 25.8835H29.8882L30.1871 25.3411L30.4827 24.8185L30.7493 24.2827L31.0113 23.7601L31.2262 23.2045L31.3203 22.9266L31.4345 22.6687L31.636 22.113L31.8173 21.5573L31.9718 20.9686L32.1061 20.413L32.2203 19.8242L32.3211 19.2554L32.3883 18.6666L32.442 18.0845L32.4756 17.4826L32.489 16.8938L32.442 16.014L32.3883 15.1806L32.2741 14.3537L32.1599 13.5533L31.9785 12.7529L31.777 11.9856L31.5285 11.2182L31.2598 10.4972L30.9307 9.76295L30.5814 9.06177L30.1851 8.36059L29.7754 7.70572L29.2985 7.03761L28.8014 6.41779L28.2574 5.79864L27.6931 5.21652L27.3842 4.90562L27.0886 4.6278L26.4774 4.08802L25.8326 3.58529L25.1877 3.14208L24.5093 2.7055L23.8309 2.32845L23.1391 1.98447L22.4472 1.67688L21.7017 1.39906L20.9561 1.1543L20.1971 0.942626L19.4381 0.797097L18.6455 0.6648L17.8529 0.592035L17.0267 0.541762H16.2005L15.3407 0.556976L14.5146 0.609896L13.6884 0.689274L12.9092 0.834803L12.1166 0.980331L11.3509 1.19201L10.6053 1.43676L9.89333 1.7298L9.16119 2.03806L8.46935 2.37542L7.79094 2.75247L7.14612 3.19037L6.48114 3.6468L5.84975 4.14954L5.23852 4.68534M122.717 9.08625V7.49867H119.164V0.363821H117.33V7.54762H114.274V9.17753H117.33V19.3023L117.35 19.7111L117.384 20.0855L117.451 20.4599L117.498 20.7854L117.586 21.095L117.686 21.3715L117.8 21.6334L117.881 21.8286L117.995 22.0402L118.109 22.2188L118.257 22.3974L118.392 22.543L118.553 22.6885L118.899 22.9465L119.282 23.1251L119.728 23.2706L120.211 23.35L120.46 23.3632L120.742 23.3764L121.004 23.3566L121.272 23.3368L121.769 23.2706L122.28 23.1582L122.824 23.006V21.4317L122.34 21.5772L122.125 21.6235L121.944 21.6896H121.696L121.467 21.7029H120.955V21.7161L120.707 21.6963L120.505 21.6764L120.304 21.6235L120.136 21.5904L119.968 21.511L119.834 21.4449L119.699 21.3457L119.613 21.2531L119.499 21.0546L119.402 20.8429L119.322 20.5651L119.275 20.2873L119.208 19.9301L119.174 19.553L119.158 19.1297V9.16166H122.708L122.717 9.08625ZM41.4037 7.50793H39.57V17.642L39.5901 18.4887L39.6237 18.8631L39.6895 19.2534L39.7386 19.5973L39.8259 19.9387L40.0408 20.5902L40.155 20.8681L40.3028 21.1433L40.4506 21.4045L40.6319 21.6652L41.0081 22.1051L41.223 22.3002L41.4715 22.4967L41.7671 22.6885L42.1163 22.8671L42.4791 23.0126L42.8821 23.1582L43.2784 23.2375L43.7083 23.3169L44.1583 23.3632L44.6553 23.3764L44.6889 23.3566H45.0382L45.4345 23.3037L45.7972 23.2375L45.8845 23.2045L45.9853 23.1912L46.1868 23.1582L46.5361 23.0259L46.704 22.9399L46.8854 22.8737L47.2212 22.6951L47.3891 22.5959L47.4429 22.543H47.4764L47.5772 22.5165L47.8727 22.2718L48.1549 22.0072L48.4168 21.7293L48.6653 21.4383L48.8803 21.1141L48.981 20.9355L49.0952 20.7702L49.1825 20.5717L49.2833 20.3931L49.3639 20.1947L49.4646 20.0161V23.1191H51.1842L51.07 7.52777H49.2222V16.5373L49.206 16.5545V16.786L49.1879 17.044L49.1543 17.2887L49.1342 17.5487L49.02 18.0316L48.8856 18.5211L48.7849 18.7328L48.6841 18.9577L48.5834 19.0966L48.5632 19.1628L48.4625 19.3943L48.1938 19.8176L47.9117 20.241L47.7303 20.3997L47.5624 20.5783L47.4617 20.6445L47.4079 20.6776L47.3743 20.7239L47.2064 20.8826L47.0049 20.9951L46.8168 21.1208L46.4205 21.3457L45.9907 21.4912L45.7623 21.5573L45.5473 21.6235L45.0839 21.6896H44.8488L44.8354 21.7029L44.6003 21.7227L44.3316 21.7029L44.0965 21.6896L43.6532 21.6103L43.2367 21.478L43.0352 21.3986L42.8673 21.3126L42.5247 21.0678L42.2426 20.79L41.9941 20.4659L41.8799 20.2873L41.7993 20.1087L41.5844 19.6192L41.5038 19.3414L41.45 19.0635L41.3829 18.7526L41.3493 18.4252L41.3291 18.0812L41.3493 17.7372V7.55027L41.4037 7.50793ZM81.0133 23.0993V20.493H78.6422V23.0993H81.0254H81.0133ZM66.1555 7.53439H63.7911L57.0138 14.4417H56.8324V0H55.0303V23.1509H56.8338V15.4776H57.0151L64.3365 23.1509H66.9629L58.8152 14.7592L66.1703 7.5582L66.1555 7.53439ZM75.5417 9.0492L75.8722 9.06574L76.067 9.09749L76.2994 9.16364L76.6956 9.24501L77.0248 9.39053V7.58731L76.5479 7.42458L76.1348 7.32536L75.9199 7.27905L75.7385 7.26252L75.3892 7.24267L75.0265 7.2559L74.696 7.30221L74.3649 7.3882L73.7335 7.67926L73.4561 7.89093L73.174 8.13568L72.9053 8.4069L72.6904 8.6318L72.3277 9.18746L72.1799 9.49836L72.0321 9.80264L71.9179 10.1598L71.797 10.5171L71.7164 10.9073V7.5205H69.9969L70.1117 23.1191H71.9119V13.6333L71.9589 13.1127L72.0395 12.6067L72.1537 12.1344L72.2813 11.678L72.4627 11.2712L72.6776 10.861L72.9261 10.5171L73.1747 10.1598L73.4568 9.86218L73.7389 9.59758L74.068 9.39913L74.3783 9.23376L74.741 9.11469L75.1078 9.04854L75.5222 9.03531L75.5417 9.0492ZM90.1993 7.32271H89.7171L89.271 7.37166L88.8244 7.45303L88.4079 7.58334L87.9982 7.72887L87.6355 7.94187L87.2728 8.16677L86.9369 8.4446L86.4533 8.88515L86.0033 9.42229L85.7883 9.71466L85.607 10.0401L85.2577 10.7744V7.55423H83.6188L83.7195 23.1456H85.5197V13.5672L85.5667 13.0962L85.6473 12.6226L85.7951 12.182L85.9428 11.7256L86.1578 11.3022L86.4063 10.8948L86.7018 10.5032L86.9974 10.1129L87.3399 9.80198L87.6892 9.52614L88.0855 9.31446L88.4818 9.13586L88.9251 9.02341L89.3886 8.95726H89.8991L90.1812 8.94403L90.4767 8.95726L91.0208 9.04325L91.2693 9.09617L91.5111 9.18216L91.7261 9.26816L91.9545 9.38723L92.1358 9.48645L92.3306 9.61875L92.4985 9.75105L92.6597 9.91642L92.9418 10.2604L93.056 10.4588L93.1904 10.6904L93.2575 10.902L93.2911 11.0145L93.3381 11.16L93.3852 11.4709L93.4523 11.8149L93.4859 12.1919L93.5195 12.6153L93.5329 13.0916L93.5531 13.6009V23.1926H95.4002V13.4686L95.3868 12.8667L95.3532 12.3176L95.286 11.7818L95.2189 11.3056L95.1047 10.8293L94.9838 10.4192L94.836 10.009L94.6681 9.66505L94.4867 9.36738L94.3054 9.10279L94.1106 8.83819L93.9091 8.62651L93.6606 8.39499L93.4322 8.21639L93.1702 8.03117L92.9083 7.88564L92.6127 7.74011L92.3105 7.62104L91.9813 7.50859L91.6522 7.44244L91.2895 7.35645L90.9268 7.32337L90.5305 7.2903L90.1543 7.31014L90.1993 7.32271ZM109.537 14.2948H100.929V13.7895L100.976 13.3171L101.06 12.8448L101.174 12.405L101.322 11.9657L101.503 11.5424L101.718 11.1322L101.981 10.7618L102.294 10.3186L102.657 9.9614L103.037 9.63727L103.467 9.39252L103.911 9.18084L104.387 9.04854L104.898 8.96255L105.455 8.9427L105.717 8.92286L106 8.93609L106.261 8.96916L106.523 9.03531L106.752 9.09485L107 9.19407L107.235 9.28668L107.464 9.41236L107.665 9.52482L107.86 9.67034L108.041 9.8291L108.223 10.0209L108.371 10.2194L108.539 10.4443L108.686 10.6758L108.834 10.9338L108.982 11.2579L109.109 11.635L109.224 12.0054L109.318 12.4288L109.385 12.8323L109.452 13.2887L109.486 13.7451L109.499 14.2479L109.537 14.2948ZM40.7676 27.7694V31.3375H42.5073V27.7694H43.7277V31.3375H44.2046V33.5045H43.2172V32.3072H39.5431V27.7694H40.7676ZM48.3752 29.6494C48.3617 29.3001 48.2744 29.0362 48.0998 28.8556C47.9251 28.675 47.7102 28.5844 47.4617 28.5844C47.193 28.5844 46.9713 28.681 46.8034 28.8721C46.6288 29.062 46.5415 29.3219 46.5415 29.65H48.3617L48.3752 29.6494ZM48.3013 30.8632L49.517 31.063C49.3558 31.4996 49.114 31.8369 48.7782 32.0618C48.4423 32.2934 48.0192 32.4058 47.5087 32.4058C46.7027 32.4058 46.1116 32.1478 45.7287 31.6319C45.4264 31.2151 45.272 30.6925 45.272 30.0641C45.272 29.3166 45.4667 28.7279 45.8698 28.2979C46.2661 27.8746 46.7698 27.6629 47.3811 27.6629C48.0662 27.6629 48.6035 27.8878 48.9998 28.331C49.3961 28.7742 49.5842 29.4556 49.5641 30.3816H46.5079C46.5146 30.7322 46.6153 31.0101 46.8034 31.2085C46.9915 31.407 47.2266 31.5062 47.502 31.5062C47.69 31.5062 47.8512 31.4533 47.9789 31.354C48.1065 31.2482 48.2072 31.0828 48.2744 30.8513L48.3013 30.8632ZM61.0701 27.7688H62.5814L63.7233 30.9307L64.8786 27.7621H66.3832V32.3H65.3427V29.3166L64.2143 32.3H63.1732L62.0985 29.31V32.3H61.0574V27.7621L61.0701 27.7688ZM68.19 32.3066V27.7688H69.4058V32.3066H68.1833H68.19ZM68.19 27.1536V26.0356H69.4058V27.1469H68.1833L68.19 27.1536ZM74.1278 25.9232H74.7189C74.6853 26.3069 74.5442 26.6111 74.3024 26.8361C74.0539 27.0543 73.7449 27.1668 73.3621 27.1668C72.9792 27.1668 72.6635 27.0543 72.4217 26.8361C72.1799 26.6111 72.0388 26.3069 72.0052 25.9232H72.5963C72.6165 26.1216 72.6836 26.2738 72.8113 26.3796C72.9322 26.4788 73.1135 26.5318 73.3486 26.5318C73.5837 26.5318 73.7651 26.4788 73.886 26.373C74.0069 26.2672 74.0808 26.115 74.1009 25.91L74.1278 25.9232ZM71.2059 27.7621H72.3747V30.6132L74.2487 27.7621H75.4443V32.3H74.2756V29.4033L72.3747 32.3072H71.1992V27.7694L71.2059 27.7621ZM79.7498 32.3V27.7621H80.9656V32.3H79.7431H79.7498ZM79.7498 27.1469V26.0356H80.9656V27.1469H79.7431H79.7498ZM82.7523 27.7621H83.9681V29.4225H85.7144V27.7555H86.9369V32.2934H85.7077V30.3955H83.9613V32.3006H82.7389V27.7628L82.7523 27.7621ZM88.2064 27.7621H92.3776V28.7279H90.8999V32.3066H89.6774V28.7418H88.1997V27.7721L88.2064 27.7621ZM96.4279 29.6408C96.4145 29.2902 96.3272 29.0256 96.1525 28.847C95.9779 28.6684 95.7697 28.5758 95.5144 28.5758C95.2457 28.5758 95.0241 28.6684 94.8562 28.8602C94.6815 29.0454 94.5942 29.31 94.5942 29.6342H96.4145L96.4279 29.6408ZM96.354 30.8513L97.5698 31.0497C97.4153 31.4863 97.1668 31.8237 96.8309 32.0486C96.4951 32.2801 96.0719 32.3926 95.5614 32.3926C94.7621 32.3926 94.171 32.1346 93.7882 31.6186C93.4859 31.2019 93.3314 30.6793 93.3314 30.0509C93.3314 29.3034 93.5329 28.7147 93.9292 28.2847C94.3255 27.8614 94.8293 27.6497 95.4405 27.6497C96.1257 27.6497 96.6697 27.868 97.066 28.3178C97.4623 28.761 97.6504 29.4489 97.637 30.3684H94.5808C94.5875 30.7256 94.6815 30.9968 94.8696 31.1953C95.0577 31.3937 95.2928 31.4929 95.5749 31.4929C95.7629 31.4929 95.9241 31.44 96.0518 31.3408C96.1794 31.235 96.2801 31.0696 96.3473 30.8381L96.354 30.8513ZM100.384 29.9451C100.384 30.4544 100.485 30.8315 100.693 31.0696C100.895 31.3077 101.15 31.4334 101.445 31.4334C101.728 31.4334 101.963 31.321 102.151 31.0961C102.339 30.8711 102.433 30.5007 102.433 29.9914C102.433 29.5151 102.332 29.1645 102.144 28.933C101.949 28.7015 101.707 28.589 101.425 28.589C101.13 28.589 100.881 28.7015 100.686 28.9264C100.485 29.1513 100.391 29.4886 100.391 29.9318L100.384 29.9451ZM99.1751 27.7489H100.31V28.4104C100.458 28.1789 100.653 27.9937 100.908 27.8547C101.157 27.7092 101.439 27.6365 101.748 27.6365C102.278 27.6365 102.735 27.8415 103.105 28.2583C103.474 28.6684 103.662 29.2439 103.662 29.9847C103.662 30.7388 103.474 31.3276 103.098 31.7509C102.722 32.1677 102.265 32.3793 101.728 32.3793C101.472 32.3793 101.237 32.3264 101.036 32.2272C100.827 32.128 100.606 31.956 100.377 31.7112V34H99.1617V27.7496L99.1751 27.7489ZM105.173 27.7489H106.396V29.4093H108.135V27.7496H109.358V32.2874H108.135V30.3955H106.389V32.3006H105.167V27.7628L105.173 27.7489ZM113.912 29.6275C113.905 29.277 113.811 29.0124 113.643 28.8338C113.469 28.6485 113.254 28.5625 113.005 28.5625C112.737 28.5625 112.522 28.6551 112.347 28.847C112.172 29.0388 112.085 29.2968 112.092 29.6209H113.912V29.6275ZM113.845 30.8381L115.061 31.0365C114.899 31.4731 114.658 31.8105 114.322 32.042C113.986 32.2735 113.563 32.386 113.052 32.386C112.253 32.386 111.655 32.128 111.272 31.612C110.963 31.1953 110.816 30.6727 110.816 30.0443C110.816 29.2968 111.01 28.7081 111.413 28.2781C111.81 27.8547 112.313 27.6431 112.925 27.6431C113.61 27.6431 114.147 27.8614 114.543 28.3112C114.94 28.7544 115.128 29.4357 115.114 30.3618H112.058C112.065 30.7124 112.166 30.9902 112.354 31.1887C112.542 31.3871 112.777 31.4863 113.052 31.4863C113.24 31.4863 113.402 31.4334 113.536 31.3342C113.663 31.2284 113.764 31.063 113.831 30.8315L113.845 30.8381ZM116.041 27.7489H120.212V28.7213H118.741V32.3H117.519V28.7418H116.048V27.7721L116.041 27.7489ZM121.731 31.0894H122.946V32.2934H121.731V31.0894ZM121.992 30.6727L121.677 27.4909V26.0297H123V27.4982L122.684 30.6787H121.992V30.6727ZM52.1239 29.5753V30.7792H57.9172V29.5819H52.1272L52.1239 29.5753ZM111.41 15.3201L111.397 14.9299V14.5727L111.347 13.8715L111.28 13.2034L111.233 12.8792L111.199 12.5862L111.085 11.9842L110.953 11.4418L110.787 10.9351L110.606 10.4655L110.407 10.0619L110.212 9.70474L109.984 9.36738L109.756 9.07633L109.494 8.77865L109.212 8.5339L108.916 8.28915L108.62 8.09732L108.271 7.90549L107.922 7.75996L107.559 7.61443L107.183 7.52182L106.773 7.4226L106.357 7.37629L105.927 7.32999L105.484 7.34983L104.745 7.36306L104.382 7.39614L104.053 7.46229L103.71 7.52844L103.395 7.62104L102.783 7.8658L102.206 8.16347L101.924 8.32884L101.675 8.54052L101.198 8.96387L100.755 9.48645L100.325 10.0553L99.9825 10.6573L99.6668 11.2923L99.4384 11.9935L99.3242 12.3375L99.2436 12.7145L99.116 13.4752L99.0354 14.2756L99.0153 15.1224V15.6251L99.0489 16.1278L99.0824 16.5975L99.1496 17.087L99.2168 17.5302L99.3175 17.9866L99.4183 18.4153L99.5661 18.8366L99.7004 19.2071L99.8616 19.5973L100.03 19.9546L100.244 20.3118L100.446 20.6359L100.681 20.9666L100.93 21.2603L101.212 21.5514L101.689 21.9747L101.937 22.1666L102.219 22.365L102.797 22.6892L103.408 22.967L104.053 23.1621L104.731 23.3077L105.079 23.3553L105.455 23.4082L106.234 23.4413L106.731 23.4214L107.241 23.3751L107.739 23.2905L108.267 23.2111L108.778 23.0655L109.308 22.92L109.839 22.7414L110.37 22.543V20.8231L109.805 21.0639L109.261 21.3086L108.731 21.4872L108.234 21.6658L107.723 21.7783L107.244 21.8775L106.781 21.9304L106.351 21.9635L105.74 21.9304L105.162 21.8312L104.618 21.6857L104.101 21.4938L103.604 21.2359L103.154 20.9117L102.724 20.5413L102.341 20.1179L101.998 19.6814L101.716 19.2249L101.468 18.7354L101.286 18.2327L101.134 17.6969L101.038 17.1412L100.987 16.8502L100.97 16.5723V15.9836H111.462V15.3817L111.41 15.3201Z" fill="#9E9E9E"/>
</svg>
