<svg width="106" height="98" viewBox="0 0 106 98" fill="none" xmlns="http://www.w3.org/2000/svg">
<path d="M79.2655 48.4835C74.3253 59.7676 64.16 65.6734 53.3025 65.5368C32.4758 64.4974 26.4177 40.2933 40.3358 31.555L40.9484 32.1711C40.7108 32.4847 39.9031 33.1439 38.6015 35.7066C37.0852 38.8207 36.623 41.9244 36.8022 43.8658C37.886 60.7855 61.4073 64.2266 69.5091 47.5009C79.8218 24.5578 52.4868 1.25729 28.217 19.0652L27.6564 18.5017C34.0401 8.42174 46.5137 3.91015 58.4271 6.92463C76.6449 11.5078 86.4247 30.6308 79.2658 48.4832L79.2655 48.4835ZM59.7934 48.1199C58.107 50.5631 55.2989 52.1628 52.119 52.1628C46.961 52.1628 42.7801 47.9553 42.7801 42.7646C42.7801 37.8035 46.6001 33.7407 51.4416 33.3915C54.4565 33.2697 57.266 34.9092 58.6037 37.5676C60.0456 40.4341 59.5181 43.9696 57.2718 46.3536L59.7934 48.1199ZM27.2127 41.9133C26.7624 45.6458 27.0429 46.8113 27.0419 47.2549L26.2181 47.5564C25.9065 46.9426 25.1154 44.7798 24.7668 41.8734C23.8751 30.7765 31.3887 20.7766 42.8262 18.9153C53.3158 17.3636 63.3455 23.9198 65.6947 33.0969L64.8686 33.3997C64.6232 33.1263 64.1849 32.3837 62.5996 30.7664C49.949 17.9764 30.0663 23.8427 27.2127 41.9133ZM87.2108 35.7592C86.462 -0.913415 38.0597 -14.5808 19.4251 19.7845C20.2486 20.384 21.3879 21.1954 22.2115 21.7948C20.7839 24.8123 19.8321 27.8855 19.3114 30.9493C18.9436 32.992 18.7589 35.0638 18.7596 37.1397C18.7596 56.1703 34.0894 71.5975 53 71.5975C71.9106 71.5975 87.2404 56.1703 87.2404 37.1394C87.2404 36.6771 87.2287 36.2175 87.2108 35.7592ZM106 82.0639H100.535V97.6632H96.2975V82.0639H90.8052V78.0237H106V82.0639ZM80.0621 82.0639V86.6091H88.3427V89.8637H80.0621V97.6632H75.825V78.0237H89.1793V82.0639H80.0621ZM69.8035 87.8433C69.8035 84.3084 67.5735 81.7271 64.1716 81.7271C62.1925 81.7271 60.7146 82.4846 59.8226 83.4666L60.4919 84.1402C59.46 85.0098 58.54 86.2165 58.54 88.3767C58.54 91.3507 60.6312 93.9595 64.172 93.9595C67.5735 93.9595 69.8039 91.3788 69.8039 87.8433H69.8035ZM74.0971 87.8433C74.0971 93.6233 69.9707 98 64.172 98C58.2336 98 54.2468 93.7076 54.2468 88.5169C54.2468 85.1499 55.5569 82.7087 57.4805 81.1097L56.8118 80.4364C58.2895 78.8933 60.9934 77.6869 64.172 77.6869C69.9707 77.6869 74.0971 82.1197 74.0971 87.8433ZM47.9946 85.9636C51.34 87.1422 53.0685 88.6573 53.0685 91.6872C53.0685 95.7555 49.974 98 46.3219 98C42.9483 98 40.3553 96.4852 39.2682 93.6792L42.6415 91.1544C43.255 92.922 44.844 94.016 46.4332 94.016C47.8271 94.016 48.8311 93.2581 48.8311 91.9959C48.8311 90.8176 48.078 90.0881 45.29 89.0781C42.2789 87.9837 40.0486 86.4687 40.0486 83.2144C40.0486 80.0719 42.6415 77.6872 46.4053 77.6872C49.3884 77.6872 51.7026 78.8933 52.79 81.2783L49.416 83.6348C48.7749 82.1759 47.7716 81.3625 46.2381 81.3625C44.9556 81.3625 44.0078 82.0639 44.0078 83.0739C44.0078 84.2238 45.067 84.9255 47.9946 85.9636ZM33.5155 78.0237H37.7529V97.6632H33.5155V78.0237ZM24.7921 93.9036C26.604 93.9036 27.6356 93.0621 27.6356 91.435C27.6356 89.8075 26.604 88.966 24.7921 88.966H22.4504V93.9036H24.7921ZM22.4504 81.7833V85.9355H24.6807C25.9909 85.9355 26.8832 85.178 26.8832 83.8592C26.8832 82.5408 25.9909 81.7833 24.6807 81.7833H22.4504ZM31.8737 91.8276C31.8737 95.2224 29.2249 97.6632 24.9596 97.6632H18.2123V78.0237H24.709C28.4725 78.0237 30.9541 79.8471 30.9541 82.7649C30.9541 84.9817 29.9225 86.3282 28.389 86.9737C30.4519 87.7593 31.874 89.1905 31.874 91.8276H31.8737ZM16.1147 78.0237V89.8075C16.1147 94.4932 13.2709 98 8.05736 98C2.84387 98 0 94.4932 0 89.8072V78.0237H4.23773V89.4707C4.23773 92.3323 5.57608 93.9598 8.05736 93.9598C10.5386 93.9598 11.8767 92.3327 11.8767 89.4707V78.0237H16.1147Z" fill="#9E9E9E"/>
</svg>
