<svg width="124" height="29" viewBox="0 0 124 29" fill="none" xmlns="http://www.w3.org/2000/svg">
<path d="M63.6287 2.95873C62.0849 2.95873 60.7996 4.14115 60.7996 5.64915C60.7996 7.17834 62.0849 8.36045 63.6287 8.36045C65.2351 8.36045 66.4986 7.17834 66.4986 5.64915C66.4986 4.14115 65.2351 2.95873 63.6287 2.95873ZM70.976 2.95873C69.4118 2.95873 68.1485 4.14115 68.1485 5.64915C68.1485 7.17834 69.4118 8.36045 70.976 8.36045C72.5614 8.36045 73.8475 7.17834 73.8475 5.64915C73.8475 4.14115 72.5614 2.95873 70.976 2.95873Z" fill="#9E9E9E"/>
<path d="M87.9927 9.72879C84.6896 9.72879 82.0091 12.2566 82.0091 15.3958C82.0091 18.5357 84.6901 21.0837 87.9715 21.0837C89.7943 21.0837 91.1677 20.3699 92.3899 19.2891C92.6906 19.0248 92.6256 18.7598 92.4535 18.5975L91.188 17.414C90.823 17.0672 90.6524 17.2099 90.4176 17.414C89.9022 17.8624 88.9351 18.2502 87.9927 18.2502C86.3195 18.2502 84.9699 16.9859 84.9699 15.3958C84.9699 13.8259 86.32 12.5414 87.9715 12.5414C88.9356 12.5414 89.9022 12.9501 90.4176 13.3985C90.6524 13.6021 90.823 13.7448 91.188 13.3985L92.4535 12.2165C92.6255 12.0531 92.6906 11.7869 92.3899 11.5219C91.1677 10.4417 89.7938 9.72879 87.9927 9.72879ZM41.4881 10.0493C41.1013 10.0493 40.9083 10.2332 40.9083 10.6008V20.182C40.9083 20.5484 41.1013 20.7335 41.4881 20.7335H43.4589C43.8445 20.7335 44.0371 20.5483 44.0371 20.182V16.6956L47.3142 20.3653C47.5076 20.5906 47.7003 20.7335 47.9787 20.7335H50.8501C51.2147 20.7335 51.3421 20.3857 51.1499 20.1208L46.63 14.8205L50.2507 10.6812C50.5285 10.4169 50.3563 10.0493 49.9707 10.0493H47.2506C46.9933 10.0493 46.7371 10.1523 46.5225 10.3966L44.0371 13.4969V10.6008C44.0371 10.2332 43.8445 10.0493 43.4589 10.0493H41.4881ZM52.8315 10.0493C52.4242 10.0493 52.2321 10.2338 52.2321 10.6008V20.182C52.2321 20.5489 52.4242 20.7335 52.8315 20.7335H55.317L60.0457 14.7072V20.182C60.0457 20.5489 60.2166 20.7335 60.6239 20.7335H62.5357C62.9431 20.7335 63.1351 20.5489 63.1351 20.182V10.6008C63.1351 10.2338 62.9431 10.0493 62.5357 10.0493L59.9867 10.0508L55.3231 16.1993V10.6008C55.3231 10.2339 55.1522 10.0493 54.7448 10.0493L52.8315 10.0493ZM66.2018 10.0523C65.7945 10.0523 65.6024 10.2354 65.6024 10.6023V20.1835C65.6024 20.5505 65.7945 20.735 66.2018 20.735H68.3013C68.7086 20.735 68.8795 20.5505 68.8795 20.1835V10.6023C68.8795 10.2354 68.7086 10.0523 68.3013 10.0523L66.2018 10.0523ZM72.0916 10.0523C71.6837 10.0523 71.4906 10.2339 71.4906 10.6008V20.1835C71.4906 20.5505 71.6837 20.735 72.0916 20.735H77.7466C81.7526 20.735 82.8234 16.3533 79.6327 14.9055C81.6237 13.0908 80.2957 10.0523 77.232 10.0523H72.0916ZM93.834 10.0523C93.448 10.0523 93.2542 10.2158 93.2542 10.6023V12.4595C93.2542 12.8465 93.448 13.0304 93.834 13.0304H96.2801V20.1835C96.2801 20.5505 96.4741 20.735 96.881 20.735H98.9805C99.3873 20.735 99.5587 20.5505 99.5587 20.1835V13.0304H102.005C102.389 13.0304 102.583 12.8465 102.583 12.4595V10.6023C102.583 10.2158 102.389 10.0523 102.005 10.0523H93.834ZM106.323 10.0523C105.992 10.0523 105.777 10.2006 105.688 10.4577L101.84 20.2029C101.723 20.4963 101.897 20.735 102.226 20.735H104.59C104.788 20.735 105.001 20.5916 105.065 20.4131L105.585 18.9821H109.654L110.174 20.4131C110.239 20.5916 110.452 20.735 110.649 20.735H113.014C113.342 20.735 113.518 20.4963 113.401 20.2029L109.551 10.4577C109.462 10.2006 109.247 10.0523 108.916 10.0523H106.323ZM115.068 10.0523C114.661 10.0523 114.467 10.2354 114.467 10.6023V20.185C114.467 20.5515 114.661 20.735 115.068 20.735H117.167C117.574 20.735 117.744 20.5515 117.744 20.185V17.6407H119.545C122.073 17.6407 124 16.3204 124 13.9352C124 11.5455 122.031 10.0523 119.674 10.0523H115.068ZM74.5331 12.4372H76.5675C77.8746 12.4372 77.8955 14.0887 76.5675 14.0887H74.5331V12.4372ZM117.744 12.5206H119.395C121.601 12.5206 121.752 15.2752 119.438 15.2752H117.744V12.5206ZM107.619 13.3941H107.622L108.765 16.5362H106.476L107.619 13.3941ZM74.5331 16.3528H77.232C78.8812 16.3528 78.9881 18.3502 77.232 18.3502H74.5331V16.3528Z" fill="#9E9E9E"/>
<path fill-rule="evenodd" clip-rule="evenodd" d="M15.824 0C14.6991 0 13.7881 0.871335 13.7881 1.94665V9.08932C13.7881 10.1651 14.6991 11.0375 15.824 11.0375C16.9482 11.0375 17.8584 10.1651 17.8584 9.08932V1.94665C17.8584 0.871335 16.9482 0 15.824 0ZM1.86185 9.59164C1.07153 9.6565 0.360345 10.1625 0.0999285 10.9301C-0.246707 11.9537 0.33725 13.0528 1.40623 13.3851L8.50385 15.5926C9.57289 15.9248 10.7218 15.365 11.0695 14.342C11.4168 13.319 10.8319 12.2193 9.76172 11.8871L2.6641 9.68107C2.39685 9.59786 2.12529 9.57001 1.86185 9.59164ZM29.7861 9.59316C29.5227 9.57141 29.2513 9.59774 28.9839 9.68111L21.8863 11.8886C20.8173 12.2209 20.2328 13.3205 20.58 14.3435C20.9278 15.3665 22.0751 15.9254 23.1441 15.5926L30.2417 13.3866C31.3107 13.0543 31.8959 11.9547 31.548 10.9317C31.2881 10.1645 30.5765 9.65841 29.7861 9.59316ZM11.7552 19.3264C11.1024 19.3051 10.4498 19.5842 10.0372 20.1283L5.65209 25.9071C4.99138 26.7782 5.19354 27.9971 6.10317 28.6288C7.01163 29.2606 8.2857 29.066 8.94585 28.1966L13.331 22.4163C13.9923 21.5463 13.7885 20.3298 12.8784 19.6975C12.5377 19.4604 12.1469 19.3391 11.7552 19.3264ZM19.8943 19.3264C19.5024 19.3391 19.1107 19.4604 18.7696 19.6975C17.8605 20.3298 17.6578 21.5463 18.3185 22.4163L22.7036 28.1966C23.3637 29.066 24.6379 29.2606 25.5463 28.6288C26.4559 27.9971 26.6581 26.7782 25.9974 25.9071L21.6123 20.1283C21.1997 19.5842 20.5473 19.3051 19.8943 19.3264Z" fill="#9E9E9E"/>
</svg>
