<svg width="80" height="80" viewBox="0 0 80 80" fill="none" xmlns="http://www.w3.org/2000/svg">
<path d="M40.6026 4.45185C39.7489 1.34641 37.6825 -0.206302 35.9305 0.0220115C33.819 0.295988 31.5727 1.57473 30.6741 3.58426C28.1583 9.33849 33.4145 26.2816 34.2232 29.1132C29.102 44.8232 11.5812 75.8781 3.0007 77.9789C2.82102 75.9239 3.89925 69.987 15.2202 62.5886C15.8043 61.9491 16.4781 61.1729 16.7927 60.6704C7.22376 65.42 -5.17556 73.0468 2.282 78.7554C2.68627 79.075 3.31531 79.3492 4.03419 79.6232C9.73956 81.7695 17.736 74.7365 25.7776 58.798C34.6277 55.8296 41.7708 53.5917 51.8787 52.039C62.9301 59.6658 70.3426 61.2183 75.3742 59.2546C76.7669 58.7065 78.9682 56.9255 79.5971 54.5963C75.509 59.7113 65.9401 56.1492 58.303 51.2626C65.3559 50.4861 72.6338 50.0297 75.7785 51.0343C79.7768 52.313 79.642 54.3223 79.5971 54.5965C79.9115 53.5006 80.3609 51.7194 79.5073 50.3037C76.1378 44.7321 60.6839 47.9747 55.0683 48.5683C46.2181 43.1337 40.1083 33.4519 37.6376 26.4646C39.9286 17.4676 42.3995 10.9371 40.6026 4.45185ZM36.784 23.3131C35.3015 17.9699 33.2348 6.09607 36.5594 2.25985C43.0735 6.05041 39.0302 15.0471 36.784 23.3131ZM48.9585 49.8012C40.4229 51.3996 34.6277 53.6372 26.3167 56.971C28.7876 52.0845 33.4596 39.6169 35.7059 31.3965C38.8506 37.7902 42.669 44.0468 48.9585 49.8012Z" fill="#9E9E9E"/>
</svg>
