<svg width="112" height="24" viewBox="0 0 112 24" fill="none" xmlns="http://www.w3.org/2000/svg">
<path d="M25.6699 8.75067C25.6521 8.70901 25.6418 8.66834 25.624 8.62568C24.5563 6.07699 20.4997 5.30466 15.8231 6.46925L15.056 6.00382C17.3583 5.03636 19.6512 4.53129 21.5725 4.66951C24.4384 4.88089 25.84 6.46922 25.6699 8.75067ZM21.512 14.1042C18.5136 17.8215 13.095 20.3947 9.40784 20.1284C5.7269 19.857 5.16853 16.6265 8.16799 12.9091C8.22745 12.8329 8.29218 12.7577 8.35481 12.6815L8.36428 17.3419C8.34446 18.5268 9.51644 19.0827 10.3587 18.6122L21.3827 12.0656C22.2447 11.5219 22.154 10.3055 21.342 9.83705L16.8721 7.33203C18.0806 6.97838 19.2401 6.81173 20.2702 6.88591C23.9542 7.15726 24.5083 10.3868 21.512 14.1042ZM7.49073 22.1283C4.10725 21.8804 2.75779 19.7087 3.63865 16.7515C3.63332 17.2444 3.71275 17.7169 3.90061 18.1559C5.22291 21.3215 11.1592 21.7503 17.158 19.1223C17.2812 19.0685 17.4033 19.0095 17.5244 18.9567C14.1565 21.0735 10.4046 22.3387 7.49073 22.1283ZM11.3888 5.57904L18.7892 10.1206C19.3361 10.4397 19.4018 11.2709 18.8195 11.6398L11.3439 16.0787C10.773 16.3989 9.9725 16.0177 9.98815 15.2078L9.95265 6.39407C9.98505 5.65832 10.7323 5.21421 11.3888 5.57904ZM28.5191 7.21416C26.9682 3.5029 20.5269 2.68583 13.5564 5.08723L10.463 3.20009C9.49973 2.66455 8.39972 3.31695 8.3465 4.4023L8.34857 7.46722C2.3414 10.9722 -1.14228 16.0178 0.34072 19.5695C2.05962 23.672 9.75858 24.235 17.5379 20.8225C25.3193 17.412 30.2349 11.3187 28.5191 7.21416ZM34.7024 12.5633L34.0303 14.9728C33.9301 15.3396 33.8529 15.674 33.7913 15.9616C33.7276 16.2644 33.7015 16.4809 33.7015 16.615C33.7015 16.8731 33.7735 17.0703 33.9207 17.2186C34.0751 17.366 34.2797 17.4381 34.5312 17.4381C34.9257 17.4381 35.3359 17.2217 35.7606 16.7888C36.1833 16.3548 36.5882 15.7349 36.9838 14.922C37.4565 13.8823 37.8427 12.859 38.1401 11.8347C38.4271 10.8225 38.5785 10.0258 38.5785 9.4587C38.5785 9.04714 38.4908 8.71483 38.3207 8.46787C38.1495 8.21789 37.9304 8.08985 37.6736 8.08985C37.0881 8.08985 36.5548 8.45874 36.0653 9.18432C35.5759 9.91802 35.1219 11.041 34.7024 12.5633ZM30.4798 6.9659C31.5245 6.88562 32.5138 6.77892 33.4635 6.66001C34.4091 6.54109 35.3202 6.40291 36.2 6.23523L35.46 8.81848C36.1989 7.81953 36.9034 7.08582 37.5786 6.6346C38.2414 6.16816 38.9302 5.94661 39.6545 5.94661C40.6397 5.94661 41.4046 6.24946 41.9359 6.8531C42.4754 7.46284 42.7395 8.32865 42.7395 9.44856C42.7395 10.3936 42.5589 11.3916 42.1905 12.4332C41.82 13.4769 41.2992 14.4464 40.649 15.3468C39.8841 16.3935 39.0773 17.178 38.2142 17.6973C37.347 18.2206 36.4337 18.4848 35.46 18.4848C35.0603 18.4848 34.6877 18.431 34.334 18.3141C33.9874 18.1932 33.6733 18.0296 33.3884 17.808L32.6307 20.6088C32.5785 20.7764 32.5378 20.9563 32.518 21.1321C32.4887 21.3039 32.4815 21.4776 32.4815 21.6514C32.4815 21.9878 32.5806 22.2317 32.7852 22.3678C32.9908 22.503 33.4061 22.5864 34.0302 22.625V23.2794H26.9668V22.5965C26.9908 22.5965 27.0253 22.5933 27.0701 22.5853C27.1171 22.574 27.1536 22.57 27.1714 22.57C27.6107 22.57 27.9374 22.4603 28.1566 22.2357C28.3779 22.0121 28.6022 21.4298 28.8391 20.4806L31.6507 9.32956C31.6998 9.15171 31.7373 8.9698 31.7676 8.79705C31.7957 8.63037 31.8125 8.4932 31.8125 8.40173C31.8125 8.09483 31.7175 7.88956 31.5338 7.77675C31.3439 7.65072 30.9922 7.59383 30.4797 7.59383L30.4798 6.9659Z" fill="#9E9E9E"/>
<path d="M43.4402 0.815022C44.4582 0.734824 45.4735 0.624348 46.4845 0.483748C47.4572 0.348559 48.3819 0.192024 49.2491 0L45.3699 14.9518C45.3382 15.0548 45.309 15.1585 45.2822 15.2628C45.2311 15.4558 45.2123 15.5798 45.2123 15.6459C45.2123 15.8217 45.2457 15.9619 45.3167 16.0584C45.3918 16.1591 45.4972 16.2078 45.634 16.2078C45.7738 16.2078 45.9314 16.1143 46.113 15.9223C46.2925 15.7343 46.6411 15.2394 47.1598 14.4376L47.7787 14.8949C47.0001 16.1642 46.2497 17.0869 45.5442 17.658C44.8387 18.2281 44.1061 18.5116 43.34 18.5116C42.6648 18.5116 42.1367 18.3297 41.7725 17.9588C41.4041 17.5879 41.2235 17.0534 41.2235 16.3633C41.2235 16.0239 41.4124 15.1235 41.785 13.6642L41.8226 13.5169L44.3973 3.78546C44.4203 3.69605 44.4526 3.5629 44.4943 3.38813C44.6582 2.74791 44.7302 2.33531 44.7302 2.15746C44.7302 1.91255 44.6456 1.73473 44.4703 1.61581C44.2991 1.50099 44.032 1.439 43.6615 1.439H43.4402V0.815022Z" fill="#9E9E9E"/>
<path d="M55.5849 8.5583C55.5849 8.20058 55.5076 7.91706 55.3469 7.70366C55.1862 7.49228 54.9785 7.3876 54.7187 7.3876C54.3492 7.3876 53.9944 7.5624 53.65 7.91807C53.3056 8.27783 52.9111 8.87128 52.4591 9.70258C51.9311 10.6934 51.5168 11.6588 51.2193 12.611C50.9135 13.5714 50.7622 14.3833 50.7622 15.0571C50.7622 15.4666 50.8467 15.7827 51.0137 16.0225C51.1818 16.2481 51.4124 16.363 51.6931 16.363C52.1095 16.363 52.5343 16.1221 52.9747 15.6293C53.4141 15.1394 53.8295 14.4484 54.2229 13.5592C54.6362 12.5683 54.9618 11.6019 55.2113 10.6812C55.4586 9.75339 55.5849 9.04711 55.5849 8.5583ZM60.2646 6.36428L58.195 13.7604V13.7869C57.8799 14.9261 57.7212 15.5887 57.7212 15.7787C57.7212 15.9545 57.7525 16.0947 57.8256 16.2045C57.8934 16.3153 57.9822 16.363 58.1011 16.363C58.4361 16.363 58.8734 15.9708 59.3983 15.1832C59.557 14.9586 59.6791 14.7807 59.7626 14.6568L60.3637 15.1181C59.6885 16.2726 59.0153 17.1262 58.3286 17.6699C57.6419 18.2156 56.8999 18.4849 56.1098 18.4849C55.4513 18.4849 54.9483 18.3426 54.6091 18.0612C54.2595 17.7695 54.0893 17.3548 54.0893 16.801C54.0893 16.6364 54.1018 16.424 54.1384 16.175C54.1686 15.922 54.2229 15.5947 54.2949 15.1954C53.6698 16.3081 52.9883 17.1364 52.2525 17.6709C51.5199 18.2156 50.7006 18.4849 49.7979 18.4849C48.8649 18.4849 48.1312 18.2024 47.5916 17.6353C47.0499 17.0622 46.7797 16.2848 46.7797 15.295C46.7797 14.1558 47.0353 12.9566 47.5603 11.6884C48.078 10.4364 48.7741 9.31547 49.6517 8.35311C50.3437 7.57974 51.0596 6.98526 51.8048 6.5686C52.5552 6.15194 53.2721 5.94667 53.962 5.94667C54.6216 5.94667 55.133 6.10318 55.5139 6.4131C55.8938 6.72813 56.1432 7.20678 56.2633 7.84395L56.6442 6.36434L60.2646 6.36428Z" fill="#9E9E9E"/>
<path d="M59.0586 7.38737V6.70448C60.0667 6.59473 61.0874 6.45856 62.1279 6.30609C63.1601 6.15267 63.7226 6.07849 63.8009 6.07849C64.2163 6.07849 64.76 7.8579 65.4185 11.4228C65.6857 12.8415 65.9049 13.9848 66.0771 14.8404C66.8619 13.2907 67.3983 12.1596 67.6885 11.4523C67.9775 10.7491 68.1195 10.2257 68.1195 9.89138C68.1195 9.63223 67.8773 9.31721 67.3952 8.95848C66.9141 8.59569 66.6678 8.17903 66.6678 7.71868C66.6678 7.18518 66.8348 6.7553 67.175 6.4291C67.5079 6.10796 67.9536 5.94638 68.5098 5.94638C69.0598 5.94638 69.494 6.10796 69.805 6.4291C70.1108 6.7553 70.2694 7.21157 70.2694 7.79184C70.2694 8.52151 69.9094 9.69728 69.1965 11.3141C68.4817 12.9278 67.5048 14.7449 66.2681 16.7773C64.8685 19.0943 63.5911 20.7762 62.4452 21.8412C61.2982 22.9052 60.1941 23.4347 59.1327 23.4347C58.4271 23.4347 57.8751 23.2822 57.4712 22.9764C57.0694 22.6684 56.8669 22.2477 56.8669 21.7111C56.8669 21.2233 57.0391 20.828 57.3908 20.5069C57.7383 20.1888 58.1788 20.0313 58.7152 20.0313C59.1348 20.0313 59.5856 20.1949 60.0667 20.5171C60.5457 20.8443 60.8724 20.9988 61.0311 20.9988C61.3202 20.9988 61.6458 20.763 62.0142 20.2925C62.393 19.8159 62.5819 19.3687 62.5819 18.9348C62.5819 18.6187 62.5516 18.2153 62.4942 17.7316C62.4379 17.2428 62.3471 16.6462 62.2302 15.9379C61.986 14.4187 61.7386 13.0315 61.4924 11.7866C61.2398 10.5438 61.0154 9.56212 60.814 8.84464C60.6366 8.22881 60.4581 7.82843 60.2776 7.6394C60.097 7.45245 59.8048 7.35998 59.3873 7.35998H59.355C59.2339 7.37611 59.1411 7.38737 59.0586 7.38737Z" fill="#9E9E9E"/>
<path d="M75.198 15.1408C74.4184 16.2109 73.6523 17.032 72.9062 17.5991C72.1672 18.1722 71.492 18.4568 70.8783 18.4568C70.3836 18.4568 69.9975 18.2972 69.7126 17.9893C69.4277 17.6743 69.2826 17.2525 69.2826 16.7241C69.2826 16.5381 69.3024 16.3318 69.34 16.1001C69.3744 15.8664 69.4297 15.6072 69.5039 15.3339L71.7289 6.8626H69.3859L69.6041 6.13397C70.6112 5.91953 71.5014 5.45206 72.2789 4.7285C73.0522 4.00191 73.7546 2.9989 74.3714 1.71439H75.1709L74.1251 5.9673H76.2656L76.0496 6.8626H73.8433L71.707 15.0453C71.6579 15.2313 71.6204 15.3938 71.5943 15.5473C71.5765 15.6967 71.5598 15.8339 71.5598 15.9497C71.5598 16.2221 71.6204 16.4273 71.7467 16.5737C71.8625 16.719 72.0389 16.7892 72.2528 16.7892C72.5325 16.7892 72.8613 16.6306 73.2506 16.2983C73.6388 15.9731 74.1304 15.4386 74.72 14.7018L75.198 15.1408Z" fill="#9E9E9E"/>
<path d="M77.3833 12.352C79.1053 12.2717 80.557 11.8124 81.7207 10.9842C82.8938 10.1427 83.4719 9.19866 83.4719 8.12755C83.4719 7.76883 83.379 7.49951 83.1922 7.31864C83.0117 7.14488 82.731 7.05543 82.3542 7.05543C81.3106 7.05543 80.341 7.51576 79.4539 8.45477C78.5658 9.39988 77.878 10.6966 77.3833 12.352ZM77.1798 13.2493C77.0995 13.5532 77.0483 13.8469 77.0118 14.1264C76.969 14.3977 76.9575 14.6527 76.9575 14.8834C76.9575 15.5928 77.1339 16.1344 77.4971 16.5074C77.854 16.8814 78.3811 17.1578 79.0678 17.1578C79.7441 17.1578 80.5216 16.8448 81.3774 16.3925C82.2436 15.9434 83.2173 15.2625 84.2902 14.353L84.8569 15.1883C83.5763 16.3123 82.3709 17.1435 81.2375 17.674C80.1083 18.2156 79.002 18.4799 77.9156 18.4799C76.8521 18.4799 76.0172 18.1659 75.4317 17.549C74.841 16.924 74.5478 16.0491 74.5478 14.9078C74.5478 13.8174 74.7773 12.7077 75.2365 11.5838C75.6957 10.4638 76.324 9.45882 77.1172 8.58892C77.8864 7.75459 78.7327 7.12149 79.6439 6.67841C80.5685 6.24041 81.5109 6.01379 82.4815 6.01379C83.376 6.01379 84.0762 6.21806 84.5939 6.6225C85.1105 7.02392 85.3714 7.57778 85.3714 8.28302C85.3714 9.55229 84.6116 10.6549 83.1067 11.5817C81.5986 12.5065 79.623 13.0583 77.1798 13.2493Z" fill="#9E9E9E"/>
<path d="M94.0057 13.4234L93.9723 15.027C93.1614 16.1825 92.2827 17.0442 91.3257 17.6194C90.3686 18.1895 89.324 18.473 88.1926 18.473C86.9538 18.473 85.9415 18.0696 85.164 17.2526C84.3896 16.4487 84.0034 15.3776 84.0034 14.0474C84.0034 13.0697 84.2226 12.0728 84.6609 11.0556C85.094 10.0343 85.7035 9.1278 86.481 8.32194C87.1918 7.59328 87.9891 7.02421 88.8731 6.63396C89.7487 6.23664 90.6441 6.03237 91.5667 6.03237C92.5342 6.03237 93.3023 6.25187 93.8753 6.68173C94.4472 7.11261 94.7342 7.68477 94.7342 8.40628C94.7342 8.83412 94.5881 9.20503 94.2875 9.50989C93.9911 9.81783 93.6405 9.9682 93.2303 9.9682C92.8953 9.9682 92.625 9.86559 92.4173 9.64911C92.2107 9.43571 92.1074 9.15929 92.1074 8.81378C92.1074 8.57296 92.1877 8.29754 92.3578 7.9764C92.5217 7.66037 92.601 7.46322 92.601 7.38394C92.601 7.23559 92.5207 7.11667 92.3485 7.02421C92.1773 6.93174 91.9519 6.88599 91.6586 6.88599C91.0627 6.88599 90.4595 7.06281 89.8374 7.42865C89.2206 7.8006 88.6811 8.30056 88.2177 8.93572C87.6531 9.706 87.2169 10.5261 86.911 11.3919C86.6094 12.2558 86.4602 13.0951 86.4602 13.9264C86.4602 14.8654 86.7023 15.6164 87.1918 16.1642C87.6865 16.7129 88.3502 17.0849 89.1904 17.0849C89.8531 17.0849 90.5043 16.783 91.1441 16.3806C91.788 15.9711 92.8535 15.1561 94.0057 13.4234Z" fill="#9E9E9E"/>
<path d="M92.5455 18.487L96.9277 3.02707C96.9538 2.93256 96.9695 2.83704 96.981 2.73339C96.9976 2.63888 97.002 2.5403 97.002 2.46105C97.002 2.18566 96.93 1.99664 96.7933 1.88991C96.6544 1.79542 96.2568 1.74357 95.6077 1.74357H94.61L94.7644 1.03833C95.5222 1.00879 96.2765 0.922841 97.0208 0.781232C97.7138 0.638928 98.3775 0.456007 98.9922 0.217201H99.7843L96.7515 10.8958C98.3045 9.35413 99.7353 8.16108 101.037 7.30135C102.335 6.45686 103.372 6.02802 104.146 6.02802C104.554 6.02802 104.849 6.1225 105.045 6.31153C105.236 6.50664 105.34 6.80237 105.34 7.19972C105.34 7.32371 105.319 7.47105 105.281 7.64887C105.247 7.8328 105.2 8.03402 105.143 8.2505L102.93 15.5247C102.887 15.678 102.853 15.8333 102.827 15.9901C102.796 16.1531 102.781 16.3183 102.781 16.484C102.781 16.5775 102.827 16.6588 102.906 16.734C102.985 16.8051 103.082 16.9321 103.187 16.9321C103.403 16.9321 103.706 16.7004 104.085 16.4139C104.467 16.1273 104.868 15.735 105.292 15.2391L105.743 15.6161C104.981 16.5368 104.246 17.2461 103.541 17.7288C102.834 18.2166 102.181 18.4625 101.586 18.4625C101.196 18.4625 100.89 18.3691 100.665 18.1861C100.437 17.9992 100.328 17.7512 100.328 17.427C100.328 17.3132 100.338 17.1902 100.364 17.0592C100.387 16.9291 100.43 16.7878 100.484 16.6323L102.758 9.10919C102.799 8.94456 102.827 8.81853 102.841 8.73318C102.855 8.65085 102.859 8.56855 102.859 8.49944C102.859 8.30736 102.806 8.16103 102.691 8.05738C102.582 7.96186 102.424 7.91205 102.215 7.91205C101.891 7.91205 101.413 8.10819 100.784 8.50653C100.15 8.90389 99.4264 9.47195 98.5935 10.2067C97.8494 10.8571 97.2994 11.4109 96.954 11.8693C96.6085 12.3286 96.3559 12.8042 96.1994 13.2981L94.6913 18.4869C94.5191 18.4616 93.9096 18.4422 93.7322 18.431C93.5558 18.4189 93.8136 18.4189 93.631 18.4189C93.4463 18.4189 93.2615 18.4189 93.0831 18.431C92.9098 18.4423 92.7302 18.4616 92.5455 18.487ZM66.5181 22.7396V22.9408C66.5171 23.0445 66.5285 23.139 66.5578 23.2294C66.6204 23.4733 66.8239 23.5952 67.1714 23.5952C67.3008 23.5952 67.4177 23.5779 67.5231 23.5424C67.76 23.4723 67.8801 23.2985 67.8874 23.0272C67.8853 22.8412 67.8081 22.6959 67.6536 22.5943C67.543 22.5242 67.4125 22.4561 67.2612 22.3859L66.803 22.1837C66.6214 22.1055 66.4701 22.0252 66.3501 21.9419C66.0975 21.7701 65.9702 21.5252 65.9702 21.2041C65.9735 20.8525 66.1163 20.6045 66.395 20.4571C66.6037 20.3464 66.8875 20.2895 67.2518 20.2864C67.6943 20.2864 68.0147 20.3677 68.2099 20.5313C68.3654 20.6624 68.4436 20.9205 68.4436 21.3047V21.3768H67.8143V21.2905L67.8019 21.1035C67.7633 20.823 67.5765 20.6858 67.2425 20.6929C66.8188 20.6929 66.6048 20.8586 66.5996 21.1888C66.5996 21.3992 66.7332 21.5709 66.9972 21.703C67.1632 21.7874 67.3479 21.8697 67.5546 21.9551C67.7633 22.0384 67.9323 22.1187 68.0618 22.1949C68.3654 22.3758 68.5178 22.6461 68.5178 23.0109C68.5116 23.6684 68.0638 23.9997 67.1726 23.9997C66.7906 24.0049 66.4963 23.9418 66.2907 23.8158C66.0496 23.6654 65.9191 23.454 65.8983 23.1735L65.89 22.8839V22.7396L66.5181 22.7396ZM68.9384 21.5037C68.9405 21.2069 68.9697 20.9904 69.0229 20.8522C69.1085 20.6348 69.2932 20.4783 69.5792 20.3878C69.7858 20.3197 70.0082 20.2862 70.2471 20.2862C70.4819 20.2862 70.7042 20.3197 70.914 20.3878C71.1958 20.4783 71.3795 20.6348 71.4661 20.8522C71.5194 20.9874 71.5496 21.2069 71.5538 21.5037V22.714C71.5538 22.9315 71.5413 23.1215 71.5162 23.279C71.4463 23.7556 71.0288 23.9975 70.2649 23.9995C69.7107 23.9995 69.3392 23.8887 69.1503 23.6641C69.0063 23.4965 68.9353 23.1784 68.9384 22.714L68.9384 21.5037ZM69.5688 22.7099C69.5708 23.0138 69.5939 23.2129 69.6366 23.3013C69.6794 23.3908 69.7618 23.4639 69.8787 23.5168C69.9988 23.5686 70.1208 23.595 70.2471 23.595C70.3609 23.595 70.4715 23.5746 70.5759 23.529C70.7762 23.4518 70.8859 23.3135 70.9057 23.1154C70.916 23.0026 70.9213 22.8684 70.9234 22.7099V21.5006C70.9276 21.2384 70.8962 21.0534 70.8337 20.9478C70.7345 20.777 70.5373 20.6907 70.2471 20.6927C70.1334 20.6927 70.028 20.7088 69.9288 20.7466C69.7232 20.8147 69.6084 20.9559 69.5844 21.1663C69.5708 21.2618 69.5667 21.3736 69.5688 21.5006V22.7099ZM72.1236 20.3381H72.7519V22.7475L72.7581 23.0656C72.78 23.4162 72.9898 23.593 73.3864 23.5951C73.784 23.5951 74.0022 23.4304 74.0397 23.0992C74.0542 22.9833 74.0616 22.8664 74.0637 22.7475V20.3381H74.693V22.7861C74.6909 22.9863 74.6835 23.1408 74.6711 23.2516C74.6513 23.4193 74.5824 23.5595 74.4614 23.6723C74.2317 23.8908 73.8801 23.9975 73.4062 23.9995C72.9147 23.9975 72.5598 23.8918 72.3438 23.6784C72.2227 23.5565 72.1549 23.4152 72.1393 23.2516C72.1289 23.154 72.1236 23.0006 72.1236 22.7861L72.1236 20.3381ZM76.7091 20.3381C76.8541 20.3381 76.9877 20.3513 77.1088 20.3706C77.5732 20.4427 77.808 20.7303 77.8153 21.2374C77.8153 21.5037 77.7538 21.7028 77.6316 21.8441C77.5126 21.9752 77.2799 22.0636 76.9387 22.1114V22.1094C77.1516 22.1298 77.305 22.1612 77.3989 22.2039C77.5335 22.2689 77.6181 22.3746 77.6515 22.5179C77.6733 22.6124 77.6859 22.7252 77.6922 22.8522L77.7194 23.277C77.7297 23.4386 77.7475 23.5656 77.7716 23.6581C77.7852 23.7241 77.8154 23.8207 77.8645 23.9477H77.2091L77.1454 23.717C77.1276 23.652 77.1161 23.5687 77.111 23.4681L77.0858 23.1439L77.0648 22.8055C77.0355 22.5474 76.9072 22.3908 76.6807 22.34C76.5858 22.3207 76.472 22.3106 76.352 22.3106H75.9168V23.9477H75.2854V20.3381H76.7091ZM75.9169 20.7445V21.9031H76.3668C76.5014 21.9031 76.6141 21.895 76.7153 21.8806C76.9073 21.8511 77.0409 21.7759 77.115 21.654C77.1631 21.5737 77.186 21.4406 77.186 21.2536C77.186 21.0533 77.1161 20.9131 76.9752 20.8359C76.8729 20.7769 76.684 20.7465 76.4022 20.7444L75.9169 20.7445ZM80.1834 21.2902L80.1801 21.1225C80.1644 20.8338 79.9891 20.6906 79.651 20.6926C79.3504 20.6936 79.1553 20.7698 79.0645 20.9202C79.0144 20.9924 78.9873 21.0676 78.982 21.1418L78.9767 21.4385V22.8633C78.9788 23.1214 79.0048 23.288 79.0529 23.3612C79.1572 23.5167 79.3367 23.5949 79.5924 23.5949C79.9253 23.5929 80.1153 23.4394 80.157 23.1336L80.1831 22.9008V22.7769H80.8124V22.9029L80.8071 23.1285C80.7861 23.3978 80.6933 23.6041 80.5222 23.7484C80.4188 23.8368 80.2957 23.8978 80.1558 23.9333C79.9888 23.978 79.8083 23.9994 79.6111 23.9994C79.4489 24.0025 79.2868 23.9882 79.1278 23.9567C78.6091 23.8622 78.3493 23.5258 78.3461 22.9446V21.5066C78.3451 21.3491 78.3535 21.2048 78.3764 21.0696C78.3995 20.905 78.4557 20.7668 78.5455 20.659C78.7458 20.4151 79.1059 20.2901 79.6246 20.2861C80.35 20.2901 80.7413 20.5147 80.7966 20.9578C80.807 21.0432 80.8123 21.1377 80.8123 21.2424V21.3826H80.183L80.1834 21.2902ZM81.3617 20.3381H83.4208V20.7445H81.991V21.8888H83.332V22.2953H81.991V23.5402H83.4604V23.9477H81.3617V20.3381ZM85.0925 21.5037C85.0936 21.2069 85.1206 20.9904 85.176 20.8522C85.2595 20.6348 85.4453 20.4783 85.7312 20.3878C85.9379 20.3197 86.1602 20.2862 86.3992 20.2862C86.634 20.2862 86.8573 20.3197 87.0681 20.3878C87.3478 20.4783 87.5326 20.6348 87.6202 20.8522C87.6735 20.9874 87.7027 21.2069 87.7069 21.5037V22.714C87.7069 22.9315 87.6944 23.1215 87.6714 23.279C87.5973 23.7556 87.183 23.9975 86.4169 23.9995C85.8617 23.9995 85.4902 23.8887 85.3034 23.6641C85.1593 23.4965 85.0894 23.1784 85.0925 22.714V21.5037ZM85.7208 22.7099C85.7241 23.0138 85.7468 23.2129 85.7907 23.3013C85.8335 23.3908 85.9139 23.4639 86.0318 23.5168C86.1508 23.5686 86.2739 23.595 86.3992 23.595C86.515 23.595 86.6236 23.5746 86.73 23.529C86.9273 23.4518 87.0368 23.3135 87.0567 23.1154C87.0682 23.0026 87.0744 22.8684 87.0756 22.7099V21.5006C87.0798 21.2384 87.0496 21.0534 86.9869 20.9478C86.8867 20.777 86.6894 20.6907 86.3993 20.6927C86.2856 20.6927 86.1812 20.7088 86.0821 20.7466C85.8764 20.8147 85.7617 20.9559 85.7387 21.1663C85.7242 21.2618 85.7189 21.3736 85.7209 21.5006L85.7208 22.7099ZM90.2871 20.3381V20.7445H88.9106V21.8858H90.2351V22.2913H88.9106V23.9477H88.2802V20.3381H90.2871ZM92.381 22.7396V22.9408C92.3778 23.0445 92.3893 23.139 92.4186 23.2294C92.4812 23.4733 92.6868 23.5952 93.0312 23.5952C93.1606 23.5952 93.2786 23.5779 93.385 23.5424C93.6198 23.4723 93.7409 23.2985 93.7493 23.0272C93.7472 22.8412 93.671 22.6959 93.5155 22.5943C93.4049 22.5242 93.2734 22.4561 93.122 22.3859L92.6639 22.1837C92.4833 22.1055 92.332 22.0252 92.2088 21.9419C91.9594 21.7701 91.8321 21.5252 91.8321 21.2041C91.8374 20.8525 91.9772 20.6045 92.2579 20.4571C92.4645 20.3464 92.7505 20.2895 93.1126 20.2864C93.5552 20.2864 93.8745 20.3677 94.0728 20.5313C94.2283 20.6624 94.3045 20.9205 94.3045 21.3047V21.3768H93.6762V21.2905L93.6638 21.1035C93.6241 20.823 93.4384 20.6858 93.1034 20.6929C92.6776 20.6929 92.4667 20.8586 92.4605 21.1888C92.4605 21.3992 92.5951 21.5709 92.8591 21.703C93.023 21.7874 93.2098 21.8697 93.4165 21.9551C93.6241 22.0384 93.7943 22.1187 93.9247 22.1949C94.2263 22.3758 94.3797 22.6461 94.3797 23.0109C94.3723 23.6684 93.9247 23.9997 93.0345 23.9997C92.6515 24.0049 92.3572 23.9418 92.1526 23.8158C91.9105 23.6654 91.78 23.454 91.7612 23.1735L91.7508 22.8839V22.7396L92.381 22.7396ZM94.8232 20.3381H95.4514V22.7475L95.4568 23.0656C95.4786 23.4162 95.6905 23.593 96.085 23.5951C96.4827 23.5951 96.7008 23.4304 96.7394 23.0992C96.752 22.9823 96.7593 22.865 96.7613 22.7475V20.3381H97.3917V22.7861C97.3896 22.9863 97.3822 23.1408 97.3677 23.2516C97.3511 23.4193 97.2811 23.5595 97.161 23.6723C96.9294 23.8908 96.5766 23.9975 96.1049 23.9995C95.6133 23.9975 95.2575 23.8918 95.0404 23.6784C94.9214 23.5565 94.8535 23.4152 94.8379 23.2516C94.8284 23.154 94.8234 23.0006 94.8234 22.7861L94.8232 20.3381ZM99.8432 21.2902L99.84 21.1225C99.8255 20.8338 99.6469 20.6906 99.3088 20.6926C99.0092 20.6936 98.8151 20.7698 98.7233 20.9202C98.6742 20.9924 98.6471 21.0676 98.6408 21.1418L98.6355 21.4385V22.8633C98.6387 23.1214 98.6636 23.288 98.7148 23.3612C98.816 23.5167 98.9966 23.5949 99.2513 23.5949C99.5852 23.5929 99.7741 23.4394 99.8179 23.1336L99.8431 22.9008V22.7769H100.472V22.9029L100.466 23.1285C100.448 23.3978 100.351 23.6041 100.181 23.7484C100.077 23.8368 99.9548 23.8978 99.815 23.9333C99.6469 23.978 99.4664 23.9994 99.2712 23.9994C99.1011 24.0026 98.9404 23.9873 98.788 23.9567C98.2693 23.8622 98.0095 23.5258 98.0084 22.9446V21.5066C98.0052 21.3491 98.0146 21.2048 98.0365 21.0696C98.0575 20.905 98.1127 20.7668 98.2046 20.659C98.406 20.4151 98.765 20.2901 99.2847 20.2861C100.011 20.2901 100.402 20.5147 100.457 20.9578C100.467 21.0523 100.472 21.1473 100.472 21.2424V21.3826H99.8431L99.8432 21.2902ZM102.882 21.2902L102.879 21.1225C102.863 20.8338 102.689 20.6906 102.349 20.6926C102.048 20.6936 101.854 20.7698 101.762 20.9202C101.712 20.9924 101.685 21.0676 101.682 21.1418L101.675 21.4385V22.8633C101.677 23.1214 101.704 23.288 101.752 23.3612C101.856 23.5167 102.036 23.5949 102.29 23.5949C102.625 23.5929 102.813 23.4394 102.856 23.1336L102.882 22.9008V22.7769H103.511V22.9029L103.506 23.1285C103.485 23.3978 103.39 23.6041 103.221 23.7484C103.118 23.8368 102.995 23.8978 102.854 23.9333C102.689 23.978 102.505 23.9994 102.309 23.9994C102.147 24.0026 101.985 23.9883 101.827 23.9567C101.308 23.8622 101.048 23.5258 101.045 22.9446V21.5066C101.042 21.3603 101.052 21.2141 101.075 21.0696C101.097 20.905 101.152 20.7668 101.242 20.659C101.444 20.4151 101.805 20.2901 102.324 20.2861C103.05 20.2901 103.44 20.5147 103.496 20.9578C103.506 21.0432 103.511 21.1377 103.511 21.2424V21.3826H102.882L102.882 21.2902ZM104.06 20.3381H106.118V20.7445H104.689V21.8888H106.029V22.2953H104.689V23.5402H106.159V23.9477H104.06V20.3381ZM107.083 22.7396V22.9408C107.081 23.0445 107.094 23.139 107.123 23.2294C107.185 23.4733 107.389 23.5952 107.734 23.5952C107.864 23.5952 107.983 23.5779 108.088 23.5424C108.323 23.4723 108.445 23.2985 108.455 23.0272C108.45 22.8412 108.373 22.6959 108.219 22.5943C108.108 22.5242 107.977 22.4561 107.825 22.3859L107.368 22.1837C107.187 22.1055 107.035 22.0252 106.914 21.9419C106.664 21.7701 106.536 21.5252 106.536 21.2041C106.54 20.8525 106.68 20.6045 106.961 20.4571C107.168 20.3464 107.453 20.2895 107.817 20.2864C108.259 20.2864 108.579 20.3677 108.777 20.5313C108.931 20.6624 109.009 20.9205 109.009 21.3047V21.3768H108.379V21.2905L108.367 21.1035C108.328 20.823 108.141 20.6858 107.807 20.6929C107.384 20.6929 107.169 20.8586 107.165 21.1888C107.165 21.3992 107.298 21.5709 107.561 21.703C107.726 21.7874 107.913 21.8697 108.121 21.9551C108.328 22.0384 108.496 22.1187 108.628 22.1949C108.93 22.3758 109.084 22.6461 109.084 23.0109C109.077 23.6684 108.63 23.9997 107.738 23.9997C107.354 24.0049 107.061 23.9418 106.857 23.8158C106.614 23.6654 106.483 23.454 106.465 23.1735L106.454 22.8839V22.7396L107.083 22.7396ZM110.001 22.7396V22.9408C109.998 23.0445 110.011 23.139 110.039 23.2294C110.102 23.4733 110.307 23.5952 110.652 23.5952C110.782 23.5952 110.899 23.5779 111.003 23.5424C111.24 23.4723 111.361 23.2985 111.371 23.0272C111.367 22.8412 111.289 22.6959 111.135 22.5943C111.025 22.5242 110.893 22.4561 110.741 22.3859L110.285 22.1837C110.104 22.1055 109.952 22.0252 109.831 21.9419C109.579 21.7701 109.452 21.5252 109.452 21.2041C109.456 20.8525 109.598 20.6045 109.877 20.4571C110.085 20.3464 110.369 20.2895 110.734 20.2864C111.178 20.2864 111.495 20.3677 111.692 20.5313C111.847 20.6624 111.927 20.9205 111.927 21.3047V21.3768H111.298V21.2905L111.283 21.1035C111.245 20.823 111.058 20.6858 110.723 20.6929C110.301 20.6929 110.086 20.8586 110.082 21.1888C110.082 21.3992 110.213 21.5709 110.48 21.703C110.643 21.7874 110.83 21.8697 111.037 21.9551C111.245 22.0384 111.413 22.1187 111.543 22.1949C111.847 22.3758 112 22.6461 112 23.0109C111.993 23.6684 111.545 23.9997 110.655 23.9997C110.273 24.0049 109.979 23.9418 109.774 23.8158C109.53 23.6654 109.4 23.454 109.381 23.1735L109.37 22.8839V22.7396L110.001 22.7396Z" fill="#9E9E9E"/>
</svg>
