<svg width="96" height="108" viewBox="0 0 96 108" fill="none" xmlns="http://www.w3.org/2000/svg">
<path fill-rule="evenodd" clip-rule="evenodd" d="M8.52638 96.7606L5.93094 104.297L3.27489 96.7606H0L4.04902 107.779H7.64546L11.7181 96.7606H8.52638ZM28.3501 102.283C28.3501 101.892 28.4271 101.505 28.5768 101.144C28.7264 100.783 28.9458 100.455 29.2223 100.178C29.4988 99.9019 29.827 99.6827 30.1883 99.5331C30.5495 99.3836 30.9367 99.3068 31.3277 99.3069C32.1172 99.3069 32.8744 99.6206 33.4327 100.179C33.991 100.737 34.3047 101.494 34.3047 102.284C34.3047 103.073 33.991 103.831 33.4327 104.389C32.8744 104.947 32.1172 105.261 31.3277 105.261C30.9366 105.261 30.5494 105.184 30.1881 105.034C29.8268 104.885 29.4985 104.665 29.222 104.389C28.9455 104.112 28.7262 103.784 28.5766 103.423C28.427 103.062 28.35 102.674 28.3501 102.283ZM34.1811 92.2642V97.6761C34.1748 97.6727 34.1708 97.6681 34.1656 97.664C33.2615 96.9978 32.1514 96.5805 30.9553 96.5805C27.909 96.5805 25.4383 99.1228 25.4383 102.264C25.4383 105.404 27.909 107.949 30.9553 107.949C32.1183 107.949 33.2501 107.573 34.1811 106.876V107.797H37.0133V92.2654H34.1811V92.2642ZM41.8226 102.283C41.8226 101.892 41.8996 101.505 42.0492 101.144C42.1989 100.783 42.4182 100.455 42.6948 100.178C42.9713 99.9019 43.2995 99.6827 43.6608 99.5331C44.022 99.3836 44.4092 99.3068 44.8002 99.3069C45.5898 99.3068 46.3472 99.6202 46.9058 100.178C47.4644 100.737 47.7785 101.494 47.7789 102.283C47.7636 103.063 47.443 103.806 46.8862 104.352C46.3293 104.898 45.5806 105.203 44.8007 105.203C44.0209 105.203 43.2721 104.898 42.7153 104.352C42.1584 103.806 41.8379 103.063 41.8226 102.283ZM47.6554 96.7721V97.6761C47.649 97.6727 47.6438 97.6681 47.6392 97.664C46.734 96.9978 45.6251 96.5805 44.4284 96.5805C41.3821 96.5805 38.9125 99.1228 38.9125 102.264C38.9125 105.404 41.3821 107.949 44.4284 107.949C45.5917 107.949 46.7236 107.573 47.6554 106.876V107.797H50.4858V96.7727H47.6554V96.7721ZM58.2057 96.7721H56.5108C56.5108 96.7721 56.5027 96.4194 56.5027 96.1037C56.5027 95.4046 56.5027 94.5162 57.6146 94.5162C57.9009 94.5162 58.1774 94.5647 58.1774 94.5647V92.001C58.1774 92.001 57.7115 91.9895 57.3929 92.001C54.7894 92.1038 53.6429 92.9933 53.6429 95.5957V96.7727H52.3769V99.3127H53.6429V107.779H56.5114V99.3127H58.2063V96.7721H58.2057ZM75.3514 97.7327C76.1573 96.999 77.3303 96.543 78.5928 96.543C81.1871 96.543 82.6741 98.1957 82.6845 100.377L82.6857 101.614V107.78H79.7612V101.346C79.7612 99.7295 78.6338 99.2359 77.7396 99.2359C76.9199 99.2359 75.3479 99.6891 75.4351 101.666L75.4362 102.395V107.78H72.5071V96.7716H75.352V97.7327H75.3514ZM87.6272 103.139C87.7646 104.524 88.9237 105.532 90.3398 105.532C91.4603 105.532 92.2004 105.089 92.6397 104.287H95.6998C95.2126 106.004 93.2822 107.943 90.4391 107.943C87.0182 107.943 84.6057 105.397 84.6057 102.252C84.6057 99.1101 87.1919 96.562 90.4391 96.562C93.6897 96.562 96 99.3312 96 102.252C96 102.861 95.9313 103.135 95.9313 103.135L87.6272 103.139ZM92.9098 101.009C92.6639 99.7595 91.6156 99.0391 90.3404 99.0391C89.0259 99.0391 87.9972 99.8045 87.7011 101.002L92.9098 101.009ZM20.0812 96.9286C19.5616 97.0414 19.0962 97.3283 18.7621 97.7419C18.428 98.1555 18.2453 98.6708 18.2443 99.2024C18.2443 99.2272 18.2506 99.2555 18.2512 99.2781C19.9074 99.6308 20.7416 100.746 20.7416 102.218C20.7416 103.874 19.3896 105.212 17.7357 105.212C16.0818 105.212 14.537 103.833 14.537 101.788C14.537 99.2919 16.6781 96.9488 19.7279 96.8755C19.7833 96.8743 19.8699 96.8755 19.9594 96.8801C19.2679 96.6182 18.5345 96.4844 17.7951 96.4852C14.5226 96.4852 11.8688 99.0523 11.8688 102.218C11.8688 105.386 14.522 107.951 17.7951 107.951C21.0677 107.951 23.7203 105.386 23.7203 102.218C23.7215 99.8351 22.2188 97.7933 20.0812 96.9286ZM64.7711 96.5343C61.4991 96.5343 58.8447 99.1003 58.8447 102.268C58.8447 104.649 60.3468 106.693 62.4856 107.558C63.0051 107.444 63.4702 107.157 63.8042 106.743C64.1382 106.329 64.321 105.813 64.3225 105.282C64.3225 105.259 64.3167 105.231 64.3144 105.207C62.6594 104.856 61.8252 103.738 61.8252 102.268C61.8252 100.615 63.176 99.274 64.8299 99.274C66.4827 99.274 68.0286 100.654 68.0286 102.696C68.0286 105.194 65.8875 107.536 62.8366 107.609C62.7823 107.612 62.6957 107.609 62.6068 107.605C63.2776 107.86 64.0085 108 64.7716 108C68.0448 108 70.6991 105.434 70.6991 102.268C70.698 99.1003 68.0442 96.5343 64.7711 96.5343ZM65.6716 3.40935C57.5909 5.17694 51.5035 12.3674 51.5035 20.9727C51.5035 21.1586 51.552 21.3791 51.5555 21.5633C64.3335 24.2811 70.777 32.8922 70.777 44.2505C70.777 57.0116 60.3399 67.3563 47.5798 67.3563C34.8162 67.3563 22.8977 56.712 22.8977 40.9266C22.8977 21.6568 39.4159 3.57906 62.9567 3.00757C63.3815 2.99776 64.0558 3.01276 64.7416 3.04451C59.5686 1.08007 53.9321 0 48.0387 0C22.7782 0 2.29872 19.8124 2.29872 44.2505C2.29872 68.688 22.7782 88.4987 48.0387 88.4987C73.298 88.4987 93.7758 68.688 93.7758 44.2505C93.7758 25.8587 82.1771 10.0889 65.6716 3.40935Z" fill="#9E9E9E"/>
</svg>
