<svg width="124" height="30" viewBox="0 0 124 30" fill="none" xmlns="http://www.w3.org/2000/svg">
<path fill-rule="evenodd" clip-rule="evenodd" d="M30.8694 30V27.8654H0V30H30.8694Z" fill="#9E9E9E"/>
<path fill-rule="evenodd" clip-rule="evenodd" d="M30.8694 27.8654V30H61.7382V27.8654H30.8694Z" fill="#9E9E9E"/>
<path fill-rule="evenodd" clip-rule="evenodd" d="M92.5433 27.8654V30H123.56V27.8654H92.5433Z" fill="#9E9E9E"/>
<path fill-rule="evenodd" clip-rule="evenodd" d="M92.5433 30V27.8654H61.7382V30H92.5433Z" fill="#9E9E9E"/>
<path fill-rule="evenodd" clip-rule="evenodd" d="M20.51 0.934671H17.6368V17.1947L0.147139 0.284577V23.5158H3.02033V7.05274L20.51 24.0239V0.934671ZM36.6781 3.5768V0.934671H24.62V23.5158H36.6781V20.9546H27.4932V12.4796H36.3845V9.97945H27.4932V3.5768H36.6781ZM53.3705 3.5768V0.934671H39.1106V3.5768H44.7728V23.5158H47.7083V3.5768H53.3705ZM56.2225 12.2554C56.2225 9.73534 57.1033 7.60069 58.8862 5.85341C60.6897 4.04445 62.8709 3.1297 65.4286 3.15025C68.2183 3.1297 69.8958 3.59735 70.4824 4.49155V1.42288C69.6658 0.813257 68.0705 0.508126 65.7222 0.508126C62.283 0.508126 59.3681 1.62588 56.9774 3.86202C54.5655 6.17846 53.3705 9.00431 53.3705 12.3376C53.3705 15.6099 54.5449 18.3741 56.8939 20.67C59.3051 22.8856 62.1571 24.0033 65.4922 24.0239L68.5126 23.659L70.483 22.9479V19.8176C69.8541 20.7522 68.1553 21.2404 65.4293 21.2404C62.8285 21.2404 60.6486 20.3662 58.8869 18.5983C57.1033 16.8896 56.2225 14.7761 56.2225 12.2554ZM124 3.5768V0.934671H109.739V3.5768H115.402V23.5158H118.274V3.5768H124ZM102.463 0.365517C100.226 0.191431 98.3739 0.914112 96.9476 1.99203C95.4384 3.1297 94.6835 4.67463 94.6835 6.62556C94.6629 8.25143 95.2283 9.57281 96.361 10.6295L100.198 12.7635L103.931 14.613C105.105 15.3646 105.692 16.3005 105.692 17.3971C105.692 19.8664 102.646 21.3805 100.407 21.3805C99.5682 21.3805 97.8079 20.8524 95.1229 19.8156V22.946C97.5554 23.6571 99.1693 24.0027 99.9672 24.0226C102.568 24.0027 104.622 23.4946 106.133 22.4578C107.894 21.2584 108.775 19.5304 108.796 17.2545C108.776 15.5271 108.188 14.1036 107.014 12.9659C106.239 12.1526 104.981 11.3805 103.281 10.6283L99.5278 8.83986C98.3951 8.12874 97.8298 7.29492 97.8298 6.3397C97.8298 4.1209 100.508 2.79823 102.547 3.06675C104.227 3.28837 105.936 3.6815 107.475 4.28599V1.29184C106.245 0.808763 103.163 0.42012 102.463 0.365517ZM88.2869 17.8859L90.9288 23.5158H94.0108L82.9183 0L71.7404 23.5158H74.9065L77.5497 17.8859H88.2869ZM78.7242 15.2637L82.9183 6.19901L87.0283 15.2637H78.7242Z" fill="#9E9E9E"/>
</svg>
