<svg width="124" height="35" viewBox="0 0 124 35" fill="none" xmlns="http://www.w3.org/2000/svg">
<path d="M33.9944 23.825C32.7114 23.7523 31.4643 23.3669 30.3579 22.7013C29.2516 22.0357 28.3183 21.1093 27.6365 20C28.4588 13.325 30.8523 11.25 34.019 11.25C37.1857 11.25 39.5914 13.75 39.5914 17.5C39.5914 21.25 37.1366 23.75 34.019 23.75M34.019 7.07504C31.7842 6.98281 29.5887 7.69343 27.8162 9.08266C26.0438 10.4719 24.8071 12.4514 24.3225 14.675C23.2718 12.4333 22.477 10.0762 21.9536 7.65004H14.135V17.525C14.135 21.1125 12.5394 23.775 9.40952 23.775C6.27964 23.775 4.49991 21.125 4.49991 17.525V7.65004H0.00760602V17.525C-0.094348 20.2615 0.831802 22.9346 2.59743 25C3.45924 25.9556 4.51199 26.7122 5.68488 27.2189C6.85778 27.7256 8.12361 27.9706 9.39725 27.9375C14.8101 27.9375 18.6028 23.7 18.6028 17.6375V10.9625C19.522 14.5544 21.0417 17.9583 23.0951 21.025L20.6894 35H25.2553L26.8387 25.1C27.3628 25.5596 27.9209 25.9775 28.5079 26.35C30.0333 27.3311 31.7865 27.8831 33.5894 27.95H34.0067C35.3479 27.9642 36.6779 27.7019 37.9169 27.1789C39.1559 26.6559 40.2782 25.883 41.2162 24.9067C42.1542 23.9304 42.8885 22.7709 43.375 21.498C43.8615 20.2252 44.09 18.8652 44.0469 17.5C44.0782 16.1399 43.8407 14.7872 43.3484 13.5223C42.8562 12.2575 42.1193 11.1064 41.1816 10.1374C40.2438 9.16837 39.1243 8.40124 37.8896 7.88161C36.655 7.36197 35.3303 7.10043 33.9944 7.11254" fill="#9E9E9E"/>
<path d="M98.5801 9.82499V7.72499H94.1614V27.2625H98.6415V19.6125C98.6415 14.9 99.0588 11.5125 105.269 11.95V7.49999C102.373 7.27499 100.114 7.88749 98.5801 9.83749" fill="#9E9E9E"/>
<path d="M67.5388 7.71245L64.2985 21.3874L60.8372 7.71245H55.142L51.6807 21.3874L48.4404 7.71245H43.9113L48.8823 27.2749H54.2583L57.9896 13.3874L61.6841 27.2749H67.0601L72.3134 7.71245H67.5388Z" fill="#9E9E9E"/>
<path d="M82.1574 23.8375C78.9785 23.8375 76.5973 21.275 76.5973 17.5875C76.5973 13.9 79.0521 11.3375 82.1574 11.3375C85.2628 11.3375 87.779 13.75 87.779 17.5C87.779 21.25 85.3241 23.75 82.2065 23.75M82.2065 7.06249C80.8634 7.04326 79.5303 7.30142 78.2879 7.82138C77.0454 8.34135 75.9193 9.11234 74.9775 10.0878C74.0358 11.0633 73.2978 12.223 72.8084 13.4969C72.3189 14.7709 72.088 16.1326 72.1295 17.5C72.0824 18.872 72.3071 20.2396 72.7901 21.5213C73.2731 22.803 74.0047 23.9725 74.9411 24.9601C75.8775 25.9477 76.9996 26.7331 78.2404 27.2695C79.4813 27.806 80.8155 28.0824 82.1636 28.0824C83.5116 28.0824 84.8458 27.806 86.0867 27.2695C87.3276 26.7331 88.4497 25.9477 89.3861 24.9601C90.3225 23.9725 91.054 22.803 91.537 21.5213C92.0201 20.2396 92.2447 18.872 92.1976 17.5C92.2306 16.1404 91.9946 14.788 91.5038 13.5232C91.0129 12.2585 90.2772 11.1072 89.3404 10.138C88.4036 9.16882 87.2849 8.40149 86.0509 7.88171C84.8169 7.36194 83.4928 7.10034 82.1574 7.11249" fill="#9E9E9E"/>
<path d="M111.677 17.6625H112.708L118.955 27.275H124L116.82 16.6125C118.547 15.8873 120.022 14.6546 121.059 13.0717C122.095 11.4888 122.645 9.6274 122.638 7.72499H118.182C118.182 11.9375 114.917 13.5375 111.677 13.5375V0H107.197V27.275H111.665L111.677 17.6625Z" fill="#9E9E9E"/>
</svg>
