<svg width="126" height="30" viewBox="0 0 126 30" fill="none" xmlns="http://www.w3.org/2000/svg">
<g clip-path="url(#clip0_397_1546)">
<path d="M126 6.30109H125.404V4.83167L124.809 5.80149H124.511L124.213 4.83167V6.30109H123.618V3.80307H124.213L124.809 5.15494L125.404 3.80307H126V6.30109ZM123.32 4.2439H122.725V6.30109H122.129V4.2439H121.534V3.80307H123.32V4.2439ZM120.045 13.5013H118.259V7.85868L116.175 11.5322H114.984L113.198 7.85868V13.5013H111.114V3.80307H113.198L115.58 9.03422L118.259 3.80307H120.045V13.5013ZM108.434 13.5013H106.35L105.755 11.7967H102.48L101.885 13.5013H99.8006L103.373 3.80307H104.862L108.434 13.5013ZM105.457 10.1804L104.266 6.65375L103.076 10.1804H105.457ZM96.8235 13.5013H90.2737V3.80307H96.8235V5.47822H92.3577V7.77052H96.228V9.44566H92.3577V11.8261H96.8235V13.5013ZM87.2965 5.47822H84.9148V13.5013H82.8308V5.47822H80.1513V3.80307H87.2965V5.47822ZM77.7696 10.6506C77.7696 12.649 75.9833 13.56 74.197 13.5894C72.4107 13.5894 71.2198 13.178 70.6244 12.2963L71.8152 11.0914C72.4107 11.6204 73.0061 11.9143 74.197 11.9143C75.3878 11.9143 75.9833 11.5028 75.9833 10.7094C75.9833 9.97465 75.3878 9.65138 74.7924 9.53382L73.6015 9.38688C71.8152 9.15177 70.9221 8.24073 70.9221 6.65375C70.9221 5.7721 71.2198 5.06678 71.8152 4.5084C72.4107 3.9794 73.3038 3.71491 74.197 3.71491C75.6856 3.71491 76.5787 4.09696 77.4719 4.83167L76.281 6.0366C75.6856 5.59577 75.0901 5.36066 74.197 5.36066C73.3038 5.41944 72.7084 5.74271 72.7084 6.59498C72.7084 7.27091 73.3038 7.59418 73.8993 7.65296L75.0901 7.82929C76.5787 8.00562 77.7696 9.00483 77.7696 10.6506ZM62.586 8.88728C62.586 11.5322 60.2043 13.6776 57.5248 13.6776C54.8454 13.6776 52.7614 11.5322 52.7614 8.88728C52.7614 6.2717 54.8454 4.12635 57.5248 4.12635C60.2043 4.12635 62.586 6.2717 62.586 8.88728ZM57.5248 0.0119629C52.7614 0.0119629 48.5933 3.95002 48.5933 8.85789L42.9367 16.8222C42.639 16.7925 42.639 16.7634 42.3413 16.7634C41.1504 16.7634 39.9595 17.116 38.7687 17.7038L13.3437 7.59418C12.6589 4.59656 9.94969 2.36304 6.73435 2.36304C3.04267 2.36304 0 5.36066 0 9.03422C0 12.6784 3.04267 15.676 6.73435 15.676C8.01483 15.676 9.17563 15.3527 10.1882 14.7356L35.7918 24.8452C36.3872 27.931 39.0667 29.9882 42.3416 29.9882C45.6165 29.9882 48.5936 27.3432 48.8914 24.0811L57.5251 17.8508C62.5863 17.8508 66.7544 13.8539 66.7544 8.91666C66.7541 4.00879 62.586 0.0119629 57.5248 0.0119629ZM57.5248 2.95081C61.0974 2.95081 63.7769 5.62516 63.7769 8.91666C63.7769 12.2376 61.0974 14.9119 57.5248 14.9119C54.25 14.9119 51.5705 12.2376 51.5705 8.91666C51.5705 5.62516 54.25 2.95081 57.5248 2.95081ZM6.73435 4.12635C8.63974 4.12635 10.307 5.15494 11.1409 6.71253L8.66951 5.74271C6.67481 5.03739 4.47171 6.00721 3.66787 7.94685C2.89381 9.91587 3.78696 12.12 5.72212 12.9723L7.80613 13.7951C7.47835 13.8833 7.12139 13.9127 6.73406 13.9127C3.99536 13.9127 1.79196 11.738 1.79196 9.03422C1.79226 6.30109 3.99536 4.12635 6.73435 4.12635ZM42.3413 18.5267C45.0207 18.5267 47.1048 20.7308 47.1048 23.4346C47.1048 26.1677 45.0207 28.2249 42.3413 28.2249C40.2573 28.2249 38.7687 27.3432 37.8755 25.7269C38.7687 26.1677 39.3641 26.4616 40.2573 26.7555C42.3413 27.6371 44.4253 26.4616 45.3185 24.5807C45.9139 22.7589 45.3185 20.2609 43.2344 19.4674L41.1504 18.6445C41.4481 18.5855 42.0436 18.5267 42.3413 18.5267Z" fill="#9E9E9E"/>
</g>
<defs>
<clipPath id="clip0_397_1546">
<rect width="126" height="30" fill="white"/>
</clipPath>
</defs>
</svg>
