<svg width="120" height="56" viewBox="0 0 120 56" fill="none" xmlns="http://www.w3.org/2000/svg">
<g clip-path="url(#clip0_397_1543)">
<path d="M59.628 0.0122988C63.3306 -0.071393 67.0661 1.01721 70.1118 3.16634C73.368 5.41945 75.8423 8.81084 77.006 12.6311C78.1886 16.4594 78.0653 20.6902 76.6483 24.4361C75.0738 28.6621 71.86 32.2324 67.8498 34.1945C64.4461 35.9069 60.4886 36.4315 56.7616 35.7104C52.681 34.9469 48.903 32.6532 46.2998 29.3802C43.7327 26.204 42.2779 22.1049 42.3298 17.9939C42.2916 14.2682 43.4861 10.5542 45.6244 7.53194C48.7925 2.98149 54.1364 0.109115 59.628 0.0122988ZM55.056 4.41091C52.1818 5.49769 49.6635 7.54234 48.0101 10.1651C46.1266 13.0788 45.3848 16.6892 45.8396 20.1348C47.1291 17.291 48.7577 14.5592 50.9832 12.3653C53.0428 10.1996 55.6139 8.60065 58.3243 7.41493C57.8029 6.96387 57.2835 6.5127 56.774 6.05133C59.6842 5.51647 62.7629 5.75392 65.5136 6.88593C63.719 8.81972 61.8754 10.7327 60.4202 12.9516C60.216 11.9996 60.0281 11.042 59.8219 10.0908C57.5845 11.6167 55.9997 13.977 55.0923 16.5275C53.8291 20.1035 53.6051 24.0329 54.3223 27.7542C55.6563 27.5452 56.9822 27.2212 58.2254 26.68C61.15 25.4557 63.4587 23.0608 64.9842 20.2884C63.9979 20.3154 63.0136 20.4094 62.0272 20.4526C63.9754 18.318 65.7298 15.9785 67.0459 13.3864C68.5574 15.8818 69.7846 18.5415 70.8477 21.2627C70.0555 21.0143 69.2609 20.7706 68.4605 20.5507C68.5616 23.9204 68.2846 27.3135 67.3708 30.5659C71.0819 28.3695 73.6915 24.3916 74.2755 20.0757C74.704 17.053 74.1501 13.8949 72.7213 11.209C70.9609 7.81128 67.8076 5.2028 64.184 4.10997C61.2147 3.19703 57.9586 3.30778 55.056 4.41091ZM33.7282 46.1291C34.3647 44.9825 35.6426 44.3184 36.916 44.2691C38.3674 44.1995 39.8205 44.2567 41.2739 44.2386C41.2739 45.0753 41.2739 45.9118 41.2718 46.7506C40.0245 46.7527 38.7755 46.7461 37.5264 46.7485C36.9566 46.7421 36.3277 46.8937 35.9761 47.3877C35.5925 47.8923 35.6688 48.5668 35.6606 49.1653C35.6849 50.1153 35.6283 51.0646 35.683 52.0141C35.7231 52.6514 36.1156 53.308 36.7661 53.4535C37.5021 53.5907 38.2577 53.5092 39.002 53.4759C38.9996 52.7563 38.9996 52.0361 39.002 51.3169C38.5287 51.3129 38.0557 51.3111 37.5826 51.3089C37.5847 50.5772 37.5847 49.8429 37.5847 49.1106C38.8824 49.1086 40.178 49.1086 41.4737 49.1086C41.4633 51.161 41.5038 53.2136 41.4533 55.2642C40.1314 56.2442 38.4433 55.9326 36.9178 55.98C35.5007 56.0109 34.1283 55.127 33.5447 53.8163C32.9784 52.6233 33.1686 51.2697 33.1381 49.9901C33.1339 48.6898 33.0553 47.2935 33.7282 46.1291ZM79.9434 45.8806C80.6101 44.8635 81.8069 44.3205 82.9889 44.2673C84.4421 44.1995 85.8992 44.2568 87.3569 44.2384C87.3569 45.0751 87.3569 45.9116 87.3547 46.7504C86.0389 46.7583 84.7228 46.7339 83.4075 46.7561C82.771 46.7625 82.0571 47.0721 81.8534 47.7343C81.5641 48.7272 81.75 49.7768 81.6938 50.7978C81.6835 51.6817 81.6328 52.8379 82.5185 53.3341C83.3247 53.6744 84.2366 53.4923 85.0873 53.4659C85.0811 52.7483 85.083 52.0326 85.0851 51.3169C84.6121 51.3129 84.139 51.3108 83.666 51.3089C83.6681 50.5772 83.6681 49.8429 83.6681 49.1106C84.9656 49.1086 86.2613 49.1086 87.5567 49.1106C87.5649 51.1387 87.5488 53.1664 87.567 55.1965C86.2734 56.2589 84.5534 55.9326 83.0212 55.9819C81.5942 56.0251 80.1975 55.1471 79.6138 53.8267C79.0234 52.6311 79.2724 51.2656 79.2219 49.9841C79.2057 48.5957 79.1062 47.0721 79.9434 45.8806ZM0 44.39C0.935819 44.3942 1.87174 44.3922 2.80915 44.3922C3.38553 46.8178 3.91046 49.2561 4.50684 51.677C4.84638 49.2436 5.27876 46.8236 5.64865 44.3936C6.70986 44.3891 7.76897 44.3915 8.83008 44.3936C9.21599 46.8193 9.60628 49.2472 9.99428 51.6728C10.5481 49.2451 11.1103 46.8172 11.672 44.3915C12.608 44.3915 13.5458 44.3936 14.4813 44.3891C13.4423 48.2339 12.3853 52.0746 11.3565 55.9234C10.3965 55.9257 9.4384 55.9278 8.4782 55.9212C8.07199 53.5119 7.62945 51.1069 7.24514 48.6931C6.83882 51.1069 6.41828 53.5161 5.99605 55.9257H3.1258C2.09614 52.0775 1.03891 48.2369 0 44.39ZM13.5542 55.9264C14.5913 52.0793 15.6421 48.2369 16.6827 44.3922H19.5691C20.6059 48.239 21.659 52.0793 22.6938 55.924C21.821 55.9264 20.9473 55.924 20.0721 55.9284C19.8983 55.141 19.7345 54.3536 19.5527 53.5683C18.6133 53.5658 17.673 53.5683 16.7311 53.5659C16.5613 54.3513 16.3853 55.1347 16.2176 55.9199C15.331 55.9303 14.4416 55.9264 13.5542 55.9264ZM17.237 51.5178C17.8534 51.5154 18.4703 51.5178 19.0864 51.5233C18.7853 50.1352 18.4675 48.7532 18.1628 47.3692C17.8534 48.7516 17.5423 50.1335 17.237 51.5178ZM23.992 44.3409C25.8134 44.3465 27.6325 44.3263 29.4536 44.3488C30.5329 44.328 31.6564 45.122 31.7194 46.2725C31.7297 47.3017 31.7297 48.3311 31.7174 49.3607C31.6932 50.1767 31.0582 50.8005 30.3652 51.1135C31.0282 52.7009 31.6952 54.2864 32.3601 55.8754H29.4659C28.9483 54.4399 28.4596 52.9943 27.9296 51.5649C27.4243 51.5672 26.9211 51.5694 26.4179 51.5694C26.4158 53.0047 26.4222 54.442 26.4137 55.8775C25.6073 55.8735 24.8008 55.8735 23.9943 55.8775C23.9878 52.0302 23.992 48.1856 23.992 44.3409ZM26.4175 46.6478C26.4175 47.5375 26.4154 48.4254 26.4197 49.3154C27.1511 49.2971 27.8827 49.3483 28.6126 49.2951C29.0777 49.2578 29.3486 48.78 29.298 48.3394C29.2818 47.7976 29.4637 46.9738 28.8392 46.7176C28.0445 46.5595 27.224 46.6865 26.4175 46.6478ZM45.2816 44.3942C46.2417 44.3896 47.2018 44.3963 48.1638 44.388C49.215 48.2307 50.2622 52.0754 51.2925 55.9267H48.6711C48.4989 55.1369 48.3355 54.3473 48.1474 53.5624C47.2113 53.5726 46.2735 53.5686 45.3359 53.567C45.17 54.3543 44.9879 55.1373 44.8245 55.927H42.1605C43.1895 52.0792 44.2528 48.241 45.2816 44.3942ZM45.8395 51.5197C46.4558 51.5178 47.0742 51.5178 47.6906 51.5178C47.3874 50.1313 47.0681 48.7494 46.7689 47.3635C46.4517 48.7472 46.1486 50.1335 45.8395 51.5197ZM52.3921 44.3922C53.4267 44.3943 54.4615 44.3859 55.4964 44.4001C56.2098 47.2055 56.9557 50.0016 57.6794 52.8049C58.4561 50.0083 59.1669 47.1952 59.9248 44.3938C60.9496 44.3917 61.9744 44.3917 63.0012 44.3917V55.9259H60.6768C60.6951 53.7339 60.6367 51.5437 60.5963 49.3533C60 51.5311 59.4822 53.7335 58.9345 55.9259C58.096 55.9236 57.2569 55.936 56.4204 55.9113C55.8868 53.6642 55.3209 51.4248 54.7689 49.1835C54.7589 51.4311 54.7669 53.6758 54.7646 55.9257H52.3898C52.3902 52.0816 52.388 48.2369 52.3921 44.3922ZM64.9742 44.3942C65.7963 44.3921 66.6209 44.3921 67.4478 44.3921V55.9263H64.9718C64.9724 52.0816 64.9724 48.2369 64.9742 44.3942ZM69.4205 44.3942C70.2269 44.3921 71.0333 44.3896 71.8401 44.3942C73.0387 46.6292 74.2289 48.8665 75.4378 51.0951C75.4238 48.8603 75.4336 46.6273 75.4336 44.3942C76.2238 44.3921 77.014 44.3921 77.8043 44.3942C77.8063 48.2368 77.8063 52.0815 77.8063 55.9243C76.9979 55.9264 76.1914 55.9264 75.3869 55.9243C74.1798 53.6579 72.9936 51.3824 71.7851 49.1184C71.8011 51.3883 71.7895 53.6562 71.7933 55.9265H69.4183C69.4189 52.0816 69.4189 48.2369 69.4205 44.3942ZM93.5219 44.3922C94.3263 44.3922 95.1328 44.3943 95.9372 44.39C97.1663 46.6392 98.3525 48.9112 99.5816 51.1607C99.5917 48.9032 99.5816 46.6477 99.5857 44.3921C100.36 44.3921 101.134 44.3921 101.908 44.3942C101.91 48.2368 101.91 52.0815 101.91 55.9263C101.097 55.9239 100.285 55.9343 99.4743 55.9135C98.302 53.6272 97.0731 51.3719 95.8907 49.0914C95.9049 51.3675 95.8907 53.6453 95.8989 55.9235C95.1065 55.9279 94.3142 55.9258 93.5218 55.9258C93.5219 52.0816 93.5199 48.2369 93.5219 44.3922ZM103.731 44.3942C106.154 44.3921 108.58 44.3921 111.005 44.3921C111.003 45.1427 111.003 45.8926 111.007 46.6433C109.406 46.6533 107.806 46.6433 106.205 46.6477C106.203 47.3653 106.203 48.0831 106.205 48.8007H110.548C110.55 49.5513 110.55 50.3038 110.548 51.0537C109.101 51.0561 107.654 51.0561 106.207 51.0561C106.203 51.9091 106.203 52.7642 106.207 53.6193H111.003C111.005 54.3882 111.005 55.157 111.003 55.9263H103.729C103.729 52.0816 103.727 48.2369 103.731 44.3942ZM112.168 44.3942C114.779 44.3896 117.388 44.3942 120 44.3921V46.6477H117.374C117.37 49.7235 117.374 52.7992 117.37 55.8749H114.898C114.896 52.8011 114.894 49.7272 114.898 46.6531C113.989 46.6451 113.077 46.6451 112.168 46.6475V44.3942ZM89.2775 53.5683C90.0675 53.5683 90.858 53.5683 91.6482 53.5659C91.6523 54.3513 91.6523 55.1367 91.654 55.922C90.8617 55.9282 90.0694 55.9266 89.2771 55.9266C89.2775 55.1389 89.2753 54.3536 89.2775 53.5683Z" fill="#9E9E9E"/>
</g>
<defs>
<clipPath id="clip0_397_1543">
<rect width="120" height="56" fill="white"/>
</clipPath>
</defs>
</svg>
