<svg width="114" height="85" viewBox="0 0 114 85" fill="none" xmlns="http://www.w3.org/2000/svg">
<path d="M3.6704 74.5451C5.87589 74.4642 7.6236 74.3994 10.5473 74.4035H10.588C12.7691 74.4075 14.9908 74.5127 17.1475 74.7718C16.9746 75.8687 16.6714 76.9777 16.2686 78.0746C15.882 79.1715 15.4079 80.2664 14.7711 81.3936C12.4802 81.5717 10.1729 81.6567 7.97965 81.6506C7.01933 81.6506 5.7884 81.6304 4.13021 81.6L2.99084 84.8037H0L3.6704 74.5431V74.5451ZM12.5066 79.6046C12.7711 79.0784 12.9827 78.5927 13.174 78.0706C13.3632 77.5585 13.4914 77.0587 13.6094 76.5467C12.7019 76.4596 10.9583 76.4131 9.85554 76.4131C8.40692 76.4131 7.23906 76.4536 5.96948 76.5041H5.96134L4.84232 79.637L4.8586 79.6228C6.07935 79.7098 7.21058 79.724 8.65717 79.728C10.0773 79.7321 11.2411 79.6916 12.5025 79.6066M20.118 74.5451H23.1902L22.4985 76.4475C21.7965 78.4267 21.0458 80.6468 20.4313 82.6261C21.5097 82.784 22.7101 82.8163 23.8454 82.8163C24.9786 82.8204 26.1994 82.7961 27.3856 82.6403C27.6012 82.2274 27.7884 81.8166 27.9471 81.4179H30.9725C30.5453 82.5026 30.0834 83.5125 29.4995 84.6661C27.2818 84.9029 25.1658 84.9696 23.0702 84.9656C20.9339 84.9615 18.9257 84.8846 16.8647 84.6418C17.6073 81.9906 18.5412 79.0905 19.4832 76.4414L20.1139 74.5471L20.118 74.5451ZM40.2584 74.5977C40.3947 74.5714 41.6378 74.4358 43.5137 74.4358H43.9613C45.1821 74.4399 46.2808 74.4702 47.5381 74.5876L48.7304 84.8017H45.7192L45.4446 82.6443L36.6002 82.6281L34.7996 84.8017H31.7884L39.2309 75.8242L40.2625 74.5998L40.2584 74.5977ZM41.648 76.6418L38.3113 80.5983L45.178 80.6104L44.6897 76.6519C44.3499 76.6236 43.6663 76.5912 43.1923 76.5912C42.7162 76.5912 42.0366 76.6175 41.646 76.6458M54.6185 74.5249L61.8006 74.5411C63.9674 74.5451 66.704 74.5816 68.8118 74.8527C68.6246 75.8646 68.4293 76.8158 68.0692 77.8277C67.6419 79.0116 67.1618 80.236 66.4374 81.4908C65.355 81.5434 64.1343 81.6405 62.9542 81.681L65.8026 84.8057H61.9776L57.6094 80.0761L57.7111 79.7786H59.2981C61.0783 79.7827 62.6287 79.7726 64.1872 79.7017C64.4517 79.1472 64.6897 78.6089 64.885 78.0523C65.0743 77.512 65.2106 77.0566 65.3327 76.5284C63.9491 76.4677 62.6592 76.4677 61.0966 76.4677L56.9664 76.4576L53.9756 84.8037H50.9766L54.6185 74.5229V74.5249ZM72.5371 74.5451H75.528L71.8535 84.8057H68.8423L72.5371 74.5451ZM79.2716 74.5896H82.3031L81.6582 76.4111C80.9257 78.4348 80.2238 80.6691 79.6114 82.6646C80.9339 82.8325 82.3479 82.8629 83.7253 82.8609C85.0885 82.8609 86.5392 82.8285 87.9532 82.6585C88.7935 80.663 89.6419 78.4288 90.3744 76.405L91.0153 74.5896H94.0834L93.4405 76.4009C92.4944 79.04 91.2228 81.8591 90.1892 84.4819C87.6968 84.8664 85.2981 84.998 82.9624 85C80.6104 85 78.3072 84.8745 76.0651 84.494C76.767 81.8712 77.6562 79.0359 78.6002 76.4131L79.2675 74.5917L79.2716 74.5896ZM97.3469 74.6281C99.3103 74.5269 101.392 74.4419 104.59 74.4095C104.706 74.4095 104.855 74.3954 104.966 74.3954H105.729C108.525 74.3954 111.29 74.5047 114 74.8001C113.023 77.9653 111.803 81.6405 110.68 84.8057H107.668C108.555 82.2821 109.601 79.2363 110.36 76.7106C109.099 76.6296 107.788 76.573 106.486 76.5446L103.556 84.8017H100.529L103.459 76.5446C102.122 76.577 100.765 76.6337 99.4507 76.7207C98.4191 79.2403 97.3001 82.278 96.413 84.7996H93.4018C94.2889 82.276 95.3795 79.4022 96.4537 76.7531C96.6694 76.2208 97.3489 74.6281 97.3489 74.6281M104.405 16.0173C104.779 16.6001 104.771 16.9887 104.718 17.2477H104.71C104.698 17.3085 104.68 17.3692 104.661 17.4299C104.397 18.1584 103.522 18.9599 102.214 19.652C98.3886 21.6657 93.353 23.6793 87.2045 25.6505V25.5959C87.174 23.653 85.292 22.1918 80.9278 20.7428C52.4029 11.2513 28.9644 19.6459 20.5982 24.5961C23.2106 17.1121 26.6979 8.95832 28.8749 7.73393C40.4354 1.22949 56.2116 -1.34679 72.1546 0.672946C87.1495 2.57126 99.5076 8.45237 104.403 16.0173M103.148 22.6209C100.987 29.7082 98.1282 37.9612 96.5209 39.734C91.2309 45.5747 40.6714 57.0738 12.6246 43.6197C28.6612 41.5757 80.5392 34.2556 103.148 22.6209Z" fill="#9E9E9E"/>
<path d="M53.9715 19.4699L48.4313 34.9174C47.3998 35.1076 46.3642 35.2979 45.3143 35.4841C40.0122 36.4413 34.9176 37.2852 30.2706 38.0077C25.4588 35.9839 19.0539 32.1327 18.883 29.8438L18.9034 29.777C19.7253 28.4049 26.1506 24.0841 37.2411 21.4653C41.7131 20.4069 47.3896 19.5225 53.9736 19.4699M42.3866 52.8421L38.7996 63.1836H23.8047L27.9451 51.4315C32.8037 52.2815 37.7172 52.7065 42.3866 52.8481" fill="#9E9E9E"/>
</svg>
