<svg width="118" height="38" viewBox="0 0 118 38" fill="none" xmlns="http://www.w3.org/2000/svg">
<path d="M14.4824 0H15.5281C19.1584 0.0794791 22.7295 1.54984 25.2944 4.15278C24.3473 5.1264 23.3806 6.06028 22.4533 7.0339C21.013 5.7225 19.2767 4.70914 17.3827 4.35148C14.581 3.75539 11.5623 4.29187 9.21447 5.90133C6.64957 7.59026 4.91333 10.4515 4.53847 13.5115C4.12414 16.5317 4.97252 19.7108 6.92579 22.0555C8.80014 24.3405 11.661 25.7711 14.6205 25.8705C17.3827 26.0294 20.2632 25.175 22.2757 23.2278C23.8541 21.8568 24.5841 19.7704 24.8209 17.7437C21.5457 17.7437 18.2705 17.7636 14.9953 17.7437V13.6505H28.7866C29.4969 18.0418 28.4709 22.9893 25.1563 26.1288C22.9465 28.3542 19.8884 29.6656 16.771 29.9239C13.7524 30.2219 10.635 29.6457 7.95175 28.1754C4.73576 26.4467 2.17087 23.5258 0.908152 20.0883C-0.275645 16.9291 -0.295375 13.3525 0.809502 10.1733C1.81573 7.27234 3.74927 4.70914 6.23524 2.92086C8.62257 1.15245 11.5229 0.178828 14.4824 0Z" fill="#9E9E9E"/>
<path d="M94 1H98V28.9951C96.6729 28.9951 95.3271 29.0147 94 28.9755C94.0187 19.6634 94 10.3317 94 1Z" fill="#9E9E9E"/>
<path d="M38.6486 11.1734C41.2231 10.6847 44.0121 11.2321 46.138 12.7765C48.0688 14.145 49.4145 16.2955 49.8241 18.6416C50.3507 21.359 49.6876 24.3306 47.9323 26.4811C46.0404 28.8858 42.9394 30.1761 39.9163 29.9806C37.1468 29.8242 34.4554 28.4361 32.8171 26.1683C30.9642 23.6659 30.5157 20.2251 31.5298 17.2926C32.544 14.145 35.411 11.7404 38.6486 11.1734ZM39.2337 14.8879C38.1805 15.1616 37.2054 15.7677 36.5032 16.6279C34.6114 18.8957 34.7284 22.5907 36.8153 24.7021C38.005 25.9142 39.7993 26.4811 41.4571 26.1488C42.9979 25.8751 44.3436 24.8389 45.0848 23.4704C46.372 21.144 46.0014 17.9378 44.0316 16.1196C42.7639 14.9466 40.911 14.4578 39.2337 14.8879Z" fill="#9E9E9E"/>
<path d="M59.6482 11.1749C62.5954 10.6077 65.8159 11.4292 68.0214 13.5024C71.6127 16.7295 72.0031 22.7731 68.9387 26.4892C67.0845 28.8362 64.0788 30.127 61.112 29.9901C58.2819 29.9119 55.4908 28.5037 53.8123 26.1762C51.919 23.6141 51.5092 20.0936 52.5827 17.1011C53.6561 14.05 56.4667 11.7226 59.6482 11.1749ZM60.2337 14.891C59.1797 15.1648 58.2038 15.7712 57.5012 16.6122C55.6275 18.8418 55.7055 22.4797 57.7159 24.6116C58.9065 25.8829 60.7607 26.5087 62.4783 26.1567C64.0007 25.8633 65.367 24.8463 66.1086 23.4772C67.3773 21.1302 67.0065 17.9226 65.0156 16.1037C63.747 14.9301 61.8927 14.4607 60.2337 14.891Z" fill="#9E9E9E"/>
<path d="M77.5298 12.2848C79.7523 10.9036 82.7091 10.5199 85.1056 11.7093C85.8593 12.0355 86.4777 12.5918 87.0768 13.1481C87.0961 12.6302 87.0768 12.093 87.0961 11.5559C88.391 11.575 89.6858 11.5559 91 11.575V28.4952C90.9807 31.0467 90.3236 33.7516 88.4683 35.6125C86.4391 37.6651 83.3276 38.2982 80.5253 37.8762C77.5298 37.4349 74.9208 35.2672 73.7612 32.5239C74.9208 31.9675 76.1383 31.5263 77.3365 31.0083C78.0129 32.5814 79.3851 33.9243 81.1051 34.2312C82.8251 34.5382 84.8157 34.1161 85.9366 32.6965C87.1348 31.2385 87.1348 29.2434 87.0768 27.4593C86.1878 28.3226 85.1635 29.0899 83.9267 29.3777C81.2404 30.1259 78.2835 29.205 76.2156 27.4018C74.1284 25.5985 72.8915 22.8168 73.0075 20.0543C73.0655 16.9274 74.8435 13.9155 77.5298 12.2848ZM81.5303 14.7404C80.3514 14.9322 79.2498 15.5845 78.4961 16.4861C76.6794 18.6347 76.6794 22.0686 78.5154 24.1789C79.559 25.4258 81.2404 26.1164 82.8638 25.9438C84.3905 25.7903 85.8013 24.8311 86.555 23.5074C87.8305 21.2629 87.618 18.2127 85.8979 16.2559C84.835 15.0473 83.1343 14.4526 81.5303 14.7404Z" fill="#9E9E9E"/>
<path d="M103.044 13.3182C105.453 11.129 109.167 10.3862 112.258 11.5395C115.189 12.6145 117.056 15.3314 118 18.1265C113.644 19.8857 109.307 21.6253 104.951 23.3845C105.553 24.4986 106.477 25.515 107.721 25.9255C109.468 26.5314 111.556 26.3164 113.021 25.1827C113.603 24.7527 114.065 24.1858 114.507 23.6386C115.611 24.3618 116.715 25.0654 117.819 25.7886C116.253 28.0755 113.624 29.6783 110.793 29.9324C107.661 30.3038 104.329 29.131 102.301 26.7464C98.9685 22.9935 99.2897 16.6997 103.044 13.3182ZM105.192 16.9342C104.509 17.892 104.228 19.0647 104.248 20.218C107.159 19.0452 110.07 17.8724 112.981 16.6801C112.499 15.5855 111.335 14.921 110.151 14.745C108.243 14.4128 106.256 15.4096 105.192 16.9342Z" fill="#9E9E9E"/>
</svg>
