<svg width="116" height="80" viewBox="0 0 116 80" fill="none" xmlns="http://www.w3.org/2000/svg">
<path fill-rule="evenodd" clip-rule="evenodd" d="M19.5844 66.4211C20.5122 65.7233 21.8502 65.9559 22.9538 66.0528C23.6375 66.111 23.9598 66.5181 24.1453 67.0317L29.3607 79.8449H25.2978C25.0536 78.9048 24.7802 77.7805 24.4383 76.8597C22.6999 76.8888 20.9614 76.8694 19.223 76.8597L18.2366 79.8449H14.369C16.1758 75.4059 17.8068 70.8699 19.5844 66.4211ZM20.2192 74.3203C21.2349 74.3106 22.2506 74.3203 23.2664 74.3203C23.0515 72.6823 22.3385 71.0831 21.7525 69.5227C21.1665 71.0734 20.3559 72.6726 20.2192 74.3203ZM93.6248 67.5164C93.6052 66.615 94.5624 66.0431 95.3828 66.0722L113.636 66.0916C114.896 66.5181 115.658 67.8265 116 69.0477L109.769 69.0284L109.749 79.8449H106.302L106.204 68.8248C103.206 68.8539 100.207 68.8442 97.2091 68.8442C96.6719 69.0768 96.584 71.81 97.8146 71.8973L101.301 71.8391V74.1943C100.256 74.0974 99.2113 74.1168 98.1662 74.1265C97.5607 74.078 97.0333 74.6499 97.0626 75.2314L97.0919 79.8352H93.6443C93.6638 75.7742 93.5955 71.5871 93.6248 67.5164ZM80.5962 66.111C82.4127 66.0044 84.2391 66.0916 86.0557 66.0625C87.0421 66.0819 88.1262 65.8978 89.0052 66.4696C90.392 67.3322 91.0952 69.0187 91.0464 70.6082C91.0171 72.44 91.0855 74.2719 91.0073 76.094C90.8999 77.9452 89.3568 79.7868 87.4328 79.8449C85.0693 79.9709 82.696 79.8062 80.3325 79.8255C78.3205 79.748 77.4416 77.4606 77.2462 75.7645C77.2658 73.7 77.1681 71.6356 77.2462 69.5711C77.3244 67.8071 78.8284 66.2854 80.5962 66.111ZM82.0318 68.9024C81.4263 69.164 80.8501 69.7262 80.8794 70.4337C80.8208 71.9845 80.7524 73.5256 80.772 75.0763C80.7427 76.0359 81.5533 77.0923 82.5885 77.0245C83.6824 77.0148 84.786 77.102 85.8701 76.976C86.6026 76.8888 87.3839 76.3945 87.4425 75.5997C87.5597 73.9423 87.4621 72.2753 87.4816 70.6179C87.5304 69.639 86.6807 68.8151 85.7041 68.8539C84.4833 68.883 83.2429 68.7667 82.0318 68.9024ZM66.1123 66.1498C67.2648 65.9462 68.4661 66.1691 69.6381 66.0141C69.6967 69.261 69.6381 72.5176 69.6674 75.7742C69.6674 76.4429 70.3412 77.0245 71.0054 76.9082C72.3825 76.85 73.7693 76.9469 75.1464 76.8112C75.6054 77.9162 75.9375 78.5558 76.9044 79.8449H67.1573C66.4249 79.8352 66.083 78.9726 66.1514 78.3426C66.1416 74.2816 66.0928 70.2205 66.1123 66.1498ZM51.6187 68.0301C51.5699 67.119 52.3024 66.1982 53.2204 66.0722L63.4363 66.0044L63.446 68.8636C60.8188 68.8345 58.1819 68.6697 55.5449 68.7957C54.7538 69.6196 54.7733 71.7325 56.3164 71.5774L62.694 71.5483V74.2234H56.2383C54.7636 74.204 54.4803 76.2297 55.6426 76.8403L63.5242 76.7822C63.4949 77.8386 63.573 78.7982 63.5535 79.8643L53.2204 79.7868C52.4196 79.8158 51.5699 79.2052 51.6187 78.3523C51.609 74.9019 51.6187 71.4708 51.6187 68.0301ZM31.1089 67.8556C31.1284 65.5682 34.8104 65.5488 35.3183 66.5859C36.7833 68.8442 38.2776 71.1025 39.7523 73.3511C39.977 73.6806 40.3774 73.3802 40.5141 73.1185C41.8619 70.9668 43.1902 68.8054 44.5575 66.6634C45.0068 65.8978 49.0989 65.103 48.972 68.0301L48.9134 79.8352H45.4462L45.3486 70.802L40.0551 80L34.7811 71.1413L34.7323 79.8449H31.0503C31.0991 75.8808 31.0112 71.8197 31.1089 67.8556ZM3.5867 66.111C6.64364 65.9947 9.71035 66.1885 12.7575 66.0044C12.7673 67.0124 12.7966 68.0107 12.7478 69.0187C10.814 68.912 4.1727 68.3111 3.7918 70.143C3.5867 71.1316 3.4402 75.2411 4.03596 75.9971C4.80752 76.9857 9.26108 77.4703 9.27085 75.9971C9.31968 74.8437 9.57361 73.6128 8.75322 72.6436C10.1791 72.5854 11.5953 72.6242 13.0212 72.5951C13.2263 74.2719 13.0603 75.968 13.1091 77.6545C13.1579 78.6237 12.4841 79.9612 11.3707 79.8449H4.10433C2.99094 79.8837 1.90685 79.3022 1.16459 78.5074C0.207466 77.3637 -0.0269316 75.8226 0.00236815 74.3882C0.051201 72.7308 -0.0269316 71.0734 0.0414345 69.4257C0.148867 67.6133 1.82872 66.2176 3.5867 66.111ZM47.8488 0.0388407C58.1623 -0.0290052 68.4954 -0.0677742 78.7991 0.455608C81.8853 0.639761 85.0009 0.97899 87.9406 1.98699C91.0171 3.15006 93.7517 5.29205 95.4511 8.11249C97.0333 10.7488 98.0783 13.7049 98.5081 16.7483C99.0159 19.8692 98.8499 23.0386 98.8792 26.1886C98.9085 30.5889 98.9378 34.9988 98.9378 39.3991C98.7815 44.5457 97.9514 50.0121 94.8163 54.267C93.2927 56.2055 91.2417 57.7756 88.9661 58.7546C87.8527 59.3264 86.7393 58.5122 86.0068 57.7272C85.8506 57.2619 86.3975 56.9518 86.6612 56.6416C89.347 54.267 91.0757 50.9329 91.7496 47.4534C92.3844 44.0611 92.4918 40.6106 92.5211 37.1699C92.4039 32.5758 92.3063 27.9622 91.6617 23.4069C91.3296 20.9935 90.6264 18.5704 89.181 16.5835C87.7648 14.7905 85.9092 13.2203 83.6531 12.6291C82.0221 12.1542 80.3129 12.3383 78.6428 12.222C66.7178 11.8925 54.7831 11.6211 42.8483 11.8828C39.1956 12.1542 35.4648 11.4466 31.8902 12.3868C28.6184 13.1525 26.6261 16.506 26.3038 19.6463C25.9717 24.2695 26.1377 28.9121 26.0303 33.5547C26.0303 36.6271 26.4796 39.9613 28.6575 42.3262C29.9174 44.0805 32.0465 45.0109 34.1854 45.0303C45.7002 45.6119 57.2443 45.4471 68.7786 45.544C70.351 45.4665 71.982 45.7282 73.5154 45.3017C75.2734 44.5748 76.2207 42.5879 76.211 40.7657C76.2305 38.992 76.3672 37.1699 75.8496 35.4544C75.5468 34.4464 74.4334 33.9521 73.4373 34.0102C61.6881 34.2428 49.9291 34.3688 38.1702 34.5627C36.1192 34.4754 33.9412 35.3574 32.9548 37.228C31.4898 37.0536 29.9858 36.9664 28.5696 36.5593C28.3352 32.537 28.2278 28.505 28.3547 24.4827C28.5403 21.0129 31.734 18.144 35.2109 18.1634C48.9329 17.7951 62.6647 17.6303 76.3868 18.018C80.0199 18.2603 84.0145 19.0841 86.4854 21.9724C88.3997 24.0175 89.4837 26.6926 89.806 29.4452C90.2944 33.4868 90.0697 37.5576 90.1088 41.6186C89.9916 44.3712 89.9721 47.2014 88.9368 49.7989C87.3351 54.3446 83.0573 57.6303 78.3498 58.4832C76.1621 58.8999 73.9353 58.8418 71.7183 58.929C55.8086 59.3361 39.8695 59.3458 23.9988 58.2118C20.8345 58.1343 18.0998 56.0892 16.6153 53.4044C14.7401 50.0412 14.3983 46.0868 14.2323 42.3165C14.2127 33.5644 13.9881 24.8123 13.9588 16.0601C14.0858 12.9005 14.4862 9.57603 16.3126 6.89127C18.217 3.8479 21.5865 2.04514 25.0341 1.27945C32.5837 0.242378 40.2407 0.290839 47.8488 0.0388407Z" fill="#9E9E9E"/>
</svg>
