<svg width="120" height="24" viewBox="0 0 120 24" fill="none" xmlns="http://www.w3.org/2000/svg">
<path d="M13.7549 18.2876L14.0401 18.2583L14.3401 18.214L15.0451 18.1255L15.8249 17.9629L16.6199 17.786L17.4001 17.5646L18.2101 17.3282L19.0199 17.048L19.6351 16.8559L19.8901 16.738L20.1301 16.5904L20.3399 16.3985L20.5349 16.1919L20.6851 15.9409L24.5701 7.91141L30.7949 23.1732L30.8701 23.3506L30.9751 23.5127L31.1101 23.6605L31.2599 23.7786L31.4401 23.8819L31.6199 23.9408L31.8149 23.9852H32.0099L37.3049 24L27.6151 3.55716H21.8849L13.7549 18.2876Z" fill="#9E9E9E"/>
<path d="M40.9049 4.78234V1.09229L31.4399 6.16979L31.3497 6.21407L31.1547 6.28767L30.9449 6.34691H30.7499L30.5849 6.31739L30.4047 6.25835L30.2549 6.19931L30.1949 6.16979L30.2697 6.40596L30.4199 6.87828L30.6149 7.36537L30.8699 7.85245L31.1699 8.29526L31.4847 8.66426L31.7847 8.92995L32.0547 9.07755L32.3097 9.13659H32.5649L32.8047 9.10707L32.9849 9.04803L33.1347 8.98899L33.1947 8.94471L40.9049 4.78234Z" fill="#9E9E9E"/>
<path d="M59.7751 17.4465L59.5953 17.476L59.5353 17.5058L59.4603 17.5496L59.4003 17.5941L59.3403 17.653L59.2953 17.7268L58.5753 18.9223H61.8301V21.0333L61.5751 21.1068L61.3501 21.1661L61.1401 21.2102L60.9151 21.2547L60.7053 21.2989L60.4201 21.3282L60.1951 21.358L60.0003 21.3727H59.3551L59.1303 21.343L58.8153 21.3135L58.6201 21.2842L58.4251 21.2397L58.2301 21.1958L58.0351 21.1366L57.8553 21.0628L57.6303 20.9447L57.4503 20.8414L57.1501 20.6052L57.0003 20.4722L56.8653 20.3393L56.7303 20.1919L56.6251 20.0294L56.4901 19.808L56.4003 19.631L56.3251 19.4392L56.2651 19.2471L56.2201 19.0552L56.1753 18.8485L56.1453 18.6569L56.1301 18.4502V17.8596L56.1601 17.6679L56.2053 17.4908L56.2651 17.2987L56.3251 17.1218L56.4003 16.9447L56.4901 16.7674L56.5653 16.664L56.6851 16.5019L56.8201 16.3541L56.9553 16.2065L57.1053 16.0738L57.2553 15.9557L57.4653 15.8229L57.6451 15.7196L57.8401 15.6163L58.0503 15.5425L58.2453 15.4685L58.5301 15.3949L58.7551 15.3504L58.9803 15.3211L59.1901 15.2915L59.8653 15.2471H60.0751L60.5251 15.2768L60.9751 15.336L61.2001 15.3651L61.4251 15.4096L61.6501 15.4391L61.8751 15.4832L62.1001 15.5425L62.3251 15.5865L62.5501 15.6458L62.7601 15.7046L62.9851 15.7639L63.0901 15.7932V14.2581L62.8351 14.1843L62.6251 14.1107L62.4001 14.0515L62.1751 14.0074L61.9651 13.9629L61.5151 13.8746L61.1101 13.8157L60.6601 13.7565L60.2101 13.7268L60.0003 13.712H58.8601L58.4103 13.7415L58.1853 13.7712L57.7651 13.8301L57.5401 13.8893L57.3303 13.9482L57.0451 14.0222L56.8353 14.0812L56.6403 14.1548L56.4303 14.2436L56.2503 14.3321L56.0551 14.4207L55.8753 14.5388L55.6951 14.6421L55.4853 14.7899L55.3203 14.9223L55.1553 15.0552L55.0051 15.203L54.8553 15.3651L54.7051 15.5129L54.5853 15.6751L54.4653 15.8524L54.3451 16.0293L54.2403 16.2065L54.1053 16.4574L54.0303 16.6349L53.9551 16.8414L53.8803 17.0332L53.8353 17.2399L53.7753 17.4465L53.7153 17.8596L53.7003 18.1255V18.5388L53.7301 18.7452L53.7601 18.9668L53.7901 19.1733L53.8501 19.3799L53.8951 19.5865L54.0453 19.9705L54.1501 20.1919L54.2403 20.3838L54.4501 20.738L54.5703 20.915L54.7051 21.0775L54.8253 21.2397L54.9751 21.3875L55.1553 21.5497L55.3351 21.6827L55.5153 21.8008L55.7103 21.9189L56.2953 22.2288L56.5053 22.3024L56.7003 22.391L56.9101 22.465L57.1501 22.5386L57.3751 22.5831L57.6001 22.6271L58.2753 22.7161L58.5153 22.7305L58.7251 22.76L58.9653 22.775H59.1901L59.5801 22.7897L59.8051 22.775H60.0151L60.2401 22.76L60.4801 22.7452L60.7053 22.7305L61.3803 22.6419L61.6201 22.6271L61.8301 22.5831L62.0553 22.5535L62.2801 22.5091L62.5051 22.465L62.7301 22.4353L62.9551 22.3764L63.1801 22.3172L63.4051 22.2731L63.6301 22.2139L63.8251 22.155V17.4465H59.7751ZM68.8201 3.39484L68.9851 3.4096L69.1801 3.45388L69.33 3.49816L69.4501 3.54244L69.5851 3.61624L69.69 3.69004L69.7951 3.7786L69.9001 3.88193L70.0051 4.01477L70.0653 4.14761L70.1251 4.26569L70.1551 4.39853L70.1851 4.54613V4.75278L70.1701 4.88562L70.1401 5.0037L70.0953 5.13654L70.0201 5.25462L69.84 5.49079L69.69 5.62363L69.5553 5.71219L69.4051 5.78599L69.2551 5.83027L69.1051 5.88931L68.9551 5.91883L68.7901 5.93359H67.3051L67.2301 5.94835L67.1401 5.97787L67.0801 5.99263L67.0053 6.03691L66.9451 6.09595L66.9001 6.15499L66.8701 6.18451L66.1951 7.39485L68.3253 7.38009L70.4851 10.5535H73.035L70.5601 6.84872L70.7703 6.78968L70.9501 6.71588L71.3701 6.50924L71.535 6.40592L71.6851 6.3026L71.8351 6.18451L71.9703 6.05167L72.09 5.90407L72.2401 5.71219L72.3451 5.56459L72.4351 5.40222L72.4951 5.23986L72.5551 5.09226L72.6001 4.9299L72.6153 4.73802L72.6303 4.56089V4.42805L72.6153 4.25093L72.5851 4.07381L72.5401 3.89669L72.4201 3.54244L72.3301 3.36532L72.225 3.20296L72.105 3.0406L71.9853 2.89299L71.715 2.62731L71.565 2.50923L71.4001 2.39115L71.2351 2.30259L71.0551 2.21403L70.8751 2.14023L70.5151 2.02214L70.3201 1.97786L69.7351 1.93358L69.5701 1.94834H63.2403V10.5535H65.5201V3.39484L68.6851 3.38008L68.8201 3.39484ZM79.65 1.41698L80.895 0H78.765L78.0601 1.41698H79.65ZM103.05 10.583H105.345V3.49816H107.91L107.985 3.4834L108.075 3.46864L108.135 3.45388L108.195 3.42436L108.24 3.39484L108.27 3.35056L108.315 3.30628L108.33 3.262L108.375 3.17344L108.39 3.15868L108.81 1.99262H100.56L100.485 2.02214L100.425 2.0369L100.305 2.12547L100.26 2.16975L100.215 2.22879L100.17 2.31735L99.585 3.49816H103.05V10.583ZM73.035 18.7602L73.215 18.7009L73.3951 18.6421L73.5601 18.5535L73.785 18.4355L73.9351 18.3469L74.2051 18.1107L74.3251 17.9777L74.43 17.8305L74.535 17.6827L74.625 17.5201L74.745 17.1661L74.79 16.9888L74.8201 16.7971L74.8353 16.6052V16.4426L74.8201 16.2507L74.76 15.8965L74.7001 15.7196L74.64 15.557L74.55 15.3799L74.475 15.2618L74.3701 15.0997L74.25 14.9521L73.98 14.6862L73.7551 14.524L73.5751 14.4207L73.3951 14.3321L73.2001 14.2436L72.885 14.1405L72.675 14.0812L72.4501 14.0367L72.2401 13.9926L72.0301 13.9629L71.8051 13.9334L71.355 13.9041H65.7601V22.5238H68.0551V15.4685H71.1151L71.2201 15.4832L71.3701 15.4982L71.5201 15.5277L71.6553 15.5718L71.8351 15.6608L71.9551 15.7196L72.0451 15.7932L72.1351 15.8672L72.225 15.9998L72.2853 16.1179L72.3451 16.2507L72.3901 16.3838L72.4201 16.5019L72.4351 16.62V16.6938L72.4201 16.8118L72.4051 16.9447L72.3601 17.048L72.3003 17.181L72.225 17.3135L72.1351 17.4168L71.9853 17.5794L71.8501 17.653L71.715 17.7415L71.5801 17.8008L71.4153 17.8596L71.2651 17.8893L71.1151 17.9189H69.6451L69.5851 17.9336L69.5251 17.9629L69.4501 17.9927L69.3901 18.0222L69.33 18.0662L69.2701 18.1107L69.2253 18.1552L69.1801 18.1991L69.1501 18.2583L68.5503 19.3651H70.5451L72.84 22.5238H75.33L72.8251 18.819L73.035 18.7602ZM46.3053 13.8893L41.8501 22.5238H44.3103L45.2253 20.5755H47.8953L48.0001 20.546L48.1051 20.5166L48.1951 20.4722L48.2853 20.4133L48.3601 20.3393L48.4351 20.2655L48.4951 20.1772L48.5103 20.1474L49.2003 19.0261H45.9453L47.7751 15.2471L51.0753 22.4947H53.4453L49.3953 13.8893H46.3053ZM98.5652 1.9631H96.3302V10.583H98.5652V1.9631ZM53.9103 9.32843L54.0753 9.47603L54.4053 9.74172L54.7653 9.97767L54.9451 10.096L55.1401 10.1993L55.3351 10.2878L55.4853 10.3469L55.6951 10.4059L55.9053 10.4797L56.1153 10.5388L56.3403 10.5978L56.5501 10.6421L56.7753 10.6716L56.9851 10.7159L57.2553 10.7454L57.7051 10.7749H57.9301L58.1553 10.7897H58.3803L58.6053 10.7749L58.9353 10.7602L59.3851 10.7306L59.5953 10.7011L59.8201 10.6716L60.2401 10.583L60.4651 10.5388L60.6751 10.4945L60.9001 10.4207L61.1101 10.3764L61.5301 10.2288L61.6951 10.1845V8.5609L61.6051 8.60518L61.3953 8.67898L61.1851 8.76754L60.9751 8.82658L60.7651 8.90039L60.5551 8.95943L60.3301 9.00371L60.0151 9.06275L59.8201 9.09227L59.5953 9.12179L59.3851 9.15131L59.1753 9.16607L58.9501 9.18083H58.5001L58.2903 9.19559L58.0951 9.18083L57.8853 9.16607L57.6903 9.13655L57.4801 9.09227L57.2853 9.03323L57.0603 8.97419L56.8801 8.91515L56.7003 8.84135L56.5353 8.75278L56.3703 8.64946L56.2201 8.54614L56.0701 8.42806L55.8753 8.25094L55.6351 7.95573L55.5153 7.79337L55.4253 7.63101L55.2751 7.27677L55.2001 6.99632L55.1553 6.80444L55.1253 6.5978V6.00739L55.1553 5.81551L55.2001 5.53507L55.2453 5.35794L55.3051 5.16606L55.3651 4.98894L55.5453 4.66422L55.6951 4.45757L55.8301 4.30997L55.9651 4.17713L56.1301 4.04429L56.2803 3.92621L56.4453 3.80813L56.7151 3.66052L56.8953 3.57196L57.1053 3.49816L57.3003 3.43912L57.5101 3.38008L57.7953 3.32104L58.0051 3.30628L58.2301 3.27676H58.8901L59.2053 3.29152L59.4303 3.30628L59.8801 3.36532L60.0751 3.39484L60.3001 3.43912L60.5101 3.4834L60.7353 3.54244L60.9451 3.58672L61.1551 3.66052L61.3653 3.71956L61.4701 3.76385L61.7253 3.83765L61.7401 2.22879L61.6051 2.19927L61.3953 2.14023L61.1851 2.06642L60.9601 2.00738L60.7501 1.9631L60.5251 1.90406L60.3151 1.85978L60.0903 1.8155L59.8353 1.77122L59.6101 1.7417L59.4003 1.71218L59.1753 1.68266L58.7251 1.65314H57.8553L57.6451 1.6679L57.4203 1.68266L57.1953 1.71218L56.9851 1.7417L56.5653 1.83026L56.1453 1.94834L55.9053 2.02214L55.5153 2.16975L55.3051 2.25831L55.1253 2.36163L54.9303 2.46495L54.7501 2.56827L54.5703 2.68635L54.2403 2.95204L54.0901 3.08488L53.9403 3.23248L53.7901 3.38008L53.5203 3.7048L53.4001 3.88193L53.2803 4.04429L53.1903 4.23617L53.0853 4.41329L52.9651 4.69374L52.8903 4.88562L52.8301 5.0775L52.7701 5.28414L52.6803 5.69743L52.6653 5.99263L52.6503 6.19927V6.61256L52.7401 7.23249L52.8001 7.42437L52.8603 7.63101L52.9651 7.92622L53.0553 8.1181L53.1453 8.29522L53.2503 8.4871L53.3553 8.66422L53.5951 8.98895L53.7301 9.16607L53.9103 9.32843ZM76.995 22.5238H79.305V13.9188H77.01L76.995 22.5238ZM104.58 13.9188H102.435V22.5238H109.26L109.92 20.9888H104.58V13.9188ZM83.715 9.07751H76.7103V3.42436H83.385L82.83 1.94834H74.4903V10.5535H82.965L83.715 9.07751ZM112.98 20.9594V15.3949H119.655L119.13 13.8893H110.685V22.5091H119.31L120 20.9594H112.98Z" fill="#9E9E9E"/>
<path d="M114.599 17.3727L114.54 17.3875H114.464L114.374 17.402L114.299 17.4316L114.239 17.476L114.164 17.5201L114.104 17.5794L114.089 17.6089L113.22 18.8783H117.044L117.104 18.8635L117.179 18.8485L117.254 18.819L117.329 18.7897L117.389 18.7452L117.449 18.6864L117.479 18.6421L118.409 17.3727H114.599ZM101.579 17.7266L101.549 17.5644L101.519 17.3578L101.474 17.1659L101.414 16.9592L101.354 16.7669L101.264 16.5751L101.189 16.3832L101.084 16.2058L100.979 16.0289L100.844 15.852L100.709 15.6894L100.574 15.5273L100.424 15.3647L100.274 15.2173L100.11 15.0695L99.9444 14.9367L99.7492 14.8038L99.5692 14.6858L99.3742 14.5681L99.1792 14.4648L98.969 14.3758L98.774 14.2725L98.5788 14.1989L98.3688 14.1253L98.1588 14.0513L97.9488 13.9924L97.7388 13.9332L97.5138 13.8891L97.3038 13.8446L97.0788 13.8006L96.8538 13.7858L96.4336 13.7563H96.2386L96.1636 13.7415H96.0586L95.8786 13.7563H95.699L95.2786 13.7858L95.0536 13.8006L94.8436 13.8299L94.6186 13.8744L94.4086 13.9188L94.1986 13.9629L93.9886 14.0222L93.7784 14.081L93.5836 14.1546L93.3884 14.2436L93.1782 14.3321L92.9984 14.4207L92.7882 14.5535L92.6232 14.6568L92.4434 14.7897L92.1134 15.055L91.9632 15.2028L91.8132 15.3649L91.6784 15.5127L91.5282 15.7046L91.4082 15.8672L91.2884 16.0441L91.1832 16.221L91.0932 16.4133L91.0196 16.6052L90.9295 16.7971L90.8694 17.0037L90.7947 17.2844L90.7644 17.491L90.7347 17.7124L90.7044 17.9191V18.5093L90.7347 18.7307L90.7492 18.9373L90.7944 19.1439L90.8394 19.351L90.8844 19.5429L90.9594 19.7643L91.0344 19.9709L91.1244 20.1628L91.2144 20.3397L91.3194 20.532L91.6194 20.9748L91.7542 21.137L91.9042 21.2848L92.0546 21.4469L92.2044 21.5947L92.3694 21.7276L92.5647 21.875L92.7444 21.9931L92.9244 22.0964L93.1194 22.2145L93.3146 22.303L93.5247 22.4063L93.7199 22.4804L93.9301 22.5689L94.2149 22.6425L94.4249 22.7018L94.6499 22.7458L94.8749 22.7903L95.0849 22.82L95.3099 22.8494L95.5199 22.8641L95.7449 22.8938H95.9699L96.1648 22.9086H96.4049L97.0798 22.8643L97.2899 22.8346L97.6499 22.7758L97.8599 22.7313L98.0701 22.6872L98.2801 22.628L98.4901 22.5691L98.7001 22.4806L98.8955 22.4066L99.0903 22.318L99.3753 22.1706L99.5703 22.0669L99.7503 21.9635L99.9153 21.8459L100.08 21.713L100.245 21.5802L100.545 21.285L100.741 21.0488L100.98 20.6946L101.086 20.5027L101.175 20.3258L101.266 20.1335L101.34 19.9268L101.415 19.735L101.46 19.5283L101.52 19.3217L101.551 19.115L101.581 18.9084L101.611 18.687L101.626 18.4803V18.3623L101.579 17.7266ZM99.1344 18.4797L99.1196 18.6864L99.0894 18.893L99.0594 19.0552L98.9692 19.4685L98.8946 19.6608L98.7444 20.0445L98.6394 20.2364L98.5346 20.399L98.3996 20.5464L98.1299 20.812L97.9796 20.9449L97.7999 21.0482L97.6348 21.1515L97.4549 21.2251L97.2748 21.2844L97.0949 21.3432L96.9151 21.3877L96.6301 21.4318L96.4201 21.4465H96.0303L95.8199 21.4168L95.6249 21.3875L95.4299 21.343L95.2346 21.2842L95.0396 21.2249L94.8444 21.1513L94.6194 21.0332L94.4546 20.9299L94.3044 20.8118L94.1546 20.679L94.0194 20.5462L93.8094 20.2952L93.7044 20.1474L93.6142 19.9853L93.5242 19.8079L93.4492 19.631L93.3744 19.4391L93.3144 19.2469L93.2697 19.055L93.2244 18.7747L93.1942 18.5681V18.1692L93.2244 17.9184L93.2546 17.697L93.2844 17.4904L93.3297 17.2981L93.3896 17.0915L93.4644 16.9145L93.5394 16.7227L93.6444 16.5601L93.7344 16.3832L93.8694 16.2354L93.9894 16.088L94.1242 15.9551L94.2742 15.837L94.4992 15.6745L94.6642 15.5859L94.8442 15.4974L95.0242 15.4238L95.2042 15.3645L95.384 15.3204L95.684 15.276L95.969 15.2462H96.164L96.2542 15.2315L96.554 15.2612L96.9142 15.3204L97.094 15.3645L97.2892 15.4238L97.4692 15.4974L97.6342 15.571L97.814 15.6743L97.9642 15.7776L98.1142 15.8957L98.2642 16.0285L98.3992 16.1614L98.5342 16.3092L98.744 16.6339L98.8942 16.9877L98.9688 17.1651L99.014 17.342L99.044 17.4898L99.1042 17.9031L99.1342 18.0949L99.1344 18.4797ZM78.3595 5.47602L78.2697 5.49078L78.1645 5.50554L78.0895 5.54982L77.9995 5.57934L77.9397 5.63838L77.8645 5.71218L76.9345 6.95204H80.6395L80.8195 6.92251L80.8945 6.89299L80.9845 6.84871L81.0595 6.78967L81.1197 6.74539L81.1795 6.67159L81.2245 6.62731L82.0345 5.47602H78.3595ZM91.1094 10.4059L91.4092 10.3321L91.6194 10.2583L92.0097 10.1107L92.2047 10.0074L92.5046 9.84503L92.6844 9.74171L92.8494 9.63839L93.0294 9.5203L93.1794 9.38746L93.3297 9.23986L93.4644 9.10702L93.6444 8.90038L93.7644 8.73802L93.8694 8.57565L93.9744 8.39874L94.0794 8.20686L94.1546 8.01497L94.2444 7.79357L94.2894 7.57217L94.3494 7.36553L94.3944 7.15888L94.4246 6.95224L94.4397 6.7458L94.4546 6.5244L94.4846 6.14043V5.97786L94.4696 5.78598L94.4092 5.3727L94.3642 5.18081L94.3042 4.97417L94.2442 4.78208L94.1692 4.5902L94.0792 4.39811L93.9892 4.2212L93.8842 4.04408L93.7642 3.86695L93.614 3.66031L93.4792 3.49795L93.179 3.20275L93.014 3.0699L92.849 2.96658L92.684 2.8485L92.519 2.74518L92.3392 2.64186L92.1742 2.55309L91.9942 2.46453L91.8142 2.39073L91.6192 2.31714L91.4392 2.25809L91.244 2.19905L91.0644 2.14001L90.674 2.05145L90.4788 2.02193L90.299 1.99241L90.1038 1.97765L89.9238 1.96289L89.7288 1.94813H89.6688L89.5488 1.96289H84.9138V10.5683H90.0438L90.2538 10.5535L90.674 10.4945L90.899 10.4502L91.1094 10.4059ZM90.5694 8.94466L90.3897 9.0037L90.2094 9.04798L89.8499 9.10702H87.1644V3.39483H89.3697L89.5799 3.40959H89.6699L89.7749 3.42415L89.9549 3.46843L90.1499 3.51271L90.3299 3.57175L90.5099 3.64535L90.6899 3.73411L90.8547 3.82267L91.0199 3.92599L91.1846 4.04408L91.3196 4.17692L91.4397 4.28003L91.5744 4.42784L91.6796 4.57544L91.7847 4.7378L91.8594 4.90017L91.9499 5.07729L92.0097 5.23965L92.0549 5.43153L92.0846 5.54982L92.1296 5.7417L92.1599 5.93358V6.47991L92.1296 6.6718L92.0996 6.86368L92.0396 7.05556L91.9947 7.21792L91.9346 7.40981L91.8596 7.60169L91.7697 7.77881L91.5596 8.13285L91.4397 8.29542L91.3196 8.44302L91.1997 8.57565L90.8997 8.7823L90.7349 8.87086L90.5694 8.94466ZM89.6694 20.664L89.5047 20.7233L89.2794 20.7821L89.0694 20.8414L88.8447 20.9002L88.6194 20.9447L88.4094 20.9888L88.1844 21.0332L87.9597 21.048L87.7644 21.0775L87.5395 21.1068L87.1194 21.1366H86.8944L86.6844 21.1216L86.4594 21.1068L86.1745 21.0921L85.9795 21.0628L85.7697 21.0332L85.5894 20.9888L85.3947 20.915L85.2144 20.8561L84.8244 20.664L84.6744 20.5607L84.5095 20.4574L84.3595 20.3393L84.1795 20.1474L84.0594 20.0002L83.9395 19.8524L83.8345 19.6899L83.7445 19.5277L83.6694 19.3508L83.5795 19.0552L83.5347 18.8485L83.5197 18.6421L83.5044 18.4502V18.2436L83.5197 18.0369L83.5347 17.8448L83.5945 17.4613L83.7144 17.1068L83.7895 16.9447L83.9094 16.738L84.0145 16.5755L84.1345 16.4133L84.4044 16.1476L84.5547 16.0146L84.7195 15.8965L84.8995 15.7932L85.0795 15.7046L85.2745 15.6163L85.4695 15.5425L85.6645 15.4832L85.8895 15.4391L86.0997 15.4096L86.3094 15.3799L86.5345 15.3651L86.7444 15.3504L87.0294 15.3651L87.2394 15.3799L87.4795 15.4096L87.7044 15.4244L87.9144 15.4685L88.1395 15.4982L88.3644 15.5425L88.5744 15.6015L88.7994 15.6607L89.0094 15.7196L89.2344 15.7784L89.6544 15.9262H89.6694L89.9094 16.0146V14.3614L89.8347 14.3321L89.6694 14.2729L89.6245 14.2581L89.4144 14.1843L89.1897 14.1107L88.9794 14.0515L88.7094 13.9926L88.4994 13.9482L88.2744 13.9041L87.8244 13.8448L87.3895 13.8008L86.7144 13.7565L86.4444 13.7415H86.0094L85.5594 13.7712L84.9894 13.8448L84.7797 13.8893L84.5695 13.9334L84.3595 13.9926L84.1645 14.0662L83.8947 14.1696L83.6994 14.2436L83.5044 14.3469L83.3247 14.4502L83.1295 14.5535L82.9644 14.6716L82.7544 14.8338L82.5895 14.9668L82.4395 15.0997L82.2745 15.2471L82.0047 15.5718L81.8095 15.8079L81.6897 15.9998L81.5845 16.1771L81.4795 16.369L81.4045 16.5607L81.3295 16.7085L81.2545 16.9152L81.1945 17.1068L81.1045 17.5201L81.0595 17.8596L81.0445 18.0662V18.4799L81.0595 18.7452L81.0895 18.9519L81.2245 19.5718L81.3295 19.8377L81.4045 20.0293L81.4945 20.2212L81.5995 20.3986L81.7045 20.5902L81.8545 20.8266L81.9897 20.9888L82.1245 21.1513L82.2594 21.3135L82.4245 21.4613L82.6345 21.6382L82.7995 21.771L82.9795 21.9041L83.1594 22.0074L83.3694 22.1403L83.5647 22.2288L83.7745 22.3172L83.9845 22.391L84.1795 22.465L84.3895 22.5238L84.8094 22.6124L85.4845 22.7011L85.7094 22.7161L86.0544 22.7305L86.2794 22.7452H86.7295L86.9547 22.7305H87.1795L87.4194 22.7011L87.6297 22.6864L87.8244 22.6716L88.2744 22.6124L88.4994 22.5683L88.7094 22.5238L88.9344 22.465L89.1596 22.4057L89.3694 22.3469L89.5794 22.2877L89.6694 22.2583L89.6844 22.2436L89.9244 22.17L89.9394 20.5607L89.7144 20.6497L89.6694 20.664Z" fill="#9E9E9E"/>
<path d="M40.9049 10.952V6.58303L37.785 8.32473L34.77 9.99263L31.9498 11.5277L29.3848 12.9004L27.075 14.1107L25.0048 15.1585L23.115 16.0591L21.4198 16.8118L19.83 17.476L18.315 18.0222L16.8148 18.5091L15.36 18.9223L13.905 19.2618L12.495 19.5572L11.1598 19.7786L9.89999 19.9558L8.77499 20.0738L7.76978 20.1327L6.92999 20.1772L6.19478 20.1474L5.08499 20.0293L4.31979 19.8524L3.76479 19.631L3.315 19.3358L2.955 18.9963L2.66979 18.5976L2.50479 18.1552L2.44479 17.6382L2.50479 17.0185L2.73 16.3102L3.09 15.5425L3.57 14.7602L4.16999 13.9779L4.84479 13.2251L5.53478 12.5312L6.23999 11.9262L7.00499 11.3358L7.85999 10.7011L8.74499 10.1255L9.59999 9.60887L10.485 9.12178L11.4 8.66422L12.3148 8.26569L13.245 7.89669L14.13 7.60149L14.955 7.35056L15.69 7.1882L16.365 7.08488L17.04 7.05536L17.745 7.1144L18.12 7.15868L17.925 6.47971L17.58 5.32842L17.3098 4.51661L17.1 4.02952L16.935 3.76384L16.77 3.60148L16.5898 3.4834L16.305 3.38008L15.855 3.33579L15.21 3.36531L14.4 3.46864L13.485 3.66052L12.5398 3.9262L11.5498 4.28024L10.59 4.67897L9.67478 5.09226L8.78978 5.54982L7.91999 6.03691L7.03499 6.58303L6.11999 7.1882L5.21999 7.82289L4.42499 8.45758L3.71979 9.03322L3.09 9.62363L2.47479 10.2436L1.905 10.9225L1.38 11.631L0.914999 12.3543L0.539999 13.1366L0.239791 13.9188L0.0747916 14.7157L0 15.4832L0.0599999 16.3102L0.209791 17.181L0.449999 18.0515L0.764791 18.8783L1.12479 19.631L1.545 20.2952L2.04 20.9447L2.60979 21.5349L3.22479 22.0517L3.88479 22.4947L4.61999 22.8485L5.48999 23.1585L6.52478 23.4392L7.63478 23.6308L8.77499 23.7491L9.89999 23.7786L10.98 23.7194L11.955 23.6458L12.885 23.5128L13.815 23.3506L14.7448 23.1733L15.615 22.9666L16.47 22.76L17.37 22.4947L18.2998 22.2288L19.23 21.9336L20.1748 21.6089L21.12 21.2546L22.065 20.8854L23.01 20.4871L23.97 20.0441L24.99 19.5572L25.575 19.2471L26.34 18.8485L27.39 18.2876L28.9198 17.476L31.035 16.3245L33.84 14.8042L37.2 12.9592L40.9049 10.952Z" fill="#9E9E9E"/>
</svg>
