<svg width="124" height="35" viewBox="0 0 124 35" fill="none" xmlns="http://www.w3.org/2000/svg">
<path fill-rule="evenodd" clip-rule="evenodd" d="M20.0369 0L16.2897 6.52459L10.2817 17.0501L0 34.9927H40.0738L29.885 17.3579L23.908 6.83235L20.0989 0.184658L20.0369 0ZM16.2897 11.2026H23.908C24.4593 11.2026 24.6798 11.7012 24.4345 12.1874L23.908 12.4952L20.6563 14.4957C20.4717 14.556 20.2822 14.6188 20.0989 14.6188C19.9143 14.6188 19.726 14.5559 19.5414 14.4957L16.2897 12.4952L15.7322 12.1874C15.487 11.7012 15.7384 11.2026 16.2897 11.2026ZM14.5554 12.3105C14.747 12.2648 14.9599 12.3118 15.1438 12.4337L16.2897 13.08L18.7362 14.5572C19.1041 14.7406 19.2292 15.2072 18.984 15.5728L16.2897 20.3432L12.9141 26.1907C12.6688 26.5564 12.2588 26.6806 11.8921 26.4984L10.2817 25.5752L8.20677 24.3441C7.90085 24.1607 7.77569 23.6941 7.95902 23.3285L10.2817 19.2968L14.0909 12.6491C14.1825 12.4663 14.3639 12.3562 14.5554 12.3105ZM25.3945 12.3105C25.6818 12.2591 25.9848 12.3749 26.1688 12.6491L29.885 19.2968L32.2387 23.3285C32.484 23.6941 32.3588 24.1607 31.9909 24.3441L28.3056 26.4984C27.9377 26.6806 27.498 26.5563 27.2527 26.1907L21.1828 15.5728C20.9375 15.2072 21.0626 14.7406 21.4305 14.5572L23.908 13.08L25.1158 12.4337C25.2078 12.3727 25.2988 12.3277 25.3945 12.3105ZM20.0989 15.6959C20.4048 15.6959 20.7207 15.8843 20.904 16.2499L23.908 21.4819L26.6023 26.1291C26.9702 26.7988 26.5937 27.5141 25.7352 27.5141H14.4625C13.666 27.5141 13.2287 26.7988 13.6573 26.1291L16.2897 21.4819L19.2937 16.2499C19.477 15.8843 19.7916 15.6959 20.0989 15.6959ZM8.39259 25.0212L10.2817 26.0676L12.2637 27.2063C12.6316 27.3885 12.7902 27.764 12.7902 28.1296L12.7282 32.6229C12.4223 33.0489 11.9503 33.0489 11.6443 32.6229L10.2817 30.1916L7.83515 26.006C7.58987 25.5185 7.84134 25.0212 8.39259 25.0212ZM31.8051 25.0212C32.3564 25.0212 32.6066 25.5185 32.3626 26.006L29.885 30.1916L28.5534 32.6229C28.2474 33.0489 27.7457 33.0489 27.4385 32.6229L27.3766 28.1296C27.3766 27.764 27.5661 27.3885 27.934 27.2063L29.885 26.0676L31.8051 25.0212ZM13.967 28.068H26.2307C26.6593 28.068 26.943 28.4423 26.943 28.8682V33.1154C26.943 33.5413 26.6593 33.854 26.2307 33.854H13.967C13.5991 33.854 13.2237 33.5413 13.2237 33.1154V28.8682C13.2237 28.4423 13.5991 28.068 13.967 28.068Z" fill="#9E9E9E"/>
<path fill-rule="evenodd" clip-rule="evenodd" d="M44.4714 0V34.9927H55.806V0H44.4714ZM46.2057 1.6927H54.0408V33.3H46.2057V1.6927Z" fill="#9E9E9E"/>
<path fill-rule="evenodd" clip-rule="evenodd" d="M74.2638 5.77062e-05C71.9362 5.77062e-05 69.595 0.31767 67.4507 1.16956C65.5517 1.96113 64.0305 3.15771 62.8673 4.86272C61.8255 6.44586 61.2569 8.26905 61.2569 10.1563C61.2569 13.1403 62.4882 15.6554 64.6325 17.6041C66.6542 19.3695 69.8948 20.4109 72.4676 21.0203C73.1415 21.1422 73.8377 21.2998 74.5116 21.482C74.9402 21.6038 75.2895 21.6679 75.6574 21.7897C76.2087 21.9104 76.8095 22.0999 77.3607 22.2821C77.7894 22.4656 78.6032 22.7783 78.9711 23.0823C79.1545 23.3261 79.2189 23.5489 79.2189 23.9133C79.2189 24.6445 78.7791 25.1505 78.2279 25.6368C77.3087 26.368 75.7689 26.5601 74.6664 26.5601H74.5116C73.3472 26.4997 72.0551 26.2437 71.136 25.4521C70.0942 24.599 69.647 23.1919 69.4017 21.9744L69.154 20.5279L59.9252 21.4204L60.173 23.0208C60.5396 26.4911 61.8131 29.6623 64.4467 31.9151C67.2042 34.2899 70.9589 34.9928 74.5116 34.9928H74.6045C77.0548 34.9928 79.7094 34.7047 82.0371 33.731C84.1194 32.9394 85.8277 31.5865 86.9921 29.6992C88.1553 27.9327 88.7573 25.9827 88.7573 23.8517C88.7573 21.903 88.3436 19.9234 87.3018 18.1581C86.26 16.575 84.8379 15.3476 83.1829 14.4957C81.8971 13.826 80.3796 13.261 78.9092 12.8338L87.9212 12.4953L87.8592 10.8333C87.7985 7.6683 86.5635 4.99445 84.1739 2.92381C81.5391 0.670983 77.9417 5.77062e-05 74.5116 5.77062e-05H74.2638ZM74.2638 1.56965H74.5116C78.3096 1.63121 81.16 2.51141 83.121 4.15487C85.0819 5.85988 86.1262 8.09424 86.2488 10.8949L79.9621 11.2027C79.6562 9.61952 79.0851 8.45617 78.1659 7.78648C77.3694 7.11678 76.1653 6.77086 74.5116 6.77086H74.2019C72.3636 6.77086 70.8771 7.11802 69.8353 7.84803C69.1614 8.33553 68.8753 8.9646 68.8753 9.75617C68.8753 10.4874 69.1602 11.0857 69.7734 11.6335C70.5079 12.1813 72.0613 12.7784 74.5116 13.3878C74.8795 13.5097 75.2276 13.5737 75.5955 13.6955C78.7197 14.4256 81.0002 15.1506 82.4706 15.8807C83.941 16.6722 85.0807 17.7112 85.8772 19.0506C86.7344 20.3297 87.1779 21.9645 87.1779 23.8517C87.1779 25.6171 86.701 27.2864 85.6604 28.8683C84.6793 30.3911 83.256 31.5224 81.4177 32.2537C79.5806 32.9837 77.3 33.3616 74.6045 33.3616H74.5116C70.5909 33.3616 67.5832 32.4494 65.4996 30.6841C63.4173 28.9188 62.1203 26.2461 61.7524 22.8361L67.8223 22.2821C68.1902 24.2912 68.9198 25.7402 70.083 26.7139C71.1855 27.6274 72.6733 28.1297 74.5116 28.1297H74.6664C76.6881 28.1297 78.2402 27.6902 79.2808 26.837C80.3226 25.9852 80.7983 25.0102 80.7983 23.9133C80.7983 23.123 80.6075 22.5838 80.1789 22.0975C79.7503 21.61 78.96 21.1397 77.9182 20.7741C77.3062 20.5907 76.2273 20.2768 74.5116 19.8508C74.0211 19.7289 73.4512 19.5418 72.8393 19.4199C69.4079 18.5668 67.0952 17.5906 65.6854 16.3731C63.8484 14.6681 62.8673 12.5925 62.8673 10.1563C62.8673 8.57435 63.3405 7.1254 64.1989 5.78601C65.0562 4.38507 66.3556 3.3473 68.0701 2.6776C69.7857 1.94759 71.8743 1.56965 74.2638 1.56965ZM74.2019 8.34045H74.5116C75.4308 8.40077 76.532 8.53127 77.2059 9.07909C77.9405 9.6269 78.2291 10.6573 78.3518 11.4489L78.5376 12.7722C77.6804 12.5285 76.8244 12.3081 75.9671 12.1259C75.6612 12.0656 75.1236 11.9401 74.5116 11.7566C73.1638 11.391 71.4382 10.8887 70.8263 10.3409C70.6417 10.219 70.4547 10.0602 70.4547 9.75617C70.4547 9.51242 70.581 9.32407 70.8263 9.20219C71.7442 8.5325 73.0982 8.34045 74.2019 8.34045Z" fill="#9E9E9E"/>
<path fill-rule="evenodd" clip-rule="evenodd" d="M93.1239 5.77062e-05V34.9928H107.277C107.645 34.9928 108.055 35.0223 108.423 34.962C110.199 34.962 112.001 34.7712 113.656 34.2234C115.616 33.6756 117.451 32.7609 118.921 31.3612C120.82 29.5958 122.028 27.4575 122.885 25.0828C123.682 22.83 124 20.2854 124 17.8503C124 15.1716 123.68 12.3746 122.823 9.81772C122.027 7.68676 120.946 5.67645 119.293 4.09331C117.76 2.44986 115.801 1.34683 113.656 0.677138C112.063 0.251193 110.199 0.0616104 108.423 0.0616104C107.932 5.77062e-05 107.394 5.77062e-05 106.905 5.77062e-05H93.1239ZM94.8272 1.69276H108.423C110.444 1.75431 111.996 1.94266 113.161 2.30828C115.06 2.79455 116.706 3.83233 118.116 5.23204C119.464 6.57266 120.509 8.33184 121.244 10.3409C121.918 12.35 122.297 14.8675 122.297 17.8503C122.297 20.4676 121.98 22.7019 121.306 24.5288C120.447 26.842 119.277 28.6689 117.744 30.1301C116.642 31.2258 115.06 32.0136 113.161 32.623C111.936 33.049 110.322 33.2385 108.423 33.3001H94.8272V1.69276ZM101.455 7.04784V28.0066H106.348C107.143 28.0066 107.809 27.945 108.423 27.945C109.219 27.8847 109.914 27.8207 110.405 27.6988C111.445 27.3935 112.363 26.9835 113.037 26.3754C113.773 25.766 114.313 24.7283 114.802 23.3285C115.232 21.9276 115.484 20.0379 115.484 17.5426C115.484 15.1063 115.232 13.2191 114.802 11.9413C114.313 10.6019 113.71 9.56412 112.913 8.83287C112.117 8.10286 111.074 7.59936 109.847 7.35561C109.481 7.23497 109.036 7.17095 108.423 7.17095C107.443 7.04908 106.112 7.04784 104.397 7.04784H101.455ZM103.096 8.70977H104.397C105.499 8.70977 106.607 8.70977 107.71 8.77132C107.954 8.77132 108.177 8.83287 108.423 8.83287C108.791 8.89443 109.168 8.89566 109.476 8.95598C110.333 9.13941 111.123 9.48533 111.736 10.0332C112.41 10.7028 112.916 11.5818 113.161 12.4337C113.712 13.9565 113.78 15.9594 113.78 17.5426C113.78 19.2464 113.712 21.253 113.161 22.8361C112.978 23.5674 112.535 24.5953 111.922 25.1443C111.371 25.6306 110.707 25.8854 109.971 26.0676C109.542 26.1895 108.974 26.2535 108.423 26.3138H103.096V8.70977Z" fill="#9E9E9E"/>
</svg>
