<svg width="142" height="46" viewBox="0 0 142 46" fill="none" xmlns="http://www.w3.org/2000/svg">
<path fill-rule="evenodd" clip-rule="evenodd" d="M57.7891 29.9804L56.0211 38.3016H51.9546L58.6731 8.14452H63.4903L69.811 38.3016H65.7003L63.9765 29.9804H57.7891ZM63.4903 26.6245L62.1201 19.4197C61.7223 17.3614 61.3245 14.6781 61.0158 12.5296H60.8382C60.5296 14.7221 60.0861 17.4956 59.6898 19.4197L58.2753 26.6245H63.4903ZM85.3329 7.33984V32.7092C85.3329 34.3655 85.4213 36.7818 85.509 38.3024H81.9295L81.6643 35.6631H81.5317C80.8244 37.1837 79.189 38.6611 77.0239 38.6611C73.0458 38.6611 70.6148 34.2753 70.6148 27.5202C70.6148 19.8239 73.8407 16.1995 77.2449 16.1995C78.968 16.1995 80.3382 17.0057 81.0896 18.6605H81.1781V7.33984H85.3329ZM81.1773 24.8347C81.1773 24.4327 81.1773 23.9405 81.1331 23.4916C80.9121 21.5235 79.8071 19.8231 78.305 19.8231C75.6964 19.8231 74.8131 23.4916 74.8131 27.5194C74.8131 31.994 75.9623 35.1254 78.1724 35.1254C79.1006 35.1254 80.3375 34.6332 81.0447 32.0387C81.1331 31.6808 81.1773 31.1431 81.1773 30.6523V24.8347ZM95.2295 38.6603C90.9428 38.6603 87.848 34.9464 87.848 27.4754C87.848 19.5547 91.5159 16.1987 95.4498 16.1987C99.6931 16.1987 102.742 20.0469 102.742 27.3852C102.742 36.0211 98.5431 38.6603 95.273 38.6603H95.2295ZM95.3614 35.3499C97.9243 35.3499 98.4997 30.7411 98.4997 27.4307C98.4997 24.1635 97.9251 19.5107 95.2737 19.5107C92.5325 19.5107 92.0029 24.1635 92.0029 27.4307C92.0029 31.0543 92.6217 35.3499 95.3179 35.3499H95.3614ZM105.247 7.33984H109.401V19.0177H109.49C110.595 17.0497 112.097 16.1987 113.998 16.1987C117.666 16.1987 119.965 20.4048 119.965 27.0719C119.965 34.857 116.827 38.6603 113.291 38.6603C111.169 38.6603 109.976 37.4962 109.047 35.5721H108.871L108.65 38.3016H105.07C105.159 36.8258 105.247 34.3648 105.247 32.7084V7.33984ZM109.401 30.6054C109.401 31.0991 109.445 31.5913 109.578 31.9485C110.24 34.5892 111.523 35.1254 112.362 35.1254C114.837 35.1254 115.765 31.815 115.765 27.3404C115.765 23.1791 114.794 19.8231 112.318 19.8231C110.947 19.8231 109.842 21.4787 109.533 23.0448C109.445 23.4923 109.4 24.0747 109.4 24.5214V30.6054H109.401ZM126.096 28.2793C126.14 33.8725 128.526 35.2589 131.046 35.2589C132.548 35.2589 133.83 34.9017 134.758 34.4535L135.377 37.4962C134.095 38.1674 132.151 38.5261 130.25 38.5261C124.858 38.5261 122.029 34.4095 122.029 27.6976C122.029 20.5831 125.255 16.198 129.72 16.198C134.184 16.198 136.261 20.5383 136.261 25.9981C136.261 27.0712 136.216 27.7431 136.173 28.3241L126.096 28.2793ZM132.327 25.2821C132.372 21.434 131.046 19.3764 129.411 19.3764C127.244 19.3764 126.272 22.5534 126.14 25.2821H132.327Z" fill="#9E9E9E"/>
<path fill-rule="evenodd" clip-rule="evenodd" d="M28.5399 8.22485H40.9508V38.3014L28.5399 8.22485ZM19.7969 8.22485H7.3772V38.3014L19.7969 8.22485ZM24.1691 19.3091L32.0767 38.3014H26.8949L24.5301 32.2525H18.742L24.1691 19.3091Z" fill="#9E9E9E"/>
<path fill-rule="evenodd" clip-rule="evenodd" d="M135.908 16.1426C136.033 16.1432 136.156 16.1687 136.271 16.2178C136.385 16.2668 136.489 16.3383 136.577 16.4282C136.664 16.5182 136.733 16.6247 136.779 16.7417C136.825 16.8587 136.848 16.9838 136.847 17.1099C136.847 17.6558 136.431 18.0816 135.904 18.0816C135.382 18.0816 134.957 17.6565 134.957 17.1099C134.956 16.9833 134.98 16.8579 135.027 16.7408C135.074 16.6237 135.144 16.5171 135.232 16.4273C135.32 16.3374 135.425 16.266 135.54 16.2172C135.655 16.1683 135.779 16.143 135.904 16.1426H135.908ZM135.904 16.2925C135.484 16.2925 135.139 16.6587 135.139 17.1099C135.139 17.57 135.484 17.9309 135.908 17.9309C136.333 17.9354 136.672 17.57 136.672 17.1143C136.672 16.6587 136.333 16.2925 135.908 16.2925H135.904ZM135.726 17.6737H135.556V16.5938C135.645 16.5811 135.731 16.5677 135.858 16.5677C136.02 16.5677 136.125 16.6027 136.189 16.6497C136.253 16.6967 136.287 16.7698 136.287 16.8735C136.287 17.0151 136.193 17.1017 136.078 17.136V17.1442C136.172 17.1613 136.236 17.2478 136.257 17.4067C136.283 17.5745 136.308 17.6386 136.325 17.6737H136.147C136.121 17.6386 136.096 17.5402 136.075 17.3985C136.049 17.2605 135.981 17.209 135.845 17.209H135.726V17.6737H135.726ZM135.726 17.0755H135.849C135.989 17.0755 136.109 17.0241 136.109 16.8906C136.109 16.7959 136.04 16.7012 135.849 16.7012C135.794 16.7012 135.755 16.7057 135.726 16.7101V17.0755ZM42.5868 8.22485C42.7113 8.22543 42.8345 8.25097 42.9492 8.3C43.0639 8.34902 43.1679 8.42057 43.2552 8.51049C43.3424 8.60042 43.4112 8.70696 43.4576 8.82395C43.504 8.94093 43.527 9.06606 43.5254 9.1921C43.5254 9.738 43.1091 10.1638 42.5824 10.1638C42.0601 10.1638 41.635 9.73875 41.635 9.1921C41.6343 9.06558 41.6583 8.94016 41.7056 8.82304C41.7529 8.70591 41.8225 8.59937 41.9105 8.50952C41.9985 8.41967 42.1031 8.34828 42.2184 8.29943C42.3337 8.25059 42.4574 8.22524 42.5824 8.22485H42.5868ZM42.5824 8.37475C42.1618 8.37475 41.8177 8.74092 41.8177 9.1921C41.8177 9.65224 42.1618 10.0132 42.5868 10.0132C43.0111 10.0177 43.3515 9.65224 43.3515 9.19658C43.3515 8.74092 43.0111 8.37475 42.5868 8.37475H42.5824ZM42.4041 9.7559H42.2339V8.67604C42.3338 8.65926 42.4348 8.65079 42.536 8.65068C42.6973 8.65068 42.8034 8.68424 42.8668 8.73197C42.9308 8.77895 42.9647 8.85278 42.9647 8.9557C42.9647 9.09739 42.8712 9.1839 42.7563 9.21821V9.22641C42.8498 9.24356 42.9139 9.33007 42.9353 9.48966C42.9603 9.65746 42.9861 9.7216 43.003 9.75665H42.8248C42.799 9.7216 42.7732 9.62315 42.7526 9.48146C42.7268 9.34349 42.659 9.29204 42.5227 9.29204H42.4041V9.7559ZM42.4041 9.1578H42.5271C42.6671 9.1578 42.7865 9.10634 42.7865 8.97285C42.7865 8.87814 42.7187 8.78343 42.5271 8.78343C42.4719 8.78343 42.4336 8.7879 42.4041 8.79238V9.1578Z" fill="#9E9E9E"/>
</svg>
