<svg width="124" height="42" viewBox="0 0 124 42" fill="none" xmlns="http://www.w3.org/2000/svg">
<path fill-rule="evenodd" clip-rule="evenodd" d="M108.44 25.717C118.968 20.4766 124.775 14.5114 123.917 9.57108C122.111 -0.811963 91.1766 -2.48433 59.2522 3.28139C44.6425 5.92058 30.67 9.88186 21.2108 13.8101C21.7131 13.7778 22.0645 13.8015 22.0645 13.8015C26.1531 13.9164 25.9033 16.5024 25.9033 16.5024L25.9097 18.0822H22.6501V17.0099C22.6501 16.2491 21.7392 16.1981 21.7392 16.1981C21.0421 16.1981 20.8792 16.6797 20.8792 16.6797C20.4932 17.4147 21.1536 18.0492 21.1536 18.0492C21.4902 18.4303 23.1849 19.2285 23.1849 19.2285C23.7338 19.4445 24.6185 20.0022 24.6185 20.0022C26.2766 21.0164 26.1263 22.9436 26.1263 22.9436V24.2126C25.9273 27.3578 21.6644 27.268 21.6644 27.268C17.2012 27.268 17.2985 24.2894 17.2985 24.2894V22.7325H20.7712V23.8049C20.7712 24.7179 21.6383 24.7588 21.6383 24.7588C22.5859 24.7961 22.6663 23.8637 22.6663 23.8637C22.7954 22.9572 21.8133 22.3866 21.8133 22.3866C20.9454 21.9286 20.0811 21.4637 19.2204 20.992C18.4225 20.4594 18.0986 19.9771 18.0986 19.9771C17.525 19.2421 17.5631 18.1002 17.5631 18.1002V17.1111C17.5631 15.7416 17.925 15.349 17.925 15.349C17.9401 15.3194 17.9559 15.2902 17.9723 15.2614C6.3111 20.7436 -0.82758 27.0979 0.0769257 32.3225C1.91204 42.9208 31.0855 44.3111 65.3982 38.9351C81.1974 36.4603 94.9471 31.904 105.352 27.1855C105.278 27.1891 105.199 27.1891 105.124 27.1891C105.124 27.1891 100.918 27.535 100.819 24.0862V17.4154C100.819 17.4154 100.295 13.7384 105.007 13.7384C105.007 13.7384 108.074 13.6372 108.884 15.4882C108.884 15.4882 109.284 15.9835 109.178 18.0305H105.91V16.9819C105.91 16.9819 105.905 16.1349 105.057 16.1349C105.057 16.1349 104.171 16.173 104.171 16.8828V23.7812C104.171 23.7812 104.134 24.7071 105.132 24.7071C105.132 24.7071 105.95 24.6884 105.95 23.7144V21.7198H105.058V19.8622H109.255V23.7812C109.255 23.7812 109.244 24.6052 108.908 25.0868C108.91 25.0875 108.57 25.6179 108.44 25.717ZM96.476 26.8352H92.6272L89.1948 19.1316H89.0501L89.2441 26.8345H86.0142V14.2379H89.9814L93.2968 21.8791H93.4386L93.2058 14.2365H96.476V26.8352ZM76.2375 23.7065C76.2375 24.7738 77.2337 24.72 77.2337 24.72C78.1819 24.72 78.1333 23.68 78.1333 23.68V14.1834H81.5947V23.7948C81.5947 27.258 77.2845 27.2056 77.2845 27.2056C72.3224 27.2056 72.6858 23.6297 72.6858 23.6297V14.1826H76.2262L76.2375 23.7065ZM65.3594 18.0822V17.0099C65.3594 16.2483 64.45 16.1981 64.45 16.1981C63.7515 16.1981 63.5885 16.6797 63.5885 16.6797C63.2026 17.4147 63.8644 18.0492 63.8644 18.0492C64.2009 18.4289 65.8956 19.2285 65.8956 19.2285C66.4438 19.4438 67.3286 20.0022 67.3286 20.0022C68.9866 21.0164 68.8377 22.9436 68.8377 22.9436V24.2126C68.6381 27.3578 64.3759 27.2688 64.3759 27.2688C59.9119 27.2688 60.0093 24.2894 60.0093 24.2894V22.7325H63.4827V23.8049C63.4827 24.7179 64.3498 24.7588 64.3498 24.7588C65.298 24.7961 65.3763 23.8637 65.3763 23.8637C65.5076 22.9572 64.5247 22.3866 64.5247 22.3866C63.657 21.9284 62.7927 21.4636 61.9319 20.992C61.1332 20.4594 60.8101 19.9771 60.8101 19.9771C60.2372 19.2414 60.2731 18.0994 60.2731 18.0994V17.1104C60.2731 15.7409 60.6351 15.3483 60.6351 15.3483C61.5579 13.5855 64.7738 13.8008 64.7738 13.8008C68.8624 13.9156 68.6127 16.5024 68.6127 16.5024L68.6197 18.0822H65.3594ZM48.2549 14.2343L49.2984 21.1291H49.5531L50.6446 14.235H56.0357L56.3842 26.8331H53.1429L53.066 17.3436H52.8424L51.154 26.8309H47.7639L46.0543 17.3408H45.801L45.7622 26.8338H42.5393L42.8117 14.2343H48.2549ZM35.6081 26.8194L34.3381 17.0529H34.0538L32.7831 26.8194H29.3139L31.4574 14.2236H36.9345L39.0793 26.8194H35.6081Z" fill="#9E9E9E"/>
</svg>
