<svg width="136" height="28" viewBox="0 0 136 28" fill="none" xmlns="http://www.w3.org/2000/svg">
<g clip-path="url(#clip0_397_1541)">
<path d="M96.6248 13.9578C96.6265 13.8934 96.6139 13.8294 96.5882 13.7704C96.5624 13.7113 96.524 13.6586 96.4758 13.616C96.3841 13.5457 96.2704 13.5106 96.1551 13.5171H95.5983L91.305 23.2603L90.1859 18.0411C90.1213 17.5824 89.753 17.2694 89.3192 17.2946H88.5971L85.2074 23.2036L85.2406 13.9848C85.2434 13.9172 85.2311 13.8498 85.2045 13.7875C85.1779 13.7253 85.1378 13.6698 85.0871 13.625C84.9897 13.5489 84.8682 13.5106 84.7449 13.5171H84.0209V24.5923H84.9433V24.5905L84.9631 24.5923C85.2344 24.595 85.4796 24.5266 85.6798 24.3809C85.8622 24.2505 86.0193 24.0688 86.1577 23.8494L89.1252 18.5474L90.3611 24.5914H91.1532C91.658 24.5914 92.0801 24.2973 92.3011 23.7954L96.5674 14.1881C96.5979 14.1089 96.6231 14.0577 96.6248 13.9569M135.52 13.5162H130.955C128.824 13.5216 128.598 15.2754 128.588 16.102C128.588 16.9717 129.219 17.6642 129.534 17.9457L132.641 20.9938C133.01 21.3563 133.189 21.7853 133.189 22.1828C133.189 22.8573 132.674 23.4096 131.842 23.406C131.841 23.4114 127.82 23.4123 127.782 23.4231C127.651 23.4473 127.513 23.6209 127.515 23.7585H127.504L127.515 23.7639V24.595H132.033C134.166 24.5869 134.39 22.8376 134.402 22.011L134.401 22.0038C134.402 20.8598 133.35 19.9748 133.343 19.9712L130.396 17.067C130.028 16.7037 129.801 16.3313 129.799 15.9293C129.801 15.2521 130.316 14.7034 131.144 14.7034C131.149 14.7016 135.217 14.698 135.25 14.6881L135.261 14.7178L135.252 14.6881C135.384 14.6629 135.524 14.4894 135.522 14.3518C135.522 14.3518 135.52 14.35 135.522 14.3482L135.52 13.5171M102.945 14.6279C100.916 14.5154 98.5981 15.7116 97.8006 18.9405C97.0156 22.1063 98.4832 23.6443 100.471 23.8997L100.677 23.9087C102.73 24.0185 104.913 22.8205 105.681 19.5916C106.432 16.4249 104.962 14.8338 102.945 14.6279ZM106.868 19.687C106.121 22.8349 103.855 25.3199 100.239 25.0402V25.0384C96.8736 24.6489 95.9099 21.6836 96.6195 18.8433C97.4036 15.6982 99.6606 13.214 103.225 13.4901V13.4937C106.545 13.8814 107.539 16.8494 106.868 19.687ZM127.008 13.6223C126.919 13.5612 126.812 13.5312 126.703 13.5369H126.165L120.472 18.4116L121.229 14.1035C121.25 14.0176 121.245 13.9274 121.216 13.8441C121.186 13.7607 121.133 13.6877 121.063 13.634C120.963 13.5584 120.841 13.5174 120.716 13.5171H120.168L118.112 24.5923H119.33L120.229 19.6906L124.737 24.595H125.276C125.384 24.5993 125.49 24.5683 125.579 24.5068C125.624 24.4711 125.661 24.4252 125.685 24.3729C125.71 24.3206 125.722 24.2633 125.72 24.2055C125.72 24.0068 125.558 23.8062 125.558 23.8062L121.292 19.1653L126.986 14.323C126.986 14.323 127.146 14.1863 127.146 13.9236C127.148 13.8662 127.136 13.8092 127.112 13.757C127.088 13.7048 127.052 13.6587 127.008 13.6223ZM115.579 15.1981C115.356 14.9822 115.017 14.8788 114.492 14.7799C114.287 14.7488 114.081 14.7293 113.874 14.7214C113.241 14.6863 111.36 14.7151 110.784 14.7196L110.055 18.7489C110.488 18.7552 110.984 18.7615 111.333 18.7633C112.318 18.7633 113.27 18.7318 113.943 18.5474C115.676 18.078 116.534 16.1101 115.578 15.1981M116.696 14.5289C117.189 15.0893 117.226 16.1299 117.086 16.7711C116.915 17.5536 116.172 19.5296 113.385 19.7787L115.732 23.8062C115.732 23.8062 115.892 24.0463 115.892 24.2055C115.894 24.3108 115.847 24.4412 115.752 24.5068C115.665 24.5693 115.559 24.6004 115.451 24.595H114.832L112.079 19.8444L109.861 19.8345L109.001 24.595H107.783L109.841 13.5171H112.683C114.363 13.5171 115.836 13.5423 116.696 14.5289ZM34.9031 15.8825C34.7648 16.7747 35.0387 17.8216 36.0312 18.516L39.5664 20.9866C39.9373 21.2429 40.1205 21.4201 40.0756 21.7196C40.0092 22.1333 39.7936 22.2997 39.0607 22.2997H34.9489C34.5088 22.2997 34.2699 22.5156 34.19 23.0129V24.5473H39.0068C41.1175 24.5473 42.1621 23.3007 42.3731 21.975C42.5707 20.7294 42.1522 19.839 41.3492 19.2652L37.5913 16.5949C37.2895 16.3781 37.2141 16.2657 37.2356 16.102C37.2689 15.8304 37.5168 15.7188 37.9443 15.7188H42.2375C42.762 15.7188 43.0611 15.1819 43.1446 14.6495V13.4703H37.4683C36.2081 13.4703 35.107 14.5982 34.9031 15.8825ZM77.6997 13.4685H71.7448L71.7152 13.6475C71.576 14.3985 71.638 15.27 72.8262 15.27H77.2362C78.9822 15.27 79.6505 16.5355 79.2176 18.909C78.8206 21.0837 77.6512 22.7449 75.8737 22.7449H73.4828L74.6172 16.5148H72.5837C72.3098 16.5148 72.1212 16.7145 72.0897 16.8917L70.694 24.5455H75.3573C78.7999 24.5455 81.2007 22.9221 81.9444 18.8289C82.5192 15.6838 81.2115 13.4685 77.6997 13.4685ZM63.5635 22.7467H58.8643L60.4882 13.8463C60.4958 13.7996 60.4931 13.7518 60.4803 13.7063C60.4675 13.6608 60.4449 13.6186 60.4141 13.5828C60.3832 13.547 60.345 13.5183 60.3019 13.4989C60.2588 13.4795 60.2121 13.4697 60.1648 13.4703H58.0973L56.0773 24.5455H63.8626L64.0647 23.4393C64.1545 22.9428 63.9883 22.7467 63.5635 22.7467ZM69.4213 13.4685H67.3528L65.3329 24.5455H67.792L69.7437 13.8445C69.7517 13.7978 69.7492 13.7499 69.7365 13.7042C69.7239 13.6586 69.7013 13.6163 69.6704 13.5803C69.6395 13.5444 69.6011 13.5158 69.5579 13.4965C69.5147 13.4771 69.4677 13.4676 69.4204 13.4685M50.294 15.3672C48.0495 15.3672 46.8738 16.674 46.4526 19.2436C46.0313 21.8185 46.7786 23.1218 49.0222 23.1218C51.2658 23.1218 52.4406 21.8176 52.8619 19.2436C53.284 16.674 52.5376 15.3672 50.2931 15.3672M55.304 19.2436C54.7875 22.3888 52.6634 25.0222 48.7115 25.0222C44.7569 25.0222 43.4958 22.3888 44.0123 19.2436C44.5269 16.1002 46.6529 13.4694 50.6057 13.4694C54.5576 13.4694 55.8204 16.1002 55.304 19.2436ZM26.5682 9.61104C24.2177 9.2243 20.0161 9.075 18.579 11.2803C17.4698 12.9838 19.567 15.3168 21.4765 17.577C23.0069 19.3875 24.6721 21.117 23.9922 22.1279C23.4372 22.9545 19.8777 22.9527 18.6509 23.0183C17.1626 23.0966 15.0178 23.1011 14.6432 23.3061C14.3073 23.486 14.1205 24.0481 15.3797 24.2739C16.392 24.4565 18.8035 24.8261 21.3462 24.8243C24.0003 24.8243 26.7891 24.3881 27.3936 22.3303C27.8795 20.6772 26.1945 18.9054 24.7126 17.1093C23.0914 15.1414 21.4477 13.7393 21.5869 12.3461C21.692 11.2614 23.8144 11.2003 27.337 11.1382C28.069 11.1247 29.5276 11.0896 29.2465 10.5104C28.9959 9.99868 27.9046 9.82959 26.5682 9.61104ZM15.7345 14.5172C14.2274 13.482 11.5401 13.1358 9.32882 13.2509C7.35915 13.3543 3.97218 13.9821 4.09972 14.6063C4.22007 15.2808 6.36309 15.0713 7.34568 15.0713C9.50576 15.0713 12.934 15.2035 13.4738 16.5966C14.6379 19.6006 6.74211 24.9916 5.05806 24.4736C4.29641 24.2406 6.60559 20.321 7.44268 18.9126C7.94026 18.0708 8.69921 16.7495 8.05253 16.6587C7.32861 16.5589 6.53194 17.8027 6.0137 18.5205C4.60897 20.4694 3.17102 22.5983 2.01688 24.7848C1.65851 25.4602 0.475629 27.4928 0.881599 27.7555C1.26152 28.0001 3.06683 27.652 5.36343 26.74C12.5847 23.8782 15.836 20.1475 16.7072 17.0652C17.0126 15.9797 16.4845 15.0326 15.7345 14.5172ZM10.3725 1.35278C10.2252 0.866209 12.6332 0.233933 15.2747 0.117012C17.9359 9.04873e-05 21.084 0.529835 21.6714 2.28815C22.6324 5.16892 17.759 9.37 13.5134 11.435C12.4715 11.9387 11.8419 12.0781 11.5778 12.043C11.3281 12.0097 11.2886 11.7759 11.3703 11.6149C11.5203 11.3118 12.2074 10.6948 13.1227 10.0239C17.9027 6.52701 19.4565 3.96193 18.5539 2.92403C17.9745 2.25847 15.5522 1.79439 13.0355 1.79439C12.3529 1.79439 10.5584 1.94369 10.3725 1.35368" fill="#9E9E9E"/>
</g>
<defs>
<clipPath id="clip0_397_1541">
<rect width="136" height="28" fill="white"/>
</clipPath>
</defs>
</svg>
