<svg width="48" height="48" viewBox="0 0 48 48" fill="none" xmlns="http://www.w3.org/2000/svg">
<path d="M46.2618 30.1484C46.1236 27.5337 45.7187 24.9383 45.0531 22.3998C44.4858 20.138 43.6418 17.949 42.5389 15.8785C38.6528 9.30496 34.4343 10.323 29.3818 11.6028C27.7061 12.0433 25.9993 12.3661 24.2749 12.5685H23.7189C21.9947 12.365 20.288 12.0422 18.612 11.6028C13.5655 10.3695 9.34101 9.30496 5.45492 15.9309C4.33944 17.9942 3.50072 20.1854 2.95889 22.4521C2.29322 24.9907 1.88836 27.586 1.75015 30.2008C1.64137 32.9233 1.91937 34.9012 2.52979 36.2915C2.75806 36.8586 3.1154 37.3693 3.57557 37.7861C4.03573 38.2028 4.58704 38.5151 5.189 38.6999C6.38399 38.9629 7.63623 38.8297 8.74268 38.3218C10.9124 37.4666 13.4084 35.6516 15.85 33.4585C17.5725 31.8587 20.7938 31.056 24.009 31.056C27.2242 31.056 30.4213 31.8587 32.1619 33.4585C34.5794 35.6516 37.0996 37.4666 39.2632 38.3218C40.3777 38.8021 41.6204 38.9343 42.8169 38.6999C43.4281 38.5151 43.9866 38.1969 44.449 37.77C44.9113 37.3432 45.2649 36.8193 45.4822 36.2392C46.0926 34.9012 46.3706 32.9233 46.2618 30.1484Z" stroke="#4EBD09" stroke-miterlimit="10"/>
<path d="M17.5066 22.7197C17.3976 22.825 17.2674 22.9077 17.124 22.9628C16.9805 23.0178 16.8269 23.044 16.6725 23.0396H15.9171C15.7785 23.0396 15.6412 23.066 15.5133 23.1172C15.3853 23.1685 15.2691 23.2435 15.1713 23.3381C15.0736 23.4328 14.9963 23.545 14.9438 23.6685C14.8913 23.792 14.8647 23.9242 14.8655 24.0576V24.7499C14.8686 24.8983 14.8408 25.0458 14.7837 25.1837C14.7266 25.3216 14.6414 25.447 14.5331 25.5527C14.3699 25.7134 14.1604 25.8233 13.9317 25.8681C13.703 25.9129 13.4655 25.8907 13.2501 25.8042C13.0346 25.7178 12.851 25.5711 12.7231 25.3831C12.5952 25.1951 12.5289 24.9746 12.5326 24.7499V23.9995C12.5326 23.8661 12.5052 23.734 12.452 23.6108C12.3988 23.4876 12.3208 23.3757 12.2225 23.2817C12.1242 23.1876 12.0076 23.1132 11.8793 23.0626C11.751 23.0121 11.6136 22.9865 11.475 22.9873H10.6772C10.5279 22.9877 10.38 22.9596 10.2421 22.9047C10.1041 22.8498 9.9788 22.7691 9.87341 22.6673C9.66776 22.4668 9.54895 22.1985 9.54101 21.9169C9.5365 21.7683 9.56367 21.6204 9.62084 21.4823C9.67801 21.3443 9.76397 21.2189 9.87341 21.1141L9.92781 21.0617C10.1525 20.8967 10.425 20.8032 10.7074 20.7941H11.481C11.6196 20.7949 11.757 20.7693 11.8853 20.7188C12.0136 20.6682 12.1302 20.5938 12.2285 20.4997C12.3268 20.4057 12.4048 20.2938 12.4581 20.1706C12.5113 20.0474 12.5387 19.9153 12.5387 19.7819V19.0315C12.5342 18.8829 12.5613 18.735 12.6185 18.5969C12.6757 18.4589 12.7616 18.3335 12.8711 18.2287C13.0959 18.0224 13.3945 17.9073 13.7051 17.9073C14.0157 17.9073 14.3143 18.0224 14.5391 18.2287L14.5935 18.2869C14.7656 18.5006 14.8629 18.7612 14.8715 19.0315V19.7819C14.8707 19.9146 14.8972 20.0461 14.9494 20.1688C15.0016 20.2916 15.0785 20.4032 15.1756 20.4973C15.2728 20.5914 15.3883 20.666 15.5156 20.717C15.6428 20.7679 15.7793 20.7941 15.9171 20.7941H16.6967C16.9217 20.808 17.1382 20.8821 17.3217 21.0082C17.5052 21.1343 17.6484 21.3072 17.7352 21.5075C17.8219 21.7078 17.8488 21.9275 17.8127 22.1417C17.7765 22.3559 17.6789 22.5561 17.5307 22.7197H17.5066Z" stroke="#4EBD09" stroke-miterlimit="10"/>
<path d="M33.6612 19.9916C34.7327 19.9916 35.6012 19.1555 35.6012 18.1242C35.6012 17.0929 34.7327 16.2568 33.6612 16.2568C32.5898 16.2568 31.7212 17.0929 31.7212 18.1242C31.7212 19.1555 32.5898 19.9916 33.6612 19.9916Z" stroke="#4EBD09" stroke-miterlimit="10"/>
<path d="M33.6612 27.5773C34.7327 27.5773 35.6012 26.7412 35.6012 25.7099C35.6012 24.6786 34.7327 23.8425 33.6612 23.8425C32.5898 23.8425 31.7212 24.6786 31.7212 25.7099C31.7212 26.7412 32.5898 27.5773 33.6612 27.5773Z" stroke="#4EBD09" stroke-miterlimit="10"/>
<path d="M29.7208 23.784C30.7922 23.784 31.6608 22.948 31.6608 21.9167C31.6608 20.8854 30.7922 20.0493 29.7208 20.0493C28.6493 20.0493 27.7808 20.8854 27.7808 21.9167C27.7808 22.948 28.6493 23.784 29.7208 23.784Z" stroke="#4EBD09" stroke-miterlimit="10"/>
<path d="M37.6016 23.784C38.6731 23.784 39.5417 22.948 39.5417 21.9167C39.5417 20.8854 38.6731 20.0493 37.6016 20.0493C36.5302 20.0493 35.6616 20.8854 35.6616 21.9167C35.6616 22.948 36.5302 23.784 37.6016 23.784Z" stroke="#4EBD09" stroke-miterlimit="10"/>
</svg>
