<svg width="48" height="48" viewBox="0 0 48 48" fill="none" xmlns="http://www.w3.org/2000/svg">
<path d="M39.6846 35.1376L44.6119 38.1083C45.1618 38.4393 45.6166 38.9063 45.9322 39.4641C46.2477 40.0219 46.4133 40.6514 46.4128 41.2917V45.7772C46.4128 45.9459 46.3455 46.1078 46.2258 46.2271C46.1061 46.3465 45.9437 46.4135 45.7743 46.4135H25.9627C25.7934 46.4135 25.631 46.3465 25.5112 46.2271C25.3915 46.1078 25.3242 45.9459 25.3242 45.7772V41.2917C25.3241 40.6515 25.4898 40.022 25.8053 39.4644C26.1208 38.9067 26.5754 38.4396 27.1251 38.1083L32.0542 35.1376" stroke="#4EBD09" stroke-miterlimit="10" stroke-linecap="round"/>
<path d="M35.8715 36.3896C34.1887 36.3896 32.5749 35.7233 31.385 34.5374C30.1951 33.3515 29.5267 31.7431 29.5267 30.066V25.4698C29.5267 21.3406 31.3744 20.5175 31.9903 20.3584C32.0454 20.3438 32.0967 20.3178 32.141 20.282C32.1852 20.2462 32.2214 20.2016 32.2471 20.1509C32.4206 19.8258 33.1146 19.1462 35.8055 19.1462C39.3414 19.1462 42.2249 21.0622 42.2249 25.4698V30.066C42.2249 30.8971 42.0605 31.7201 41.7411 32.4879C41.4217 33.2557 40.9536 33.9532 40.3635 34.5405C39.7734 35.1278 39.073 35.5934 38.3022 35.9107C37.5314 36.228 36.7054 36.3907 35.8715 36.3896V36.3896Z" stroke="#4EBD09" stroke-miterlimit="10" stroke-linecap="round"/>
<path d="M42.2167 27.5743H40.8929C40.2338 27.5742 39.597 27.3358 39.1007 26.9034L37.6589 25.6445C36.9547 25.0307 36.051 24.6921 35.1155 24.6918H33.3579C33.1462 24.6915 32.9395 24.7556 32.7653 24.8755C32.5911 24.9954 32.4577 25.1653 32.3829 25.3627L31.9613 26.5126C31.8479 26.8217 31.642 27.0886 31.3714 27.2773C31.1008 27.4659 30.7786 27.5672 30.4484 27.5674H29.5254" stroke="#4EBD09" stroke-miterlimit="10" stroke-linecap="round"/>
<path d="M42.4867 36.8271L38.9525 38.9384C38.8518 38.9995 38.7334 39.0248 38.6164 39.01C38.4995 38.9952 38.3911 38.9414 38.3088 38.8572L35.8799 36.3896" stroke="#4EBD09" stroke-miterlimit="10" stroke-linecap="round"/>
<path d="M37.7135 38.2551L37.2173 40.2886C37.1911 40.3941 37.2002 40.5052 37.2433 40.6051L38.6972 43.9891C38.7326 44.0718 38.7487 44.1616 38.7442 44.2514C38.7397 44.3413 38.7147 44.429 38.6712 44.5078L37.6059 46.4099" stroke="#4EBD09" stroke-miterlimit="10" stroke-linecap="round"/>
<path d="M29.2588 36.8271L32.7929 38.9384C32.8936 38.9995 33.0121 39.0248 33.129 39.01C33.246 38.9952 33.3544 38.9414 33.4366 38.8572L35.8656 36.3896" stroke="#4EBD09" stroke-miterlimit="10" stroke-linecap="round"/>
<path d="M34.0376 38.2551L34.5338 40.2886C34.56 40.3941 34.5509 40.5052 34.5078 40.6051L33.0521 43.9891C33.0166 44.0719 33.0006 44.1617 33.0054 44.2517C33.0102 44.3416 33.0357 44.4292 33.0799 44.5078L34.1434 46.4099" stroke="#4EBD09" stroke-miterlimit="10" stroke-linecap="round"/>
<path d="M37.1578 40.4392H34.5762" stroke="#4EBD09" stroke-miterlimit="10" stroke-linecap="round"/>
<path d="M15.9416 18.9129L20.8689 21.8819C21.4181 22.2134 21.8721 22.6807 22.187 23.2384C22.5019 23.7961 22.667 24.4253 22.6664 25.0653V29.5507C22.6664 29.6343 22.6498 29.717 22.6178 29.7943C22.5857 29.8715 22.5386 29.9416 22.4793 30.0007C22.4201 30.0598 22.3497 30.1067 22.2722 30.1386C22.1948 30.1706 22.1117 30.1871 22.0279 30.1871H2.2249C2.14105 30.1871 2.05803 30.1706 1.98056 30.1386C1.9031 30.1067 1.83272 30.0598 1.77343 30.0007C1.71414 29.9416 1.66711 29.8715 1.63503 29.7943C1.60294 29.717 1.58643 29.6343 1.58643 29.5507V25.0653C1.58666 24.4251 1.75252 23.7958 2.06798 23.2382C2.38345 22.6805 2.83786 22.2134 3.38733 21.8819L8.31639 18.9111" stroke="#4EBD09" stroke-miterlimit="10" stroke-linecap="round"/>
<path d="M18.4728 10.3861V13.8445C18.4728 15.5216 17.8043 17.13 16.6145 18.3159C15.4246 19.5018 13.8107 20.168 12.128 20.168V20.168C11.2944 20.168 10.4689 20.0043 9.69875 19.6862C8.92862 19.3681 8.22895 18.9018 7.63971 18.3141C7.05047 17.7263 6.58323 17.0286 6.26468 16.2608C5.94613 15.493 5.78252 14.6701 5.78321 13.8393V10.3913" stroke="#4EBD09" stroke-miterlimit="10" stroke-linecap="round"/>
<path d="M18.5988 20.521C16.7354 21.9211 14.4653 22.6784 12.1317 22.6784C9.79807 22.6784 7.52794 21.9211 5.66455 20.521V20.521" stroke="#4EBD09" stroke-miterlimit="10" stroke-linecap="round"/>
<path d="M2.61035 10.348H21.6465" stroke="#4EBD09" stroke-miterlimit="10" stroke-linecap="round"/>
<path d="M11.3133 1.58643H12.9511C14.5736 1.58643 16.1296 2.22879 17.2769 3.37221C18.4241 4.51564 19.0686 6.06645 19.0686 7.68349V10.3464H5.1958V7.68349C5.1958 6.06645 5.84032 4.51564 6.98758 3.37221C8.13484 2.22879 9.69085 1.58643 11.3133 1.58643V1.58643Z" stroke="#4EBD09" stroke-miterlimit="10" stroke-linecap="round"/>
<path d="M12.1289 1.58643V7.51576" stroke="#4EBD09" stroke-miterlimit="10" stroke-linecap="round"/>
<path d="M27.1481 8.88721H35.3736C35.504 8.88721 35.6291 8.93871 35.7214 9.03043C35.8138 9.12215 35.8659 9.24662 35.8664 9.37656V16.0615" stroke="#4EBD09" stroke-miterlimit="10" stroke-linecap="round"/>
<path d="M37.5596 14.5104L36.0259 16.0338C35.9818 16.0772 35.9222 16.1015 35.8602 16.1015C35.7982 16.1015 35.7387 16.0772 35.6945 16.0338L34.166 14.5104" stroke="#4EBD09" stroke-miterlimit="10" stroke-linecap="round"/>
<path d="M20.8471 42.7459H12.6216C12.491 42.7459 12.3656 42.6942 12.2732 42.6021C12.1808 42.51 12.1289 42.3851 12.1289 42.2548V35.6096" stroke="#4EBD09" stroke-miterlimit="10" stroke-linecap="round"/>
<path d="M10.4387 37.154L11.9672 35.6323C11.9889 35.6106 12.0148 35.5934 12.0432 35.5816C12.0716 35.5699 12.1021 35.5638 12.1329 35.5638C12.1636 35.5638 12.1941 35.5699 12.2225 35.5816C12.251 35.5934 12.2768 35.6106 12.2986 35.6323L13.8271 37.154" stroke="#4EBD09" stroke-miterlimit="10" stroke-linecap="round"/>
</svg>
