<svg width="48" height="48" viewBox="0 0 48 48" fill="none" xmlns="http://www.w3.org/2000/svg">
<path d="M18.7958 30.0128L8.49474 33.7819C6.8852 34.3722 5.49454 35.4484 4.51154 36.8643C3.52854 38.2802 3.00081 39.9673 3 41.6964V43.9222C3 44.208 3.11245 44.4822 3.31262 44.6843C3.5128 44.8864 3.78428 45 4.06737 45H43.9579C44.2366 44.9933 44.5016 44.8769 44.6964 44.6754C44.8911 44.474 45.0001 44.2037 45 43.9222V41.6901C45.0011 39.9621 44.4748 38.2758 43.4927 36.8607C42.5106 35.4456 41.1205 34.3706 39.5116 33.7819L29.2484 30" stroke="#4EBD09" stroke-miterlimit="10" stroke-linecap="round"/>
<path d="M34.5 10.5V21.0408C34.5008 22.414 34.2298 23.7739 33.7025 25.0429C33.1752 26.3118 32.4019 27.4649 31.4268 28.4362C30.4518 29.4075 29.294 30.178 28.0196 30.7037C26.7453 31.2294 25.3794 31.5 24 31.5C22.6206 31.5 21.2547 31.2294 19.9804 30.7037C18.706 30.178 17.5482 29.4075 16.5732 28.4362C15.5981 27.4649 14.8248 26.3118 14.2975 25.0429C13.7702 23.7739 13.4992 22.414 13.5 21.0408V10.5" stroke="#4EBD09" stroke-miterlimit="10" stroke-linecap="round"/>
<path d="M23.7014 13.4446L6.09838 8.37938C6.0695 8.36909 6.0446 8.35056 6.02701 8.32628C6.00943 8.30199 6 8.27312 6 8.24355C6 8.21397 6.00943 8.1851 6.02701 8.16082C6.0446 8.13653 6.0695 8.118 6.09838 8.10771L23.7014 3.04252C23.9068 2.98583 24.1247 2.98583 24.3301 3.04252L41.9016 8.13186C41.9305 8.14215 41.9554 8.16068 41.973 8.18497C41.9906 8.20925 42 8.23812 42 8.2677C42 8.29727 41.9906 8.32614 41.973 8.35042C41.9554 8.37471 41.9305 8.39324 41.9016 8.40353L24.2986 13.4687C24.1014 13.5175 23.8936 13.5091 23.7014 13.4446Z" stroke="#4EBD09" stroke-miterlimit="10" stroke-linecap="round"/>
<path d="M42 8.25018V21" stroke="#4EBD09" stroke-miterlimit="10" stroke-linecap="round"/>
<path d="M42.0097 21C42.8052 21.0065 43.5657 21.3089 44.1258 21.8416C44.6858 22.3743 45 23.094 45 23.844V26.5474C45 26.6674 44.9494 26.7826 44.8594 26.8674C44.7694 26.9523 44.6473 27 44.52 27H39.48C39.3527 27 39.2306 26.9523 39.1406 26.8674C39.0506 26.7826 39 26.6674 39 26.5474V23.844C39 23.0898 39.3178 22.3664 39.8834 21.833C40.4491 21.2996 41.2163 21 42.0162 21H42.0097Z" stroke="#4EBD09" stroke-miterlimit="10" stroke-linecap="round"/>
<path d="M13.5 15L14.3256 15.4474C20.5434 18.8509 27.4566 18.8509 33.6744 15.4474L34.5 15" stroke="#4EBD09" stroke-miterlimit="10" stroke-linecap="round"/>
<path d="M31.5 31.5L24 39.1331V45" stroke="#4EBD09" stroke-miterlimit="10" stroke-linecap="round"/>
<path d="M16.5 31.5L24 39" stroke="#4EBD09" stroke-miterlimit="10" stroke-linecap="round"/>
<path d="M19.5 25.5C20.0616 25.9685 20.7497 26.3441 21.5197 26.6025C22.2896 26.8609 23.1242 26.9963 23.9692 26.9999C24.8142 27.0035 25.6508 26.8753 26.4247 26.6235C27.1986 26.3717 27.8924 26.0019 28.4613 25.5383L28.5 25.5" stroke="#4EBD09" stroke-miterlimit="10" stroke-linecap="round"/>
</svg>
