<svg width="48" height="48" viewBox="0 0 48 48" fill="none" xmlns="http://www.w3.org/2000/svg">
<g clip-path="url(#clip0_454_196)">
<path d="M28.7366 31.2191H42.3384C43.412 31.2191 44.4417 31.6465 45.2008 32.4074C45.96 33.1682 46.3865 34.2001 46.3865 35.2761V45.3832C46.3865 45.9355 45.9388 46.3832 45.3865 46.3832H25.6885C25.1362 46.3832 24.6885 45.9355 24.6885 45.3832V35.2761C24.6885 34.2001 25.115 33.1682 25.8742 32.4074C26.6333 31.6465 27.663 31.2191 28.7366 31.2191Z" stroke="#4EBD09" stroke-miterlimit="10" stroke-linecap="round"/>
<path d="M14.1826 26.8569V12.7123C14.1826 9.77119 15.3478 6.95043 17.422 4.8699C19.4963 2.78937 22.31 1.61929 25.2446 1.61682V1.61682C26.6984 1.61682 28.138 1.90383 29.4811 2.46146C30.8242 3.01908 32.0446 3.83641 33.0724 4.86674C34.1003 5.89708 34.9156 7.12025 35.4717 8.4664C36.0279 9.81255 36.314 11.2553 36.3137 12.7123V26.8569" stroke="#4EBD09" stroke-miterlimit="10" stroke-linecap="round"/>
<path d="M26.8599 7.099C26.862 7.68052 26.7496 8.25674 26.5289 8.79458C26.3083 9.33242 25.9838 9.8213 25.5742 10.2331C25.1645 10.645 24.6777 10.9717 24.1418 11.1945C23.6058 11.4173 23.0312 11.5319 22.4509 11.5316H18.8218V15.4976C18.823 17.2047 19.4999 18.8416 20.704 20.0492C21.9081 21.2568 23.5409 21.9363 25.2444 21.9388V21.9388C26.0892 21.9397 26.926 21.7738 27.7068 21.4506C28.4877 21.1274 29.1973 20.6531 29.7953 20.055C30.3932 19.4568 30.8677 18.7465 31.1916 17.9645C31.5156 17.1825 31.6826 16.3443 31.6832 15.4976V11.5316H29.7139C29.0017 11.532 28.3005 11.3553 27.6732 11.0174C27.0459 10.6795 26.5121 10.1908 26.1196 9.59524" stroke="#4EBD09" stroke-miterlimit="10" stroke-linecap="round"/>
<path d="M23.6016 17.3035C23.8179 17.5218 24.0752 17.695 24.3587 17.8133C24.6422 17.9315 24.9462 17.9924 25.2532 17.9924C25.5602 17.9924 25.8642 17.9315 26.1477 17.8133C26.4311 17.695 26.6884 17.5218 26.9048 17.3035" stroke="#4EBD09" stroke-miterlimit="10" stroke-linecap="round"/>
<path d="M6.17418 39.3658L2.54736 33.2512" stroke="#4EBD09" stroke-miterlimit="10" stroke-linecap="round"/>
<path d="M13.957 26.4624L19.793 36.3097C20.6919 37.8256 20.9531 39.6373 20.5192 41.3462C20.0852 43.0551 18.9917 44.5213 17.4791 45.4222V45.4222C16.6477 45.9248 15.7164 46.2386 14.7508 46.3414" stroke="#4EBD09" stroke-miterlimit="10" stroke-linecap="round"/>
<path d="M13.9567 26.4582C12.0849 23.3014 8.01401 22.263 4.86408 24.1389C1.71416 26.0147 0.678018 30.0945 2.54979 33.2513C4.42157 36.408 8.49246 37.4464 11.6424 35.5706C14.7923 33.6947 15.8284 29.615 13.9567 26.4582Z" stroke="#4EBD09" stroke-miterlimit="10" stroke-linecap="round"/>
<path d="M8.43896 33.0647C8.97131 33.1535 9.51783 33.0506 9.98179 32.7744C10.4458 32.4981 10.7972 32.0663 10.974 31.5553" stroke="#4EBD09" stroke-miterlimit="10" stroke-linecap="round"/>
<path d="M14.1864 39.3962H5.72456C3.79995 39.3962 2.23975 40.9598 2.23975 42.8886V42.891C2.23975 44.8198 3.79995 46.3834 5.72456 46.3834H14.1864C16.111 46.3834 17.6712 44.8198 17.6712 42.891V42.8886C17.6712 40.9598 16.111 39.3962 14.1864 39.3962Z" stroke="#4EBD09" stroke-miterlimit="10" stroke-linecap="round"/>
<path d="M11.6382 39.3962V46.3834" stroke="#4EBD09" stroke-miterlimit="10" stroke-linecap="round"/>
<path d="M35.5364 40.5065C36.8773 40.5065 37.9643 39.4171 37.9643 38.0733C37.9643 36.7294 36.8773 35.64 35.5364 35.64C34.1954 35.64 33.1084 36.7294 33.1084 38.0733C33.1084 39.4171 34.1954 40.5065 35.5364 40.5065Z" stroke="#4EBD09" stroke-miterlimit="10" stroke-linecap="round"/>
<path d="M28.6968 20.9707V24.5238C28.6972 24.6169 28.6612 24.7065 28.5967 24.7734L25.5192 28.0395C25.4847 28.0754 25.4433 28.104 25.3975 28.1235C25.3517 28.143 25.3024 28.1531 25.2527 28.1531C25.2029 28.1531 25.1537 28.143 25.1079 28.1235C25.0621 28.104 25.0207 28.0754 24.9861 28.0395L21.9087 24.7734C21.8441 24.7065 21.8082 24.6169 21.8086 24.5238V20.9707" stroke="#4EBD09" stroke-miterlimit="10" stroke-linecap="round"/>
<path d="M40.4381 31.2193C39.3396 29.2371 37.7227 27.5926 35.7614 26.4624C32.4791 24.5681 28.6963 24.5284 28.6963 24.5284" stroke="#4EBD09" stroke-miterlimit="10" stroke-linecap="round"/>
<path d="M21.8078 24.5237C20.4499 24.7082 19.1125 25.0207 17.8132 25.4569C16.6102 25.8805 15.4725 26.471 14.4331 27.2112" stroke="#4EBD09" stroke-miterlimit="10" stroke-linecap="round"/>
</g>
<defs>
<clipPath id="clip0_454_196">
<rect width="48" height="48" fill="white"/>
</clipPath>
</defs>
</svg>
