<svg width="48" height="48" viewBox="0 0 48 48" fill="none" xmlns="http://www.w3.org/2000/svg">
<path d="M40.8937 1.86255H7.10685C4.21414 1.86255 1.86914 4.16787 1.86914 7.01162V26.6869C1.86914 29.5306 4.21414 31.836 7.10685 31.836H40.8937C43.7864 31.836 46.1314 29.5306 46.1314 26.6869V7.01162C46.1314 4.16787 43.7864 1.86255 40.8937 1.86255Z" stroke="#4EBD09" stroke-miterlimit="10"/>
<path d="M34.1512 46.1373H13.8496C13.6278 46.1394 13.4092 46.0846 13.2154 45.9783C13.0217 45.8721 12.8595 45.718 12.7448 45.5313C12.6301 45.3446 12.5669 45.1317 12.5614 44.9137C12.5559 44.6957 12.6084 44.48 12.7135 44.2879L15.5168 38.9431C15.6241 38.7377 15.7869 38.5654 15.9873 38.4451C16.1877 38.3248 16.418 38.2612 16.6529 38.2614H31.407C31.6418 38.2612 31.8721 38.3248 32.0726 38.4451C32.273 38.5654 32.4358 38.7377 32.543 38.9431L35.2873 44.2879C35.3925 44.48 35.4449 44.6957 35.4394 44.9137C35.4339 45.1317 35.3707 45.3446 35.256 45.5313C35.1414 45.718 34.9791 45.8721 34.7854 45.9783C34.5917 46.0846 34.3731 46.1394 34.1512 46.1373V46.1373Z" stroke="#4EBD09" stroke-miterlimit="10"/>
<path d="M27.334 31.8362V39.8064" stroke="#4EBD09" stroke-miterlimit="10" stroke-linecap="round"/>
<path d="M20.4888 31.8362V39.8064" stroke="#4EBD09" stroke-miterlimit="10" stroke-linecap="round"/>
<path d="M30.5581 11.5298L35.1835 16.3888C35.4178 16.6402 35.5478 16.9688 35.5478 17.3098C35.5478 17.6508 35.4178 17.9794 35.1835 18.2308L30.5581 23.0898" stroke="#4EBD09" stroke-miterlimit="10" stroke-linecap="round"/>
<path d="M17.4423 23.0898L12.8169 18.2308C12.5826 17.9794 12.4526 17.6508 12.4526 17.3098C12.4526 16.9688 12.5826 16.6402 12.8169 16.3888L17.4423 11.5298" stroke="#4EBD09" stroke-miterlimit="10" stroke-linecap="round"/>
<path d="M22.1045 23.0898L25.8963 11.5298" stroke="#4EBD09" stroke-miterlimit="10" stroke-linecap="round"/>
</svg>
