<svg version="1.2" xmlns="http://www.w3.org/2000/svg" viewBox="0 0 26 26" width="26" height="26">
	<title>item-time-img-svg</title>
	<style>
		.s0 { fill: #ffffff } 
	</style>
	<path id="Layer" fill-rule="evenodd" class="s0" d="m26.3 13c0 7.4-5.9 13.3-13.3 13.3-7.4 0-13.3-5.9-13.3-13.3 0-7.4 5.9-13.3 13.3-13.3 7.4 0 13.3 5.9 13.3 13.3zm-2.6 0c0-5.9-4.8-10.7-10.7-10.7-5.9 0-10.7 4.8-10.7 10.7 0 5.9 4.8 10.7 10.7 10.7 5.9 0 10.7-4.8 10.7-10.7z"/>
	<path id="Layer" class="s0" d="m14.3 12.4l3.6 3.7-1.8 1.8-4.4-4.3v-7.3h2.6z"/>
</svg>