<svg version="1.2" xmlns="http://www.w3.org/2000/svg" viewBox="0 0 24 26" width="24" height="26">
	<title>item-date-img-svg</title>
	<style>
		.s0 { fill: #ffffff } 
	</style>
	<path id="Layer" fill-rule="evenodd" class="s0" d="m24 5v18.7c0 1.4-1.2 2.6-2.7 2.6h-18.6c-0.7 0-1.4-0.2-1.9-0.7-0.5-0.5-0.8-1.2-0.8-1.9v-18.7c0-1.5 1.2-2.7 2.7-2.7h1.3v-2.6h2.7v2.6h10.6v-2.6h2.7v2.6h1.3c1.5 0 2.7 1.2 2.7 2.7zm-2.7 18.7v-13.4h-18.6v13.4zm-18.7-16h18.7v-2.7h-18.7zm2.7 4h2.6v2.7h-2.6zm10.6 0h2.7v2.6h-2.7zm-5.3 0h2.7v2.7h-2.7z"/>
</svg>