<svg version="1.2" xmlns="http://www.w3.org/2000/svg" viewBox="0 0 22 28" width="22" height="28">
	<title>item-place-img-svg</title>
	<style>
		.s0 { fill: #ffffff } 
	</style>
	<path id="Layer" fill-rule="evenodd" class="s0" d="m11 0.7c5.6 0 10.7 4.3 10.7 10.9q0 6.6-10.7 15.7-10.7-9.1-10.7-15.7c0-6.6 5.1-10.9 10.7-10.9zm8 10.9c0-4.8-3.5-8.3-8-8.3-4.5 0-8 3.5-8 8.3 0 3.1 2.6 7.3 8 12.2 5.4-4.9 8-9.1 8-12.2zm-8 2.4c-1.5 0-2.7-1.2-2.7-2.7 0-1.4 1.2-2.6 2.7-2.6 1.5 0 2.7 1.2 2.7 2.6 0 1.5-1.2 2.7-2.7 2.7z"/>
</svg>