<svg version="1.2" xmlns="http://www.w3.org/2000/svg" viewBox="0 0 28 30" width="28" height="30">
	<title>item-cost-img-svg</title>
	<style>
		.s0 { fill: #ffffff } 
	</style>
	<path id="Layer" fill-rule="evenodd" class="s0" d="m5.2 11.5h-3.5v2.6h2.9q0.4 0 0.6 0.2 0.2 0.2 0.2 0.5 0 0.3-0.2 0.5-0.2 0.2-0.6 0.2h-2.9v3.3q0 0.6-0.2 0.9-0.2 0.3-0.6 0.3-0.4 0-0.7-0.3-0.2-0.3-0.2-0.9v-7.6q0-0.4 0.1-0.7 0.1-0.3 0.4-0.4 0.2-0.1 0.6-0.1h4.1q0.4 0 0.6 0.2 0.2 0.2 0.2 0.6 0 0.3-0.2 0.5-0.2 0.2-0.6 0.2zm3.6 4.1h-0.6v3.2q0 0.6-0.3 0.9-0.2 0.3-0.6 0.3-0.4 0-0.6-0.3-0.3-0.3-0.3-0.9v-7.6q0-0.6 0.3-0.9 0.2-0.3 0.8-0.3h2.8q0.6 0 1 0.1 0.4 0 0.8 0.2 0.4 0.2 0.7 0.5 0.3 0.4 0.5 0.9 0.1 0.5 0.1 1 0 1.1-0.5 1.8-0.6 0.6-1.7 0.9 0.5 0.3 0.9 0.8 0.4 0.6 0.8 1.2 0.3 0.6 0.5 1.1 0.2 0.5 0.2 0.7 0 0.2-0.1 0.4-0.1 0.2-0.3 0.3-0.2 0.1-0.5 0.1-0.3 0-0.5-0.2-0.2-0.1-0.3-0.4-0.2-0.3-0.4-0.7l-0.7-1.3q-0.4-0.7-0.7-1.1-0.3-0.4-0.6-0.5-0.3-0.2-0.7-0.2zm1-4.1h-1.6v2.7h1.5q0.7 0 1.1-0.1 0.4-0.1 0.6-0.4 0.3-0.3 0.3-0.9 0-0.4-0.2-0.7-0.2-0.3-0.5-0.5-0.3-0.1-1.2-0.1zm10.1 0h-3.9v2.5h3.6q0.4 0 0.6 0.2 0.2 0.2 0.2 0.5 0 0.3-0.2 0.5-0.2 0.3-0.6 0.3h-3.6v2.7h4q0.4 0 0.6 0.3 0.2 0.2 0.2 0.5 0 0.4-0.2 0.6-0.2 0.2-0.6 0.2h-4.7q-0.6 0-0.8-0.3-0.3-0.2-0.3-0.9v-7.4q0-0.4 0.1-0.7 0.1-0.3 0.4-0.4 0.2-0.1 0.6-0.1h4.6q0.4 0 0.6 0.2 0.2 0.2 0.2 0.6 0 0.3-0.2 0.5-0.2 0.2-0.6 0.2zm7.1 0h-3.9v2.5h3.6q0.4 0 0.6 0.2 0.2 0.2 0.2 0.5 0 0.3-0.2 0.5-0.2 0.3-0.6 0.3h-3.6v2.7h4.1q0.4 0 0.6 0.3 0.2 0.2 0.2 0.5 0 0.4-0.2 0.6-0.2 0.2-0.6 0.2h-4.8q-0.5 0-0.8-0.3-0.2-0.2-0.2-0.9v-7.4q0-0.4 0.1-0.7 0.1-0.3 0.3-0.4 0.3-0.1 0.6-0.1h4.6q0.5 0 0.7 0.2 0.2 0.2 0.2 0.6 0 0.3-0.2 0.5-0.2 0.2-0.7 0.2z"/>
	<path id="Layer" class="s0" d="m27.3 22c-2.5 4.8-7.5 8-13.3 8-5.8 0-10.8-3.2-13.3-8h2.3c2.4 3.6 6.4 6 11 6 4.6 0 8.6-2.4 11-6z"/>
	<path id="Layer" class="s0" d="m0.7 8c2.5-4.8 7.5-8 13.3-8 5.8 0 10.8 3.2 13.3 8h-2.3c-2.4-3.6-6.4-6-11-6-4.6 0-8.6 2.4-11 6z"/>
</svg>